<svg xmlns:inkscape="http://www.inkscape.org/namespaces/inkscape"
  xmlns:sodipodi="http://sodipodi.sourceforge.net/DTD/sodipodi-0.dtd"
  xmlns="http://www.w3.org/2000/svg" xmlns:svg="http://www.w3.org/2000/svg" viewBox="0 0 300 300"
  version="1.1" id="svg1" inkscape:version="1.3.2 (091e20ef0f, 2023-11-25)"
  sodipodi:docname="coins.svg">
  <sodipodi:namedview id="namedview1" pagecolor="#ffffff" bordercolor="#000000"
    borderopacity="0.28235294" inkscape:showpageshadow="true" inkscape:pageopacity="0.0"
    inkscape:pagecheckerboard="false" inkscape:deskcolor="#747474" inkscape:document-units="px"
    showborder="true" labelstyle="default" inkscape:clip-to-page="false" inkscape:zoom="2.964"
    inkscape:cx="134.44669" inkscape:cy="141.8691" inkscape:window-width="1920"
    inkscape:window-height="939" inkscape:window-x="0" inkscape:window-y="338"
    inkscape:window-maximized="1" inkscape:current-layer="layer3" />
  <defs id="defs1">
    <clipPath clipPathUnits="userSpaceOnUse" id="clipPath637">
      <path d="m 3082.51,1352.32 v 0.03 l 0.02,0.19 -0.02,-0.22"
        transform="matrix(0.12194825,0,0,-0.12195196,-375.46645,165.37905)" id="path637" />
    </clipPath>
    <clipPath clipPathUnits="userSpaceOnUse" id="clipPath638">
      <path d="m 2002.96,1360.54 -0.01,0.17 0.02,0.21 0.01,-0.16 -0.02,-0.22"
        transform="matrix(0.12195196,0,0,-0.10869624,-243.76977,148.38124)" id="path638" />
    </clipPath>
    <clipPath clipPathUnits="userSpaceOnUse" id="clipPath639">
      <path d="m 3520.48,1136.29 v 0.01 l 0.03,0.11 -0.03,-0.12"
        transform="matrix(0.12194825,0,0,-0.12195196,-428.87978,139.03742)" id="path639" />
    </clipPath>
    <clipPath clipPathUnits="userSpaceOnUse" id="clipPath640">
      <path
        d="m 3296.9,1087.01 c -6.55,0 -13.18,0.04 -19.88,0.13 -1.92,0.02 -3.86,0.07 -5.79,0.1 -6.36,0.11 -12.78,0.25 -19.27,0.43 -2.59,0.07 -5.19,0.15 -7.8,0.23 -6.63,0.22 -13.32,0.47 -20.07,0.76 -1.86,0.08 -3.7,0.15 -5.58,0.23 -8.52,0.4 -17.12,0.85 -25.78,1.36 -2.06,0.13 -4.15,0.27 -6.23,0.4 -6.78,0.42 -13.6,0.87 -20.46,1.36 -1.4,0.1 -2.78,0.18 -4.19,0.28 l -2.31,0.2 c -16.03,1.19 -32.2,2.57 -48.49,4.13 l -2.27,0.21 c -16.85,1.63 -33.79,3.46 -50.75,5.47 l -1.4,0.15 c -1.09,0.13 -2.18,0.28 -3.28,0.42 -24.44,2.94 -48.89,6.25 -73.14,9.91 -1.08,0.16 -2.18,0.31 -3.26,0.47 l -1.82,0.29 c -10.47,1.61 -20.89,3.28 -31.25,5.01 -2.23,0.38 -4.45,0.76 -6.68,1.14 -10.62,1.8 -21.19,3.66 -31.64,5.59 l -0.09,0.02 -0.31,0.06 c -10.46,1.93 -20.78,3.96 -31.03,6.02 -2.07,0.41 -4.14,0.83 -6.21,1.25 -9.98,2.04 -19.86,4.14 -29.6,6.29 l -2.06,0.44 c -0.97,0.21 -1.88,0.45 -2.85,0.67 -11.46,2.57 -22.77,5.2 -33.81,7.92 -1.02,0.25 -2.01,0.51 -3.02,0.76 -11.55,2.87 -22.89,5.8 -33.91,8.83 h -0.01 c -12.54,3.44 -24.71,6.98 -36.45,10.61 -38.37,11.87 -69.13,23.79 -92.38,35.38 -3.02,-0.12 -5.99,-0.36 -9.02,-0.47 l -2.6,-0.11 c -19.28,-0.68 -38.69,-1.06 -58.15,-1.14 l -1.61,-0.03 c -0.03,0 -0.07,0 -0.11,0 -0.61,0 -1.22,0.01 -1.82,0.02 -0.57,0 -1.14,0.01 -1.71,0.01 -0.04,0 -0.08,0 -0.12,0 -0.93,0 -1.85,0 -2.78,0 -27.13,0 -54.31,0.59 -81.31,1.76 -1.25,0.05 -2.51,0.06 -3.76,0.12 l -2.1,0.12 c -12.06,0.56 -24.07,1.25 -36.03,2.05 -2.58,0.17 -5.14,0.36 -7.71,0.54 -12.26,0.87 -24.47,1.82 -36.56,2.94 l -0.1,0.01 -0.37,0.03 c -12.09,1.13 -24.05,2.41 -35.92,3.78 -2.4,0.28 -4.8,0.55 -7.19,0.84 -11.58,1.39 -23.04,2.89 -34.35,4.52 l -2.39,0.31 c -1.13,0.17 -2.19,0.38 -3.32,0.54 -13.32,1.98 -26.46,4.09 -39.34,6.4 -1.18,0.21 -2.33,0.44 -3.51,0.66 -13.45,2.45 -26.69,5.06 -39.57,7.88 h -0.01 c -14.66,3.22 -28.91,6.67 -42.69,10.36 -93.59,25.08 -150.4,57.16 -169.48,90.53 0.15,1.42 0.21,2.83 0.21,4.25 -0.08,8.01 -2.52,16.01 -7.33,23.91 2.43,36.16 48.76,71.92 140.25,100.15 103.32,31.89 243.97,47.95 386.27,47.95 133.91,0 269.29,-14.23 376.24,-42.89 118.42,-31.73 177.94,-73.59 176.65,-116.15 l 0.02,-0.07 c -0.04,-2.84 -0.35,-5.68 -0.93,-8.51 l -0.04,-0.35 c -0.52,-2.47 -1.31,-4.93 -2.25,-7.39 l -0.52,-1.23 c -0.94,-2.31 -2.07,-4.62 -3.38,-6.92 l -0.6,-1.05 c -1.59,-2.67 -3.32,-5.33 -5.4,-7.97 l -0.39,-0.45 -1.7,-1.98 c -1.24,-1.46 -2.51,-2.91 -3.89,-4.36 l -2.39,-2.37 c -1.34,-1.32 -2.73,-2.63 -4.2,-3.94 -0.92,-0.82 -1.86,-1.63 -2.83,-2.44 -1.53,-1.29 -3.14,-2.58 -4.8,-3.85 -1.03,-0.8 -2.05,-1.59 -3.13,-2.38 l -1.54,-1.17 c -1.17,-0.84 -2.49,-1.67 -3.72,-2.51 -1.29,-0.88 -2.56,-1.76 -3.91,-2.63 l -1.1,-0.68 c 121.39,-13.99 244.19,-37.35 339.07,-66.7 100.91,-31.21 149.77,-62.17 145.61,-87.12 l 0.01,-0.05 c -0.24,-1.67 -0.71,-3.31 -1.42,-4.92 l -0.06,-0.2 c -0.63,-1.4 -1.5,-2.77 -2.49,-4.12 l -0.54,-0.67 c -0.98,-1.26 -2.13,-2.5 -3.44,-3.72 l -0.59,-0.56 c -1.58,-1.4 -3.28,-2.79 -5.28,-4.12 l -0.37,-0.23 -1.63,-0.99 c -1.18,-0.73 -2.39,-1.45 -3.7,-2.16 l -2.24,-1.14 c -1.27,-0.64 -2.57,-1.26 -3.95,-1.88 l -2.64,-1.14 c -1.43,-0.6 -2.91,-1.19 -4.45,-1.77 -0.95,-0.36 -1.9,-0.71 -2.9,-1.07 l -1.42,-0.52 c -1.09,-0.38 -2.3,-0.73 -3.43,-1.09 -1.19,-0.38 -2.35,-0.77 -3.59,-1.14 -1.77,-0.53 -3.65,-1.04 -5.53,-1.55 -1.23,-0.33 -2.42,-0.68 -3.7,-1 -2.18,-0.56 -4.48,-1.08 -6.78,-1.61 -1.12,-0.26 -2.18,-0.52 -3.33,-0.77 -3.5,-0.76 -7.14,-1.5 -10.93,-2.2 l -0.06,-0.01 H 3446 c -15.85,-2.93 -34.24,-5.32 -55.17,-7.11 -4.59,-0.39 -9.26,-0.75 -14.01,-1.08 l -1.35,-0.07 c -6.94,-0.47 -14.02,-0.87 -21.26,-1.2 -1.66,-0.08 -3.37,-0.13 -5.04,-0.2 -5.77,-0.24 -11.63,-0.44 -17.58,-0.59 -2.35,-0.07 -4.71,-0.12 -7.08,-0.17 -5.99,-0.12 -12.06,-0.2 -18.21,-0.24 -1.8,-0.01 -3.57,-0.04 -5.39,-0.05 -1.33,0 -2.67,0 -4.01,0 m -671.11,240.72 -1.03,-0.05 1.01,0.04 0.02,0.01 m -512.29,15.44 -0.01,-0.16 0.02,-0.21 0.01,0.16 -0.02,0.21"
        transform="matrix(6.5436461e-4,0,0,-0.0023245,-1.3080094,3.5218504)" id="path640" />
    </clipPath>
    <clipPath clipPathUnits="userSpaceOnUse" id="clipPath641">
      <path d="m 2113.51,1342.8 -0.02,0.21 0.01,0.16 0.02,-0.21 -0.01,-0.16"
        transform="matrix(0.12194839,0,0,-0.12195196,-257.29891,164.28148)" id="path641" />
    </clipPath>
    <clipPath clipPathUnits="userSpaceOnUse" id="clipPath642">
      <path
        d="m 2010.2,1335.2 c -4.84,8.46 -7.25,17.02 -7.22,25.56 0.01,0.86 0.04,1.73 0.1,2.6 4.81,-7.9 7.25,-15.9 7.33,-23.91 0,-1.42 -0.06,-2.83 -0.21,-4.25"
        transform="matrix(0.07575758,0,0,-0.02923985,-151.43182,39.944559)" id="path642" />
    </clipPath>
    <clipPath clipPathUnits="userSpaceOnUse" id="clipPath536">
      <path
        d="m 4156.26,1516.72 c -0.59,0 -1.19,0.01 -1.78,0.02 -0.58,0.01 -1.16,0.01 -1.74,0.01 -0.04,0 -0.08,0 -0.12,0 -0.9,0 -1.8,0 -2.7,0 -27.16,0 -54.36,0.59 -81.39,1.76 -1.25,0.05 -2.51,0.07 -3.76,0.12 l -2.1,0.12 c -12.06,0.56 -24.07,1.25 -36.03,2.05 -2.58,0.17 -5.14,0.36 -7.71,0.54 -12.26,0.87 -24.47,1.82 -36.56,2.94 l -0.1,0.01 -0.37,0.04 c -12.09,1.12 -24.05,2.4 -35.92,3.77 -2.4,0.28 -4.8,0.55 -7.19,0.84 -11.58,1.39 -23.04,2.89 -34.35,4.52 l -2.39,0.32 c -1.12,0.16 -2.19,0.37 -3.32,0.54 -13.32,1.97 -26.46,4.08 -39.34,6.39 -1.18,0.21 -2.33,0.44 -3.5,0.66 -13.46,2.45 -26.7,5.06 -39.57,7.88 h -0.02 c -14.66,3.22 -28.91,6.67 -42.69,10.36 -117.51,31.49 -177.04,74.02 -176.71,116.26 v -0.01 c 0.46,36.99 46.81,73.72 140.36,102.6 103.32,31.88 243.97,47.94 386.27,47.94 133.91,0 269.29,-14.23 376.24,-42.89 118.42,-31.73 177.94,-73.59 176.65,-116.15 l 0.02,-0.1 0.02,0.22 c -0.02,-2.9 -0.35,-5.8 -0.95,-8.7 l -0.04,-0.35 c -0.52,-2.47 -1.31,-4.93 -2.25,-7.39 l -0.52,-1.23 c -0.94,-2.31 -2.07,-4.62 -3.38,-6.92 l -0.6,-1.05 c -1.58,-2.67 -3.32,-5.33 -5.4,-7.97 l -0.39,-0.45 -1.7,-1.98 c -1.24,-1.46 -2.51,-2.91 -3.89,-4.36 l -2.38,-2.36 c -1.35,-1.32 -2.74,-2.64 -4.21,-3.95 -0.92,-0.82 -1.86,-1.63 -2.83,-2.44 -1.53,-1.29 -3.14,-2.57 -4.79,-3.85 -1.03,-0.8 -2.06,-1.59 -3.14,-2.38 l -1.54,-1.17 c -1.17,-0.84 -2.49,-1.67 -3.72,-2.51 -1.29,-0.88 -2.56,-1.76 -3.91,-2.63 -1.93,-1.24 -3.98,-2.47 -6.04,-3.71 -1.35,-0.81 -2.65,-1.62 -4.05,-2.43 -2.38,-1.37 -4.91,-2.71 -7.44,-4.06 -1.24,-0.66 -2.4,-1.32 -3.66,-1.97 -3.86,-1.98 -7.87,-3.94 -12.07,-5.88 l -0.07,-0.04 h -0.01 c -17.53,-8.1 -38,-15.82 -61.43,-23.05 -5.14,-1.59 -10.38,-3.14 -15.7,-4.65 l -1.52,-0.4 c -7.78,-2.19 -15.74,-4.3 -23.88,-6.32 -1.87,-0.46 -3.79,-0.89 -5.67,-1.34 -6.5,-1.57 -13.1,-3.09 -19.8,-4.56 -2.66,-0.58 -5.32,-1.14 -8,-1.71 -6.76,-1.41 -13.61,-2.78 -20.56,-4.09 -2.04,-0.39 -4.04,-0.79 -6.09,-1.17 -8.88,-1.63 -17.9,-3.17 -27.05,-4.63 -2.16,-0.35 -4.37,-0.67 -6.55,-1 -7.22,-1.12 -14.5,-2.18 -21.86,-3.19 -2.94,-0.41 -5.89,-0.8 -8.86,-1.19 -7.53,-0.99 -15.13,-1.92 -22.8,-2.8 -2.12,-0.24 -4.22,-0.5 -6.35,-0.74 -9.69,-1.07 -19.48,-2.05 -29.34,-2.95 -2.36,-0.22 -4.74,-0.4 -7.1,-0.61 -7.74,-0.67 -15.51,-1.29 -23.33,-1.86 -1.61,-0.11 -3.18,-0.27 -4.78,-0.38 l -2.64,-0.14 c -18.3,-1.25 -36.79,-2.23 -55.43,-2.92 l -2.6,-0.11 c -19.28,-0.68 -38.69,-1.05 -58.15,-1.14 l -1.6,-0.03 c -0.04,0 -0.09,0 -0.13,0 m 63.46,125.95 -1.03,-0.05 1.01,0.05 h 0.02 m -156.09,0.75 h 0.01 c 1.48,-0.07 2.97,-0.13 4.45,-0.19 -1.49,0.06 -2.98,0.12 -4.46,0.19 m -466.74,32.06 -0.01,0.17 0.02,0.21 c 0,-0.13 -0.01,-0.25 -0.01,-0.38"
        transform="matrix(9.1894874e-4,0,0,-0.00317259,-3.3016909,5.8061549)" id="path536" />
    </clipPath>
    <clipPath clipPathUnits="userSpaceOnUse" id="clipPath435">
      <path
        d="m 982.781,1748.31 c -0.578,0 -1.152,0.01 -1.73,0.02 -0.571,0.01 -1.141,0.02 -1.711,0.02 -0.039,0 -0.078,0 -0.117,0 -0.926,-0.01 -1.852,-0.01 -2.778,-0.01 -27.132,0 -54.312,0.59 -81.316,1.76 -1.25,0.05 -2.508,0.07 -3.758,0.12 l -2.094,0.12 c -12.066,0.57 -24.074,1.25 -36.035,2.05 -2.578,0.17 -5.14,0.36 -7.711,0.54 -12.261,0.87 -24.472,1.82 -36.562,2.94 l -0.098,0.01 -0.367,0.04 c -12.09,1.12 -24.047,2.41 -35.922,3.78 -2.398,0.27 -4.801,0.54 -7.191,0.83 -11.578,1.39 -23.036,2.89 -34.352,4.52 l -2.383,0.32 c -1.129,0.16 -2.195,0.37 -3.32,0.54 -13.32,1.97 -26.469,4.08 -39.34,6.39 -1.183,0.21 -2.332,0.44 -3.508,0.66 -13.461,2.45 -26.695,5.06 -39.57,7.88 h -0.02 c -14.656,3.22 -28.906,6.67 -42.683,10.36 -117.508,31.49 -177.039,74.02 -176.715,116.26 v -0.01 c 0.457,36.98 46.816,73.72 140.363,102.6 103.321,31.88 243.965,47.94 386.27,47.94 133.907,0 269.287,-14.23 376.237,-42.89 118.42,-31.73 177.94,-73.59 176.66,-116.15 l 0.02,-0.1 0.01,0.22 c -0.02,-2.9 -0.35,-5.8 -0.95,-8.7 l -0.03,-0.35 c -0.53,-2.47 -1.32,-4.93 -2.25,-7.39 l -0.52,-1.22 c -0.95,-2.32 -2.08,-4.62 -3.39,-6.92 l -0.6,-1.06 c -1.58,-2.67 -3.32,-5.33 -5.4,-7.97 l -0.39,-0.45 -1.7,-1.98 c -1.23,-1.45 -2.5,-2.91 -3.89,-4.36 l -2.38,-2.36 c -1.35,-1.32 -2.74,-2.64 -4.21,-3.95 -0.91,-0.82 -1.86,-1.63 -2.83,-2.44 -1.53,-1.29 -3.13,-2.57 -4.79,-3.85 -1.03,-0.8 -2.06,-1.59 -3.13,-2.38 l -1.54,-1.17 c -1.18,-0.84 -2.5,-1.67 -3.73,-2.51 -1.29,-0.87 -2.55,-1.75 -3.91,-2.63 -1.93,-1.24 -3.98,-2.47 -6.04,-3.71 -1.35,-0.81 -2.65,-1.62 -4.05,-2.43 -2.38,-1.36 -4.91,-2.71 -7.44,-4.06 -1.23,-0.65 -2.39,-1.32 -3.66,-1.97 -3.86,-1.98 -7.87,-3.94 -12.07,-5.88 l -0.07,-0.03 -0.01,-0.01 c -17.53,-8.1 -38,-15.82 -61.43,-23.05 -5.14,-1.59 -10.38,-3.14 -15.7,-4.65 l -1.52,-0.4 c -7.78,-2.19 -15.74,-4.29 -23.88,-6.31 -1.86,-0.47 -3.79,-0.9 -5.67,-1.35 -6.5,-1.57 -13.1,-3.09 -19.8,-4.56 -2.65,-0.57 -5.32,-1.14 -8,-1.71 -6.76,-1.41 -13.61,-2.78 -20.56,-4.09 -2.04,-0.38 -4.03,-0.79 -6.09,-1.17 -8.88,-1.63 -17.9,-3.17 -27.05,-4.63 -2.16,-0.35 -4.37,-0.66 -6.55,-1 -7.22,-1.12 -14.5,-2.18 -21.86,-3.19 -2.94,-0.41 -5.89,-0.8 -8.86,-1.19 -7.53,-0.99 -15.13,-1.92 -22.8,-2.79 -2.12,-0.25 -4.21,-0.51 -6.34,-0.75 -9.7,-1.07 -19.48,-2.05 -29.35,-2.95 -2.36,-0.21 -4.74,-0.4 -7.1,-0.6 -7.73,-0.68 -15.51,-1.3 -23.33,-1.87 -1.61,-0.11 -3.18,-0.27 -4.78,-0.38 l -2.64,-0.14 c -18.3,-1.25 -36.79,-2.23 -55.43,-2.92 l -2.59,-0.1 c -19.29,-0.69 -38.7,-1.06 -58.16,-1.15 l -1.602,-0.03 c -0.066,0 -0.136,0 -0.207,0 m -559.285,158.76 -0.012,0.17 0.016,0.21 c -0.004,-0.13 -0.004,-0.25 -0.004,-0.38"
        transform="matrix(9.1894874e-4,0,0,-0.00316256,-0.38586658,6.5215054)" id="path435" />
    </clipPath>
    <clipPath clipPathUnits="userSpaceOnUse" id="clipPath637-9">
      <path d="m 3082.51,1352.32 v 0.03 l 0.02,0.19 -0.02,-0.22"
        transform="matrix(0.12194825,0,0,-0.12195196,-375.46645,165.37905)" id="path637-4" />
    </clipPath>
    <clipPath clipPathUnits="userSpaceOnUse" id="clipPath638-9">
      <path d="m 2002.96,1360.54 -0.01,0.17 0.02,0.21 0.01,-0.16 -0.02,-0.22"
        transform="matrix(0.12195196,0,0,-0.10869624,-243.76977,148.38124)" id="path638-0" />
    </clipPath>
    <clipPath clipPathUnits="userSpaceOnUse" id="clipPath639-9">
      <path d="m 3520.48,1136.29 v 0.01 l 0.03,0.11 -0.03,-0.12"
        transform="matrix(0.12194825,0,0,-0.12195196,-428.87978,139.03742)" id="path639-1" />
    </clipPath>
    <clipPath clipPathUnits="userSpaceOnUse" id="clipPath640-7">
      <path
        d="m 3296.9,1087.01 c -6.55,0 -13.18,0.04 -19.88,0.13 -1.92,0.02 -3.86,0.07 -5.79,0.1 -6.36,0.11 -12.78,0.25 -19.27,0.43 -2.59,0.07 -5.19,0.15 -7.8,0.23 -6.63,0.22 -13.32,0.47 -20.07,0.76 -1.86,0.08 -3.7,0.15 -5.58,0.23 -8.52,0.4 -17.12,0.85 -25.78,1.36 -2.06,0.13 -4.15,0.27 -6.23,0.4 -6.78,0.42 -13.6,0.87 -20.46,1.36 -1.4,0.1 -2.78,0.18 -4.19,0.28 l -2.31,0.2 c -16.03,1.19 -32.2,2.57 -48.49,4.13 l -2.27,0.21 c -16.85,1.63 -33.79,3.46 -50.75,5.47 l -1.4,0.15 c -1.09,0.13 -2.18,0.28 -3.28,0.42 -24.44,2.94 -48.89,6.25 -73.14,9.91 -1.08,0.16 -2.18,0.31 -3.26,0.47 l -1.82,0.29 c -10.47,1.61 -20.89,3.28 -31.25,5.01 -2.23,0.38 -4.45,0.76 -6.68,1.14 -10.62,1.8 -21.19,3.66 -31.64,5.59 l -0.09,0.02 -0.31,0.06 c -10.46,1.93 -20.78,3.96 -31.03,6.02 -2.07,0.41 -4.14,0.83 -6.21,1.25 -9.98,2.04 -19.86,4.14 -29.6,6.29 l -2.06,0.44 c -0.97,0.21 -1.88,0.45 -2.85,0.67 -11.46,2.57 -22.77,5.2 -33.81,7.92 -1.02,0.25 -2.01,0.51 -3.02,0.76 -11.55,2.87 -22.89,5.8 -33.91,8.83 h -0.01 c -12.54,3.44 -24.71,6.98 -36.45,10.61 -38.37,11.87 -69.13,23.79 -92.38,35.38 -3.02,-0.12 -5.99,-0.36 -9.02,-0.47 l -2.6,-0.11 c -19.28,-0.68 -38.69,-1.06 -58.15,-1.14 l -1.61,-0.03 c -0.03,0 -0.07,0 -0.11,0 -0.61,0 -1.22,0.01 -1.82,0.02 -0.57,0 -1.14,0.01 -1.71,0.01 -0.04,0 -0.08,0 -0.12,0 -0.93,0 -1.85,0 -2.78,0 -27.13,0 -54.31,0.59 -81.31,1.76 -1.25,0.05 -2.51,0.06 -3.76,0.12 l -2.1,0.12 c -12.06,0.56 -24.07,1.25 -36.03,2.05 -2.58,0.17 -5.14,0.36 -7.71,0.54 -12.26,0.87 -24.47,1.82 -36.56,2.94 l -0.1,0.01 -0.37,0.03 c -12.09,1.13 -24.05,2.41 -35.92,3.78 -2.4,0.28 -4.8,0.55 -7.19,0.84 -11.58,1.39 -23.04,2.89 -34.35,4.52 l -2.39,0.31 c -1.13,0.17 -2.19,0.38 -3.32,0.54 -13.32,1.98 -26.46,4.09 -39.34,6.4 -1.18,0.21 -2.33,0.44 -3.51,0.66 -13.45,2.45 -26.69,5.06 -39.57,7.88 h -0.01 c -14.66,3.22 -28.91,6.67 -42.69,10.36 -93.59,25.08 -150.4,57.16 -169.48,90.53 0.15,1.42 0.21,2.83 0.21,4.25 -0.08,8.01 -2.52,16.01 -7.33,23.91 2.43,36.16 48.76,71.92 140.25,100.15 103.32,31.89 243.97,47.95 386.27,47.95 133.91,0 269.29,-14.23 376.24,-42.89 118.42,-31.73 177.94,-73.59 176.65,-116.15 l 0.02,-0.07 c -0.04,-2.84 -0.35,-5.68 -0.93,-8.51 l -0.04,-0.35 c -0.52,-2.47 -1.31,-4.93 -2.25,-7.39 l -0.52,-1.23 c -0.94,-2.31 -2.07,-4.62 -3.38,-6.92 l -0.6,-1.05 c -1.59,-2.67 -3.32,-5.33 -5.4,-7.97 l -0.39,-0.45 -1.7,-1.98 c -1.24,-1.46 -2.51,-2.91 -3.89,-4.36 l -2.39,-2.37 c -1.34,-1.32 -2.73,-2.63 -4.2,-3.94 -0.92,-0.82 -1.86,-1.63 -2.83,-2.44 -1.53,-1.29 -3.14,-2.58 -4.8,-3.85 -1.03,-0.8 -2.05,-1.59 -3.13,-2.38 l -1.54,-1.17 c -1.17,-0.84 -2.49,-1.67 -3.72,-2.51 -1.29,-0.88 -2.56,-1.76 -3.91,-2.63 l -1.1,-0.68 c 121.39,-13.99 244.19,-37.35 339.07,-66.7 100.91,-31.21 149.77,-62.17 145.61,-87.12 l 0.01,-0.05 c -0.24,-1.67 -0.71,-3.31 -1.42,-4.92 l -0.06,-0.2 c -0.63,-1.4 -1.5,-2.77 -2.49,-4.12 l -0.54,-0.67 c -0.98,-1.26 -2.13,-2.5 -3.44,-3.72 l -0.59,-0.56 c -1.58,-1.4 -3.28,-2.79 -5.28,-4.12 l -0.37,-0.23 -1.63,-0.99 c -1.18,-0.73 -2.39,-1.45 -3.7,-2.16 l -2.24,-1.14 c -1.27,-0.64 -2.57,-1.26 -3.95,-1.88 l -2.64,-1.14 c -1.43,-0.6 -2.91,-1.19 -4.45,-1.77 -0.95,-0.36 -1.9,-0.71 -2.9,-1.07 l -1.42,-0.52 c -1.09,-0.38 -2.3,-0.73 -3.43,-1.09 -1.19,-0.38 -2.35,-0.77 -3.59,-1.14 -1.77,-0.53 -3.65,-1.04 -5.53,-1.55 -1.23,-0.33 -2.42,-0.68 -3.7,-1 -2.18,-0.56 -4.48,-1.08 -6.78,-1.61 -1.12,-0.26 -2.18,-0.52 -3.33,-0.77 -3.5,-0.76 -7.14,-1.5 -10.93,-2.2 l -0.06,-0.01 H 3446 c -15.85,-2.93 -34.24,-5.32 -55.17,-7.11 -4.59,-0.39 -9.26,-0.75 -14.01,-1.08 l -1.35,-0.07 c -6.94,-0.47 -14.02,-0.87 -21.26,-1.2 -1.66,-0.08 -3.37,-0.13 -5.04,-0.2 -5.77,-0.24 -11.63,-0.44 -17.58,-0.59 -2.35,-0.07 -4.71,-0.12 -7.08,-0.17 -5.99,-0.12 -12.06,-0.2 -18.21,-0.24 -1.8,-0.01 -3.57,-0.04 -5.39,-0.05 -1.33,0 -2.67,0 -4.01,0 m -671.11,240.72 -1.03,-0.05 1.01,0.04 0.02,0.01 m -512.29,15.44 -0.01,-0.16 0.02,-0.21 0.01,0.16 -0.02,0.21"
        transform="matrix(6.5436461e-4,0,0,-0.0023245,-1.3080094,3.5218504)" id="path640-7" />
    </clipPath>
    <clipPath clipPathUnits="userSpaceOnUse" id="clipPath641-1">
      <path d="m 2113.51,1342.8 -0.02,0.21 0.01,0.16 0.02,-0.21 -0.01,-0.16"
        transform="matrix(0.12194839,0,0,-0.12195196,-257.29891,164.28148)" id="path641-1" />
    </clipPath>
    <clipPath clipPathUnits="userSpaceOnUse" id="clipPath642-5">
      <path
        d="m 2010.2,1335.2 c -4.84,8.46 -7.25,17.02 -7.22,25.56 0.01,0.86 0.04,1.73 0.1,2.6 4.81,-7.9 7.25,-15.9 7.33,-23.91 0,-1.42 -0.06,-2.83 -0.21,-4.25"
        transform="matrix(0.07575758,0,0,-0.02923985,-151.43182,39.944559)" id="path642-9" />
    </clipPath>
    <filter style="color-interpolation-filters:sRGB" inkscape:label="Brilliance" id="filter760"
      x="0" y="0" width="1" height="0.9986054">
      <feColorMatrix type="hueRotate" values="7" result="color1" id="feColorMatrix759" />
      <feColorMatrix type="saturate" values="1" result="fbSourceGraphic" id="feColorMatrix760" />
      <feColorMatrix result="fbSourceGraphicAlpha" in="fbSourceGraphic"
        values="0 0 0 -1 0 0 0 0 -1 0 0 0 0 -1 0 0 0 0 1 0" id="feColorMatrix790" />
      <feColorMatrix id="feColorMatrix791"
        values="1 -0 -0 0 0.1 -0 1 -0 0 0.1 -0 -0 1 0 0.1 0 0 0 1 0 " in="fbSourceGraphic" />
    </filter>
    <clipPath clipPathUnits="userSpaceOnUse" id="clipPath69">
      <path
        d="m 1755.99,2458.1 c -0.59,0 -1.19,0.01 -1.79,0.01 -0.57,0.01 -1.15,0.02 -1.73,0.02 -0.04,0 -0.08,0 -0.12,0 -0.9,0 -1.8,0 -2.7,0 -27.16,0 -54.36,0.58 -81.39,1.76 -1.25,0.05 -2.51,0.06 -3.76,0.12 l -2.1,0.12 c -12.06,0.56 -24.07,1.25 -36.03,2.05 -2.58,0.17 -5.14,0.36 -7.71,0.54 -12.26,0.87 -24.47,1.82 -36.56,2.94 h -0.1 l -0.37,0.04 c -12.09,1.13 -24.05,2.41 -35.92,3.78 -2.4,0.28 -4.8,0.55 -7.19,0.83 -11.58,1.4 -23.04,2.9 -34.35,4.53 l -2.39,0.31 c -1.13,0.17 -2.19,0.38 -3.32,0.54 -13.32,1.98 -26.46,4.09 -39.34,6.4 -1.18,0.21 -2.33,0.44 -3.51,0.66 -13.46,2.45 -26.69,5.05 -39.57,7.88 h -0.01 c -14.66,3.21 -28.91,6.67 -42.69,10.36 -117.51,31.48 -177.04,74.02 -176.71,116.25 v 0 c 0.46,36.98 46.81,73.72 140.36,102.59 103.32,31.89 243.97,47.95 386.27,47.95 133.91,0 269.29,-14.23 376.24,-42.89 118.42,-31.73 177.94,-73.59 176.65,-116.15 l 0.02,-0.1 0.02,0.22 c -0.02,-2.9 -0.36,-5.81 -0.95,-8.7 l -0.04,-0.35 c -0.52,-2.47 -1.31,-4.93 -2.25,-7.39 l -0.52,-1.23 c -0.94,-2.31 -2.07,-4.62 -3.38,-6.92 l -0.6,-1.05 c -1.59,-2.67 -3.33,-5.33 -5.4,-7.97 l -0.39,-0.45 -1.7,-1.98 c -1.24,-1.46 -2.51,-2.92 -3.89,-4.36 l -2.39,-2.37 c -1.34,-1.32 -2.73,-2.63 -4.2,-3.94 -0.92,-0.82 -1.86,-1.63 -2.83,-2.44 -1.53,-1.29 -3.14,-2.58 -4.8,-3.86 -1.03,-0.79 -2.05,-1.58 -3.13,-2.37 l -1.54,-1.17 c -1.17,-0.85 -2.49,-1.67 -3.72,-2.51 -1.29,-0.88 -2.56,-1.76 -3.91,-2.63 -1.93,-1.25 -3.98,-2.48 -6.04,-3.71 -1.35,-0.81 -2.65,-1.63 -4.05,-2.43 -2.39,-1.37 -4.91,-2.72 -7.45,-4.06 -1.23,-0.66 -2.39,-1.32 -3.66,-1.97 -3.86,-1.98 -7.87,-3.95 -12.06,-5.89 l -0.07,-0.03 h -0.01 c -17.53,-8.1 -38,-15.83 -61.43,-23.06 -5.14,-1.59 -10.38,-3.13 -15.7,-4.64 l -1.52,-0.4 c -7.78,-2.19 -15.74,-4.3 -23.88,-6.32 -1.87,-0.46 -3.79,-0.89 -5.68,-1.35 -6.5,-1.57 -13.09,-3.09 -19.8,-4.55 -2.65,-0.58 -5.31,-1.15 -7.99,-1.71 -6.76,-1.42 -13.62,-2.78 -20.56,-4.09 -2.04,-0.39 -4.04,-0.8 -6.09,-1.17 -8.88,-1.63 -17.9,-3.18 -27.05,-4.64 -2.16,-0.34 -4.38,-0.66 -6.56,-1 -7.21,-1.11 -14.49,-2.18 -21.85,-3.19 -2.95,-0.4 -5.89,-0.8 -8.86,-1.19 -7.54,-0.98 -15.14,-1.91 -22.8,-2.79 -2.12,-0.24 -4.22,-0.51 -6.35,-0.74 -9.69,-1.07 -19.48,-2.05 -29.35,-2.95 -2.35,-0.22 -4.73,-0.4 -7.09,-0.61 -7.74,-0.67 -15.51,-1.29 -23.34,-1.86 -1.6,-0.12 -3.17,-0.27 -4.78,-0.38 l -2.64,-0.14 c -18.29,-1.25 -36.78,-2.23 -55.42,-2.92 l -2.6,-0.11 c -19.28,-0.68 -38.69,-1.06 -58.15,-1.14 l -1.61,-0.03 c -0.04,0 -0.08,0 -0.12,0 m 63.46,125.95 -1.03,-0.05 1.01,0.04 0.02,0.01 m -156.1,0.75 0.02,-0.01 c 1.48,-0.06 2.96,-0.12 4.45,-0.18 -1.49,0.06 -2.98,0.12 -4.47,0.19 m -466.73,32.06 -0.01,0.16 0.02,0.22 c -0.01,-0.13 -0.01,-0.26 -0.01,-0.38"
        transform="matrix(9.1894874e-4,0,0,-0.00317259,-1.0962139,8.7915608)" id="path69" />
    </clipPath>
    <clipPath clipPathUnits="userSpaceOnUse" id="clipPath331">
      <path
        d="m 2573.85,2031.28 c -0.06,0 -0.13,0 -0.2,0 l -1.61,0.03 c -19.46,0.09 -38.87,0.46 -58.15,1.14 l -2.6,0.11 c -18.64,0.69 -37.13,1.67 -55.42,2.92 l -2.64,0.14 c -1.61,0.11 -3.18,0.27 -4.78,0.38 -7.83,0.57 -15.6,1.19 -23.33,1.86 -2.37,0.21 -4.75,0.4 -7.1,0.61 -9.87,0.9 -19.66,1.88 -29.35,2.95 -2.13,0.24 -4.23,0.5 -6.35,0.74 -7.66,0.88 -15.26,1.81 -22.8,2.8 -2.96,0.39 -5.91,0.78 -8.86,1.19 -7.36,1.01 -14.64,2.07 -21.85,3.19 -2.18,0.33 -4.39,0.65 -6.56,1 -9.15,1.46 -18.17,3 -27.05,4.63 -2.05,0.38 -4.05,0.78 -6.09,1.17 -6.94,1.31 -13.8,2.68 -20.56,4.09 -2.68,0.56 -5.34,1.13 -7.99,1.71 -6.71,1.47 -13.3,2.99 -19.8,4.55 -1.89,0.46 -3.81,0.89 -5.68,1.35 -8.14,2.03 -16.1,4.13 -23.88,6.32 l -1.52,0.4 c -5.32,1.51 -10.55,3.06 -15.7,4.64 -23.42,7.24 -43.9,14.96 -61.43,23.06 h -0.01 l -0.07,0.04 c -4.19,1.94 -8.2,3.9 -12.06,5.88 -1.27,0.65 -2.43,1.31 -3.66,1.97 -2.54,1.35 -5.06,2.69 -7.45,4.06 -1.4,0.8 -2.7,1.62 -4.05,2.43 -2.05,1.23 -4.11,2.47 -6.04,3.71 -1.35,0.87 -2.61,1.76 -3.91,2.63 -1.23,0.84 -2.55,1.67 -3.72,2.51 l -1.54,1.17 c -1.08,0.79 -2.1,1.58 -3.13,2.38 -1.66,1.28 -3.26,2.56 -4.8,3.85 -0.96,0.81 -1.91,1.62 -2.83,2.44 -1.47,1.31 -2.86,2.63 -4.2,3.94 l -2.38,2.37 c -1.39,1.45 -2.66,2.9 -3.9,4.36 l -1.7,1.98 -0.38,0.45 c -2.08,2.64 -3.82,5.3 -5.41,7.97 l -0.6,1.05 c -1.31,2.3 -2.44,4.61 -3.38,6.92 l -0.52,1.23 c -0.93,2.46 -1.73,4.92 -2.25,7.39 l -0.04,0.35 c -0.59,2.9 -0.93,5.8 -0.95,8.7 l 0.02,-0.22 0.02,0.1 c -1.29,42.56 58.23,84.42 176.65,116.15 106.97,28.66 242.32,42.89 376.24,42.89 142.29,0 282.96,-16.06 386.27,-47.95 93.55,-28.87 139.91,-65.61 140.37,-102.59 v 0.01 c 0.32,-42.24 -59.21,-84.77 -176.72,-116.26 -13.78,-3.69 -28.03,-7.14 -42.69,-10.36 h -0.01 c -12.88,-2.82 -26.11,-5.43 -39.57,-7.88 -1.18,-0.22 -2.33,-0.45 -3.51,-0.66 -12.87,-2.31 -26.02,-4.42 -39.34,-6.39 -1.12,-0.17 -2.19,-0.38 -3.32,-0.55 l -2.38,-0.31 c -11.32,-1.63 -22.78,-3.13 -34.36,-4.52 -2.39,-0.29 -4.79,-0.56 -7.19,-0.84 -11.87,-1.37 -23.83,-2.65 -35.92,-3.77 l -0.37,-0.04 -0.1,-0.01 c -12.09,-1.12 -24.3,-2.07 -36.56,-2.94 -2.57,-0.18 -5.13,-0.37 -7.71,-0.54 -11.96,-0.8 -23.97,-1.49 -36.03,-2.05 l -2.1,-0.12 c -1.25,-0.05 -2.51,-0.07 -3.76,-0.12 -27,-1.17 -54.18,-1.76 -81.31,-1.76 -0.93,0 -1.85,0 -2.78,0 -0.04,0 -0.08,0 -0.12,0 -0.56,0 -1.12,0 -1.68,-0.01 -0.58,-0.01 -1.17,-0.02 -1.76,-0.02 m -63.53,125.95 h 0.01 l 1.01,-0.04 -1.02,0.04 m 622.82,32.81 c 0,0.13 0,0.25 0,0.38 l 0.01,-0.21 -0.01,-0.17"
        transform="matrix(9.2064074e-4,0,0,-0.00316256,-1.8872215,7.4165085)" id="path331" />
    </clipPath>
    <filter style="color-interpolation-filters:sRGB" inkscape:label="Brilliance" id="filter804"
      x="0" y="0" width="1" height="0.99841048">
      <feColorMatrix type="hueRotate" values="9" result="color1" id="feColorMatrix803" />
      <feColorMatrix type="saturate" values="1" result="fbSourceGraphic" id="feColorMatrix804" />
      <feColorMatrix result="fbSourceGraphicAlpha" in="fbSourceGraphic"
        values="0 0 0 -1 0 0 0 0 -1 0 0 0 0 -1 0 0 0 0 1 0" id="feColorMatrix813" />
      <feColorMatrix id="feColorMatrix814"
        values="1 -0 -0 0 0.1 -0 1 -0 0 0.1 -0 -0 1 0 0.1 0 0 0 1 0 " in="fbSourceGraphic" />
    </filter>
    <clipPath clipPathUnits="userSpaceOnUse" id="clipPath230">
      <path
        d="m 3361.49,2467.63 c -0.07,0 -0.14,0 -0.21,0 l -1.6,0.03 c -19.46,0.08 -38.87,0.46 -58.15,1.14 l -2.6,0.11 c -18.64,0.69 -37.13,1.67 -55.43,2.92 l -2.64,0.14 c -1.6,0.11 -3.17,0.26 -4.78,0.38 -7.82,0.57 -15.59,1.19 -23.33,1.86 -2.36,0.21 -4.74,0.39 -7.1,0.6 -9.87,0.91 -19.65,1.89 -29.34,2.96 -2.13,0.23 -4.23,0.5 -6.35,0.74 -7.67,0.88 -15.27,1.81 -22.8,2.79 -2.97,0.39 -5.92,0.79 -8.86,1.19 -7.36,1.01 -14.64,2.08 -21.86,3.19 -2.18,0.34 -4.39,0.66 -6.55,1 -9.15,1.46 -18.17,3.01 -27.05,4.64 -2.05,0.37 -4.05,0.78 -6.09,1.16 -6.95,1.32 -13.8,2.68 -20.56,4.1 -2.68,0.56 -5.34,1.13 -8,1.71 -6.7,1.46 -13.3,2.98 -19.8,4.55 -1.88,0.46 -3.8,0.89 -5.67,1.35 -8.14,2.02 -16.1,4.13 -23.88,6.32 l -1.52,0.4 c -5.32,1.51 -10.56,3.05 -15.7,4.64 -23.43,7.23 -43.9,14.96 -61.43,23.05 l -0.01,0.01 -0.07,0.03 c -4.2,1.94 -8.21,3.91 -12.07,5.89 -1.26,0.65 -2.42,1.31 -3.66,1.96 -2.53,1.35 -5.06,2.7 -7.44,4.06 -1.4,0.81 -2.7,1.63 -4.05,2.44 -2.06,1.23 -4.11,2.46 -6.04,3.71 -1.35,0.87 -2.62,1.75 -3.91,2.63 -1.23,0.84 -2.55,1.66 -3.72,2.51 l -1.54,1.17 c -1.08,0.79 -2.11,1.58 -3.14,2.37 -1.65,1.28 -3.26,2.56 -4.79,3.86 -0.97,0.81 -1.91,1.62 -2.83,2.43 -1.47,1.31 -2.86,2.63 -4.21,3.95 l -2.38,2.37 c -1.38,1.44 -2.65,2.9 -3.89,4.36 l -1.7,1.97 -0.39,0.46 c -2.08,2.64 -3.82,5.3 -5.4,7.96 l -0.6,1.06 c -1.31,2.3 -2.44,4.61 -3.38,6.92 l -0.52,1.23 c -0.94,2.46 -1.73,4.92 -2.25,7.39 l -0.04,0.35 c -0.6,2.89 -0.93,5.79 -0.95,8.7 l 0.02,-0.22 0.02,0.1 c -1.29,42.56 58.23,84.42 176.65,116.15 106.96,28.66 242.32,42.89 376.24,42.89 142.29,0 282.96,-16.07 386.27,-47.95 93.55,-28.87 139.9,-65.61 140.36,-102.6 v 0.01 c 0.33,-42.23 -59.2,-84.77 -176.71,-116.25 -13.78,-3.69 -28.03,-7.15 -42.69,-10.36 h -0.02 c -12.87,-2.83 -26.11,-5.43 -39.57,-7.89 -1.17,-0.21 -2.32,-0.44 -3.5,-0.65 -12.88,-2.31 -26.02,-4.42 -39.34,-6.4 -1.13,-0.17 -2.2,-0.37 -3.32,-0.54 l -2.39,-0.31 c -11.31,-1.63 -22.77,-3.14 -34.35,-4.53 -2.39,-0.28 -4.79,-0.55 -7.19,-0.83 -11.87,-1.37 -23.83,-2.66 -35.92,-3.78 l -0.37,-0.04 h -0.1 c -12.09,-1.12 -24.3,-2.07 -36.56,-2.94 -2.57,-0.19 -5.13,-0.37 -7.71,-0.54 -11.96,-0.8 -23.97,-1.49 -36.04,-2.05 l -2.09,-0.12 c -1.25,-0.06 -2.51,-0.07 -3.76,-0.13 -27,-1.17 -54.18,-1.75 -81.31,-1.75 -0.93,0 -1.86,0 -2.78,0 -0.04,0 -0.08,0 -0.12,0 -0.56,0 -1.12,-0.01 -1.68,-0.02 -0.59,0 -1.17,-0.01 -1.76,-0.01 m 91.16,126.63 v 0 0 m 1.39,0.06 c -0.45,-0.02 -0.9,-0.04 -1.35,-0.06 0.44,0.02 0.89,0.04 1.34,0.06 h 0.01 m 466.74,32.07 c 0,0.12 -0.01,0.25 -0.01,0.37 l 0.02,-0.21 -0.01,-0.16"
        transform="matrix(9.2148915e-4,0,0,-0.00317259,-2.6150941,8.8232868)" id="path230" />
    </clipPath>
  </defs>
  <g inkscape:groupmode="layer" id="layer2" inkscape:label="Medium">
    <path id="path537"
      d="m 216.36346,184.98977 c -0.003,0.35741 -0.0434,0.71616 -0.11778,1.07222 -0.0637,0.31408 -0.16111,0.6268 -0.28024,0.93953 l -0.0893,0.21256 c -0.11102,0.26128 -0.23963,0.52256 -0.38855,0.78249 l -0.1056,0.18683 c -0.1963,0.32221 -0.41561,0.64306 -0.67013,0.96255 l -0.20442,0.23828 c -0.15164,0.1787 -0.30732,0.3574 -0.4779,0.5361 l -0.28971,0.28701 c -0.16382,0.1611 -0.3344,0.32221 -0.5131,0.48195 l -0.34522,0.29785 c -0.18818,0.15703 -0.38312,0.31408 -0.5862,0.46976 -0.12455,0.0962 -0.25045,0.1936 -0.38177,0.28972 -0.20578,0.15163 -0.42374,0.30055 -0.64305,0.44946 -0.15705,0.10696 -0.31003,0.2139 -0.47519,0.3195 -0.23692,0.15434 -0.49008,0.30596 -0.74324,0.45759 -0.16246,0.0975 -0.3195,0.19495 -0.48737,0.29242 -0.28972,0.16652 -0.59839,0.33033 -0.9057,0.49414 -0.15298,0.0812 -0.29513,0.16245 -0.45218,0.24233 -0.47112,0.24234 -0.95984,0.4806 -1.47023,0.71752 l -0.008,0.004 c -0.34386,0.1584 -0.71075,0.31408 -1.07222,0.46977 -0.20307,0.088 -0.39259,0.176 -0.60109,0.26264 -0.15974,0.0663 -0.33438,0.13132 -0.49684,0.19766 -1.02213,0.4129 -2.09569,0.81769 -3.25185,1.2103 -0.66877,0.22879 -1.36192,0.45352 -2.07673,0.6742 -0.68367,0.21119 -1.3863,0.41426 -2.09705,0.61462 -0.95172,0.26671 -1.92511,0.52393 -2.92016,0.77167 -0.22338,0.0555 -0.45488,0.10695 -0.67961,0.16111 -0.79739,0.19224 -1.60562,0.37906 -2.42737,0.55776 -0.32221,0.0718 -0.64712,0.1408 -0.97339,0.20849 -0.82853,0.17464 -1.66789,0.34116 -2.51944,0.50226 -0.24368,0.046 -0.4833,0.0947 -0.72834,0.13944 -1.08711,0.19901 -2.19047,0.38855 -3.30871,0.56725 -0.26128,0.0419 -0.52663,0.0799 -0.78791,0.12049 -0.88404,0.13538 -1.77619,0.26669 -2.67783,0.3899 -0.3574,0.0487 -0.71481,0.0975 -1.07357,0.14485 -0.92195,0.12049 -1.85201,0.23421 -2.7902,0.34116 -0.25722,0.0298 -0.51174,0.0622 -0.77167,0.0907 -1.18051,0.12996 -2.37322,0.25045 -3.5754,0.3601 -0.29377,0.0257 -0.59026,0.0487 -0.88539,0.0744 -0.93819,0.0825 -1.88179,0.15704 -2.83216,0.22608 -0.30054,0.023 -0.6038,0.0434 -0.9057,0.0637 -2.23243,0.15299 -4.48923,0.27212 -6.76362,0.35741 l -0.31679,0.0122 c -2.35291,0.084 -4.72207,0.12862 -7.09665,0.13944 -0.21797,0.001 -0.43592,0 -0.65389,0 -3.42513,0.005 -6.85703,-0.0663 -10.26592,-0.21389 -0.23556,-0.0109 -0.47248,-0.019 -0.70939,-0.0298 -1.47159,-0.0691 -2.93912,-0.15298 -4.39852,-0.25045 -0.31273,-0.0203 -0.6241,-0.0434 -0.93548,-0.065 -1.49596,-0.10696 -2.9865,-0.22203 -4.46079,-0.35877 l -0.0785,-0.008 c -1.47023,-0.13673 -2.92422,-0.29243 -4.36874,-0.45894 -0.29107,-0.0338 -0.58213,-0.0663 -0.87049,-0.10154 -1.41609,-0.16922 -2.81728,-0.35334 -4.20087,-0.55235 -0.22879,-0.0338 -0.45623,-0.0691 -0.68367,-0.10289 -1.62863,-0.24097 -3.2356,-0.49955 -4.80737,-0.78114 -0.1435,-0.0257 -0.2843,-0.0541 -0.42645,-0.0799 -1.64351,-0.30054 -3.25861,-0.61869 -4.83038,-0.96256 -1.78973,-0.3926 -3.52802,-0.81363 -5.2108,-1.26445 -14.338163,-3.8421 -21.602693,-9.03125 -21.562079,-14.18519 l -0.117781,15.21137 c -0.03929,5.15394 7.225266,10.34444 21.56208,14.18519 1.68143,0.45082 3.42106,0.87185 5.20945,1.26445 h 0.001 c 1.57176,0.34522 3.18686,0.66337 4.82902,0.96256 0.1435,0.0257 0.2843,0.0541 0.4278,0.0799 1.57042,0.28159 3.17468,0.53882 4.8006,0.77979 0.13674,0.0203 0.26806,0.046 0.40479,0.0663 l 0.29108,0.0379 c 1.38088,0.199 2.77936,0.38312 4.19138,0.55235 0.29242,0.0352 0.58484,0.0677 0.87727,0.10153 1.44992,0.16787 2.90797,0.32492 4.38362,0.46165 l 0.0447,0.004 0.0122,10e-4 c 1.47565,0.13673 2.96484,0.25181 4.46079,0.35876 0.31409,0.0216 0.62682,0.0447 0.9409,0.065 1.4594,0.0975 2.92557,0.18141 4.39717,0.25046 l 0.25587,0.0149 c 0.15162,0.007 0.30595,0.008 0.45894,0.0149 3.40753,0.14756 6.83672,0.21932 10.26049,0.2139 0.15299,0 0.30596,0.005 0.45894,0.004 l 0.1963,-0.004 c 2.37458,-0.009 4.74239,-0.0555 7.0953,-0.13945 l 0.31815,-0.0122 c 2.2744,-0.084 4.52984,-0.20442 6.76227,-0.35604 l 0.3222,-0.0176 c 0.1963,-0.0135 0.38719,-0.0325 0.5835,-0.046 0.95443,-0.0704 1.90344,-0.14622 2.84705,-0.22744 0.28836,-0.0257 0.57807,-0.0474 0.86643,-0.0744 1.20353,-0.10966 2.39759,-0.2288 3.58083,-0.36012 0.25993,-0.0284 0.51444,-0.0609 0.77437,-0.0907 0.93548,-0.10695 1.86284,-0.22067 2.78207,-0.34116 0.36147,-0.046 0.72158,-0.0947 1.08034,-0.14486 0.89893,-0.12319 1.78702,-0.25316 2.667,-0.38854 0.2667,-0.0419 0.53611,-0.0799 0.8001,-0.12185 1.11689,-0.1787 2.21618,-0.36687 3.30058,-0.56588 0.25045,-0.046 0.49414,-0.0962 0.74324,-0.14215 0.84748,-0.16111 1.68413,-0.32763 2.5086,-0.49956 0.32762,-0.069 0.65254,-0.13809 0.97474,-0.20848 0.81906,-0.1787 1.62322,-0.36418 2.41655,-0.55642 0.23015,-0.0555 0.46436,-0.1083 0.6918,-0.16381 0.99368,-0.24639 1.96572,-0.50362 2.91474,-0.77167 l 0.18547,-0.0487 c 0.64983,-0.18411 1.28747,-0.37229 1.91564,-0.56589 2.85788,-0.88268 5.357,-1.82493 7.49602,-2.81321 l 0.001,-0.001 0.008,-0.004 c 0.51174,-0.23556 1.00182,-0.47518 1.47159,-0.71752 0.15569,-0.0799 0.29649,-0.15974 0.44676,-0.23962 0.31002,-0.16516 0.61734,-0.32898 0.9084,-0.4955 0.17194,-0.0988 0.33033,-0.19764 0.49414,-0.29648 0.25181,-0.15162 0.50227,-0.30189 0.73783,-0.45352 0.16516,-0.10696 0.31949,-0.2139 0.47654,-0.32085 0.15027,-0.10154 0.31137,-0.20307 0.45487,-0.30597 l 0.18818,-0.14215 c 0.13133,-0.0975 0.25587,-0.19358 0.38177,-0.29106 0.20172,-0.15569 0.39802,-0.31273 0.58485,-0.46977 l 0.34522,-0.29784 c 0.18006,-0.15975 0.34928,-0.32085 0.5131,-0.4806 l 0.29106,-0.28972 c 0.16923,-0.17599 0.32356,-0.35334 0.47384,-0.53204 l 0.20848,-0.24098 0.0474,-0.0555 c 0.25315,-0.3222 0.46571,-0.64576 0.6593,-0.97203 l 0.0731,-0.12861 c 0.15976,-0.28024 0.29785,-0.56183 0.41292,-0.84478 l 0.0637,-0.14892 c 0.11372,-0.30054 0.20983,-0.60109 0.27346,-0.90163 l 0.005,-0.0434 c 0.0718,-0.35334 0.11237,-0.70669 0.11508,-1.06139 l 0.11778,-15.21137"
      style="fill:#fbc518;fill-opacity:1;fill-rule:nonzero;stroke:none;stroke-width:0.13538" />
    <path id="path538"
      d="m 194.80544,170.80458 c 26.91909,7.21308 28.89564,19.18074 4.42424,26.73363 -24.47006,7.55153 -66.11315,7.82635 -93.03224,0.61327 -26.919093,-7.21308 -28.903776,-19.17802 -4.43372,-26.72956 24.47142,-7.55288 66.12263,-7.83042 93.04172,-0.61734"
      style="fill:#f9f062;fill-opacity:1;fill-rule:nonzero;stroke:none;stroke-width:0.13538" />
    <path id="path539"
      d="m 151.43895,200.1673 c -15.91535,0 -31.14297,-1.73152 -42.87911,-4.87506 -13.527244,-3.6255 -18.386053,-8.04703 -18.437501,-10.73298 -0.04468,-2.38134 3.695892,-6.09348 14.328691,-9.37511 11.18515,-3.4522 27.19798,-5.43283 43.93373,-5.43283 15.91535,0 31.14027,1.73152 42.87371,4.87506 13.52452,3.62414 18.38198,8.04703 18.43207,10.73298 0.0447,2.38134 -3.69589,6.09619 -14.3314,9.37917 -11.18109,3.44951 -27.18984,5.42877 -43.92019,5.42877"
      style="fill:#f8df2b;fill-opacity:1;fill-rule:nonzero;stroke:none;stroke-width:0.13538" />
    <path id="path540"
      d="m 104.45103,178.25187 c 11.18515,-3.4522 27.19798,-5.43282 43.93373,-5.43282 15.91535,0 31.14027,1.73152 42.87371,4.87506 11.25825,3.01763 16.49748,6.58356 17.97042,9.24514 0.3195,-0.56995 0.47113,-1.10335 0.46165,-1.57989 -0.05,-2.68595 -4.90755,-7.10884 -18.43207,-10.73298 -11.73344,-3.14354 -26.95836,-4.87506 -42.87371,-4.87506 -16.73575,0 -32.74858,1.98063 -43.93373,5.43283 -10.632799,3.28163 -14.373367,6.99377 -14.328691,9.37511 0.0081,0.44947 0.166518,0.95172 0.463002,1.48783 1.276636,-2.2744 5.363785,-5.17154 13.865689,-7.79522"
      style="fill:#fbc518;fill-opacity:1;fill-rule:nonzero;stroke:none;stroke-width:0.13538" />
    <path id="path541"
      d="m 155.03195,191.30122 -0.74595,0.001 0.29379,-0.12725 c 0.7703,-0.36824 1.41201,-0.75408 1.92511,-1.15209 0.24097,-0.18683 0.4481,-0.37772 0.63222,-0.56995 l 0.15976,-0.18818 c 0.11235,-0.13133 0.22066,-0.26264 0.3073,-0.39396 l 0.12727,-0.22609 c 0.0663,-0.12319 0.1259,-0.24639 0.17058,-0.36959 l 0.0718,-0.23691 0.0528,-0.32627 0.0298,-0.18412 0.0122,-1.11554 -0.0244,0.26536 c 0.18005,-1.33621 -0.903,-2.69273 -3.2004,-3.89897 l 2.52755,-0.80281 0.0122,-1.11418 -2.67377,-2.97567 -6.22616,1.97656 -1.35651,0.43051 c -2.4883,-0.49549 -5.20133,-0.83665 -7.98746,-1.02754 l 4.21981,-1.33756 v -1.11553 l -2.67376,-2.97432 -23.1474,7.34847 -4.88995,1.55281 v 1.11554 l 2.65347,2.97702 3.64174,-1.15615 4.89131,-1.55282 0.14756,-0.046 0.32897,-0.088 c 0.33304,-0.0962 0.67285,-0.18954 1.03025,-0.27348 0.18006,-0.0434 0.36688,-0.0812 0.55371,-0.12184 0.32626,-0.0704 0.65795,-0.13538 1.00046,-0.1963 0.20307,-0.0366 0.4075,-0.0704 0.61598,-0.10289 0.35063,-0.0555 0.70804,-0.10559 1.07222,-0.15163 0.20307,-0.0257 0.40343,-0.0528 0.61056,-0.0744 0.41426,-0.046 0.83665,-0.0825 1.26175,-0.11643 0.13268,-0.0109 0.25993,-0.0271 0.39261,-0.0366 l 0.0785,-0.004 c 0.7324,-0.0501 1.477,-0.0785 2.227,-0.0947 0.17464,-0.004 0.34659,-0.005 0.52123,-0.007 0.76489,-0.008 1.53115,-0.005 2.2947,0.0216 0.22608,0.008 0.45217,0.0176 0.67689,0.0284 0.45895,0.023 0.90706,0.0637 1.36058,0.0988 0.19901,0.0162 0.40614,0.0203 0.6038,0.0393 l -12.27496,3.89626 -0.0122,1.11554 2.66699,2.97702 18.45645,-5.85928 c 0.49549,0.25993 0.89621,0.53069 1.20218,0.80957 0.27482,0.24369 0.4806,0.49143 0.61734,0.74324 l 0.0853,0.20985 c -0.38178,0.87591 -1.62728,1.71526 -3.76494,2.39352 l -4.89131,1.55283 -0.0122,1.11552 2.33125,3.08398 3.77983,-0.008 37.10243,-0.0799 8.23249,-2.61284 0.0122,-1.11554 -37.11055,0.0812"
      style="fill:#fbc518;fill-opacity:1;fill-rule:nonzero;stroke:none;stroke-width:0.13538" />
    <path id="path542"
      d="m 154.70975,177.88635 2.67377,2.97567 -3.9477,1.25362 c 6.60115,2.73604 6.19907,6.53212 -1.54063,8.98928 l -0.64171,0.20442 3.77847,-0.008 37.11055,-0.0812 -8.2325,2.61284 -37.10242,0.0799 -3.77983,0.008 -2.33126,-3.08396 4.89131,-1.55283 c 3.81909,-1.213 4.79518,-2.93911 3.0745,-4.46214 -0.30597,-0.27753 -0.70669,-0.54965 -1.20218,-0.80958 l -18.45646,5.85928 -2.66699,-2.97702 14.8147,-4.70313 c -1.63404,-0.25587 -3.38857,-0.41155 -5.16748,-0.47518 -4.39716,-0.15705 -8.91752,0.2694 -12.13687,1.29153 l -4.89131,1.55281 -3.64173,1.15616 -2.66566,-2.97703 4.88995,-1.55281 23.1474,-7.34847 2.67376,2.97432 -7.25369,2.30283 c 3.83939,0.10966 7.63547,0.50361 11.02134,1.17916 l 1.35651,-0.43186 6.22616,-1.97656"
      style="fill:#f9f062;fill-opacity:1;fill-rule:nonzero;stroke:none;stroke-width:0.13538" />
    <path id="path543"
      d="m 87.418784,201.61993 c -0.423739,0 -0.767609,-0.34251 -0.767609,-0.7676 v -5.885 c 0,-0.42375 0.34387,-0.76626 0.767609,-0.76626 0.422387,0 0.767608,0.34251 0.767608,0.76626 v 5.885 c 0,0.42509 -0.345221,0.7676 -0.767608,0.7676"
      style="fill:#f4e73e;fill-opacity:1;fill-rule:nonzero;stroke:none;stroke-width:0.13538" />
    <path id="path544"
      d="m 96.820971,205.94805 c -0.422388,0 -0.767608,-0.34251 -0.767608,-0.76761 v -5.885 c 0,-0.42374 0.34522,-0.76625 0.767608,-0.76625 0.423748,0 0.768969,0.34251 0.768969,0.76625 v 5.885 c 0,0.4251 -0.345221,0.76761 -0.768969,0.76761"
      style="fill:#f4e73e;fill-opacity:1;fill-rule:nonzero;stroke:none;stroke-width:0.13538" />
    <path id="path545"
      d="m 106.37208,208.87769 c -0.42374,0 -0.76761,-0.34252 -0.76761,-0.76761 v -5.88364 c 0,-0.42374 0.34387,-0.76626 0.76761,-0.76626 0.42374,0 0.76761,0.34252 0.76761,0.76626 v 5.88364 c 0,0.42509 -0.34387,0.76761 -0.76761,0.76761"
      style="fill:#f4e73e;fill-opacity:1;fill-rule:nonzero;stroke:none;stroke-width:0.13538" />
    <path id="path546"
      d="m 116.04097,211.21977 c -0.42375,0 -0.76761,-0.34251 -0.76761,-0.76625 v -5.88364 c 0,-0.42374 0.34386,-0.76626 0.76761,-0.76626 0.42374,0 0.76761,0.34252 0.76761,0.76626 v 5.88364 c 0,0.42374 -0.34387,0.76625 -0.76761,0.76625"
      style="fill:#f4e73e;fill-opacity:1;fill-rule:nonzero;stroke:none;stroke-width:0.13538" />
    <path id="path547"
      d="m 125.80191,212.97973 c -0.42373,0 -0.7676,-0.34252 -0.7676,-0.76626 v -5.885 c 0,-0.4251 0.34387,-0.76761 0.7676,-0.76761 0.42374,0 0.76761,0.34251 0.76761,0.76761 v 5.885 c 0,0.42374 -0.34387,0.76626 -0.76761,0.76626"
      style="fill:#f4e73e;fill-opacity:1;fill-rule:nonzero;stroke:none;stroke-width:0.13538" />
    <path id="path548"
      d="m 135.6319,214.15077 c -0.42374,0 -0.76761,-0.34251 -0.76761,-0.76626 v -5.88364 c 0,-0.42375 0.34387,-0.76626 0.76761,-0.76626 0.42375,0 0.76761,0.34251 0.76761,0.76626 v 5.88364 c 0,0.42375 -0.34386,0.76626 -0.76761,0.76626"
      style="fill:#f4e73e;fill-opacity:1;fill-rule:nonzero;stroke:none;stroke-width:0.13538" />
    <path id="path549"
      d="m 145.4998,214.73696 c -0.42374,0 -0.76761,-0.34386 -0.76761,-0.76761 v -5.88363 c 0,-0.42375 0.34387,-0.76626 0.76761,-0.76626 0.42374,0 0.76761,0.34251 0.76761,0.76626 v 5.88363 c 0,0.42375 -0.34387,0.76761 -0.76761,0.76761"
      style="fill:#f4e73e;fill-opacity:1;fill-rule:nonzero;stroke:none;stroke-width:0.13538" />
    <path id="path550"
      d="m 155.38124,214.73696 c -0.42374,0 -0.76761,-0.34386 -0.76761,-0.76761 v -5.88363 c 0,-0.42375 0.34387,-0.76626 0.76761,-0.76626 0.42373,0 0.7676,0.34251 0.7676,0.76626 v 5.88363 c 0,0.42375 -0.34387,0.76761 -0.7676,0.76761"
      style="fill:#f4e73e;fill-opacity:1;fill-rule:nonzero;stroke:none;stroke-width:0.13538" />
    <path id="path551"
      d="m 165.24914,214.15077 c -0.42375,0 -0.76761,-0.34251 -0.76761,-0.76626 v -5.88364 c 0,-0.42375 0.34386,-0.76626 0.76761,-0.76626 0.42373,0 0.7676,0.34251 0.7676,0.76626 v 5.88364 c 0,0.42375 -0.34387,0.76626 -0.7676,0.76626"
      style="fill:#f4e73e;fill-opacity:1;fill-rule:nonzero;stroke:none;stroke-width:0.13538" />
    <path id="path552"
      d="m 175.07912,212.97973 c -0.42374,0 -0.76761,-0.34252 -0.76761,-0.76626 v -5.885 c 0,-0.4251 0.34387,-0.76761 0.76761,-0.76761 0.42374,0 0.76761,0.34251 0.76761,0.76761 v 5.885 c 0,0.42374 -0.34387,0.76626 -0.76761,0.76626"
      style="fill:#f4e73e;fill-opacity:1;fill-rule:nonzero;stroke:none;stroke-width:0.13538" />
    <path id="path553"
      d="m 184.84007,211.21977 c -0.42374,0 -0.76761,-0.34251 -0.76761,-0.76625 v -5.88364 c 0,-0.42374 0.34387,-0.76626 0.76761,-0.76626 0.42374,0 0.7676,0.34252 0.7676,0.76626 v 5.88364 c 0,0.42374 -0.34386,0.76625 -0.7676,0.76625"
      style="fill:#f4e73e;fill-opacity:1;fill-rule:nonzero;stroke:none;stroke-width:0.13538" />
    <path id="path554"
      d="m 194.50896,208.87769 c -0.42374,0 -0.76761,-0.34252 -0.76761,-0.76761 v -5.88364 c 0,-0.42374 0.34387,-0.76626 0.76761,-0.76626 0.42373,0 0.7676,0.34252 0.7676,0.76626 v 5.88364 c 0,0.42509 -0.34387,0.76761 -0.7676,0.76761"
      style="fill:#f4e73e;fill-opacity:1;fill-rule:nonzero;stroke:none;stroke-width:0.13538" />
    <path id="path555"
      d="m 204.06005,205.94805 c -0.42373,0 -0.7676,-0.34251 -0.7676,-0.76761 v -5.885 c 0,-0.42374 0.34387,-0.76625 0.7676,-0.76625 0.42375,0 0.76761,0.34251 0.76761,0.76625 v 5.885 c 0,0.4251 -0.34386,0.76761 -0.76761,0.76761"
      style="fill:#f4e73e;fill-opacity:1;fill-rule:nonzero;stroke:none;stroke-width:0.13538" />
    <path id="path556"
      d="m 213.46224,201.61993 c -0.42239,0 -0.76761,-0.34251 -0.76761,-0.7676 v -5.885 c 0,-0.42375 0.34522,-0.76626 0.76761,-0.76626 0.42375,0 0.76897,0.34251 0.76897,0.76626 v 5.885 c 0,0.42509 -0.34522,0.7676 -0.76897,0.7676"
      style="fill:#f4e73e;fill-opacity:1;fill-rule:nonzero;stroke:none;stroke-width:0.13538" />
    <path id="path557"
      d="m 225.02511,163.33428 c -0.003,0.35875 -0.0434,0.71616 -0.11643,1.07356 -0.065,0.31409 -0.16245,0.62682 -0.28159,0.93955 l -0.0894,0.2112 c -0.10965,0.26128 -0.23962,0.52256 -0.38853,0.78385 l -0.1056,0.18683 c -0.19495,0.3222 -0.41426,0.64305 -0.67013,0.96255 l -0.20443,0.23827 c -0.15163,0.1787 -0.30731,0.3574 -0.47789,0.53475 l -0.28972,0.28701 c -0.16381,0.16246 -0.33304,0.32221 -0.51309,0.48331 l -0.34522,0.29649 c -0.18683,0.15839 -0.38313,0.31408 -0.58485,0.47112 -0.1259,0.0961 -0.2518,0.19359 -0.38312,0.28971 -0.20578,0.15027 -0.42375,0.30055 -0.64307,0.44947 -0.15703,0.10695 -0.31001,0.21389 -0.47382,0.31949 -0.23827,0.15298 -0.49143,0.30461 -0.7446,0.45759 -0.16246,0.0975 -0.31814,0.19495 -0.48737,0.29107 -0.28971,0.16652 -0.59703,0.33033 -0.9057,0.49414 -0.15162,0.0812 -0.29512,0.16381 -0.45217,0.24368 -0.46977,0.24098 -0.95849,0.48061 -1.47023,0.71752 l -0.008,0.004 c -0.34387,0.1584 -0.71075,0.31273 -1.07222,0.46978 -0.20307,0.0866 -0.39261,0.17599 -0.60109,0.26263 -0.15974,0.0663 -0.33439,0.13132 -0.49684,0.19631 -1.02078,0.4129 -2.0957,0.81904 -3.2505,1.21165 -0.67013,0.22744 -1.36193,0.45217 -2.07673,0.67285 -0.68503,0.21119 -1.38766,0.41561 -2.09841,0.61462 -0.95172,0.26805 -1.92511,0.52527 -2.92016,0.77302 -0.22338,0.0555 -0.45488,0.10696 -0.67961,0.16111 -0.79604,0.19224 -1.60561,0.37906 -2.42602,0.55776 -0.32356,0.0704 -0.64711,0.13945 -0.97474,0.2085 -0.82718,0.17328 -1.66789,0.34116 -2.51943,0.50225 -0.24368,0.046 -0.48331,0.0947 -0.72835,0.13945 -1.08575,0.19901 -2.19046,0.38854 -3.3087,0.56724 -0.25993,0.0406 -0.52528,0.0785 -0.78791,0.11914 -0.88404,0.13673 -1.77621,0.26669 -2.67784,0.39125 -0.35604,0.0487 -0.71481,0.0975 -1.07357,0.1435 -0.92194,0.12049 -1.852,0.23421 -2.78884,0.34252 -0.25857,0.0298 -0.51309,0.0609 -0.77302,0.0907 -1.18052,0.12996 -2.37322,0.2491 -3.57405,0.35875 -0.29377,0.0271 -0.59162,0.0501 -0.88674,0.0759 -0.93819,0.0812 -1.8818,0.15705 -2.83217,0.22609 -0.30055,0.0216 -0.60379,0.0434 -0.9057,0.0637 -2.23242,0.15299 -4.48922,0.27212 -6.76361,0.35606 l -0.31679,0.0135 c -2.35292,0.0825 -4.72208,0.12862 -7.0953,0.13945 -0.21932,0 -0.43729,-0.001 -0.65524,0 -3.42514,0.004 -6.85704,-0.0663 -10.26457,-0.21526 -0.23691,-0.009 -0.47383,-0.0176 -0.70939,-0.0298 -1.47294,-0.0677 -2.94047,-0.15297 -4.39988,-0.24909 -0.31273,-0.0216 -0.6241,-0.0434 -0.93548,-0.0663 -1.49595,-0.1056 -2.98514,-0.22203 -4.46078,-0.35741 l -0.0785,-0.008 c -1.47024,-0.13674 -2.92422,-0.29379 -4.36873,-0.4603 -0.28972,-0.0325 -0.58078,-0.0663 -0.8705,-0.10022 -1.41608,-0.17058 -2.81727,-0.3547 -4.20086,-0.55371 -0.22879,-0.0325 -0.45488,-0.0691 -0.68367,-0.10289 -1.62863,-0.24097 -3.23425,-0.4982 -4.80737,-0.78114 -0.1435,-0.0257 -0.2843,-0.0541 -0.42645,-0.0799 -1.64353,-0.2992 -3.25861,-0.61734 -4.83038,-0.96121 -1.78839,-0.39259 -3.52802,-0.81363 -5.2108,-1.26445 -14.33817,-3.8421 -21.601344,-9.0326 -21.56208,-14.18519 l -0.117782,15.21138 c -0.03929,5.15258 7.225262,10.34308 21.563432,14.18518 1.68143,0.45082 3.41971,0.87185 5.20809,1.26446 h 0.003 c 1.57042,0.34386 3.18551,0.66201 4.82768,0.9612 0.1435,0.0271 0.2843,0.0541 0.4278,0.0812 1.57177,0.28159 3.17468,0.53881 4.8006,0.77979 0.13674,0.0203 0.26805,0.046 0.40479,0.0663 l 0.29106,0.0379 c 1.38089,0.19901 2.77938,0.38178 4.19139,0.55236 0.29242,0.0352 0.58484,0.0677 0.87727,0.10153 1.44992,0.16652 2.90797,0.32357 4.38363,0.46029 l 0.0447,0.005 h 0.0122 c 1.47564,0.13673 2.96484,0.25316 4.46079,0.35876 0.31408,0.023 0.62681,0.046 0.94225,0.0663 1.45805,0.0975 2.92422,0.18141 4.3958,0.25046 l 0.25587,0.0135 c 0.15299,0.008 0.30597,0.009 0.45894,0.0162 3.40754,0.14757 6.83809,0.21796 10.26051,0.2139 0.15298,0 0.30731,0.004 0.46029,0.004 l 0.19495,-0.004 c 2.37458,-0.0109 4.74374,-0.0555 7.09665,-0.13944 l 0.31679,-0.0135 c 2.2744,-0.084 4.52985,-0.20307 6.76227,-0.35605 l 0.32221,-0.0162 c 0.1963,-0.0135 0.38719,-0.0325 0.58348,-0.0474 0.95444,-0.069 1.90346,-0.14486 2.84706,-0.22744 0.28836,-0.0244 0.57808,-0.0474 0.86644,-0.0731 1.20353,-0.10966 2.39759,-0.23015 3.58081,-0.36012 0.25993,-0.0284 0.5158,-0.0609 0.77438,-0.0907 0.93548,-0.10695 1.86285,-0.22067 2.78208,-0.34116 0.36146,-0.0474 0.72158,-0.0961 1.08034,-0.14486 0.89892,-0.12319 1.78702,-0.25316 2.667,-0.3899 0.26669,-0.0406 0.53611,-0.0785 0.8001,-0.12184 1.11689,-0.17734 2.21753,-0.36688 3.30057,-0.56454 0.25046,-0.046 0.49414,-0.0961 0.74324,-0.1435 0.84749,-0.15974 1.68414,-0.32626 2.50861,-0.49955 0.32762,-0.0677 0.65254,-0.13809 0.97609,-0.20849 0.8177,-0.1787 1.62186,-0.36417 2.41519,-0.55506 0.23014,-0.0555 0.46436,-0.10831 0.69315,-0.16517 0.99234,-0.24638 1.96437,-0.50361 2.91339,-0.77031 l 0.18547,-0.0487 c 0.64983,-0.18413 1.28883,-0.37365 1.91564,-0.56725 2.85924,-0.88133 5.35701,-1.82493 7.49603,-2.81322 h 0.001 l 0.008,-0.004 c 0.51174,-0.23691 1.00182,-0.47653 1.47294,-0.71751 0.15434,-0.0799 0.29513,-0.1611 0.4454,-0.24098 0.31003,-0.16381 0.6187,-0.32898 0.90841,-0.4955 0.17193,-0.0975 0.33032,-0.19764 0.49549,-0.29648 0.25046,-0.15027 0.50091,-0.30054 0.73647,-0.45217 0.16517,-0.10694 0.3195,-0.2139 0.47654,-0.32085 0.15028,-0.10288 0.31137,-0.20442 0.45488,-0.30596 l 0.18818,-0.14351 c 0.13132,-0.0961 0.25587,-0.19358 0.38177,-0.28971 0.20172,-0.15568 0.39802,-0.31273 0.58485,-0.46977 l 0.34522,-0.29784 c 0.18005,-0.15974 0.34928,-0.32085 0.51309,-0.48195 l 0.29107,-0.28837 c 0.16923,-0.17734 0.32356,-0.35469 0.47519,-0.53204 l 0.20713,-0.24098 0.0474,-0.0555 c 0.25316,-0.3222 0.46571,-0.64711 0.65931,-0.97203 l 0.0731,-0.12861 c 0.15975,-0.28159 0.29783,-0.56318 0.41292,-0.84478 l 0.0637,-0.15027 c 0.11372,-0.29918 0.20984,-0.59973 0.27347,-0.90163 l 0.005,-0.0419 c 0.0731,-0.35334 0.11372,-0.70803 0.11643,-1.06274 l 0.11642,-15.21137"
      style="fill:#f8b61c;fill-opacity:1;fill-rule:nonzero;stroke:none;stroke-width:0.13538" />
    <path id="path558"
      d="m 203.46709,149.15045 c 26.91909,7.21308 28.89565,19.18073 4.4256,26.73227 -24.47006,7.55288 -66.1145,7.8277 -93.03359,0.61462 -26.919094,-7.21308 -28.903778,-19.17802 -4.43237,-26.73091 24.47005,-7.55153 66.12128,-7.82906 93.04036,-0.61598"
      style="fill:#fbe76d;fill-opacity:1;fill-rule:nonzero;stroke:none;stroke-width:0.13538" />
    <path id="path559"
      d="m 160.10061,178.51316 c -15.91536,0 -31.14297,-1.73152 -42.87913,-4.87506 -13.52723,-3.6255 -18.386045,-8.04838 -18.437483,-10.73433 -0.04336,-2.37999 3.695893,-6.09348 14.328693,-9.37511 11.18515,-3.45086 27.19797,-5.43148 43.93373,-5.43148 15.91535,0 31.14026,1.73153 42.8737,4.87507 13.52453,3.62413 18.38198,8.04567 18.43343,10.73162 0.0447,2.3827 -3.69725,6.09619 -14.33275,9.37917 -11.18109,3.45085 -27.18986,5.43012 -43.92019,5.43012"
      style="fill:#fbd134;fill-opacity:1;fill-rule:nonzero;stroke:none;stroke-width:0.13538" />
    <path id="path560"
      d="m 113.11269,156.59638 c 11.18515,-3.45085 27.19797,-5.43147 43.93373,-5.43147 15.91535,0 31.14026,1.73152 42.8737,4.87506 11.25825,3.01628 16.49749,6.58356 17.97043,9.24379 0.31949,-0.56995 0.47113,-1.10199 0.463,-1.57989 -0.0515,-2.68595 -4.9089,-7.10749 -18.43343,-10.73162 -11.73344,-3.14354 -26.95835,-4.87642 -42.8737,-4.87642 -16.73576,0 -32.74858,1.98197 -43.93373,5.43283 -10.6328,3.28163 -14.372018,6.99512 -14.328693,9.37511 0.0091,0.45082 0.166519,0.95308 0.463002,1.48919 1.276641,-2.2744 5.363771,-5.1729 13.865691,-7.79658"
      style="fill:#f8b61c;fill-opacity:1;fill-rule:nonzero;stroke:none;stroke-width:0.13538" />
    <path id="path563"
      d="m 96.080442,179.96444 c -0.423738,0 -0.767608,-0.34252 -0.767608,-0.76625 v -5.885 c 0,-0.42374 0.34387,-0.76626 0.767608,-0.76626 0.423738,0 0.767608,0.34252 0.767608,0.76626 v 5.885 c 0,0.42373 -0.34387,0.76625 -0.767608,0.76625"
      style="fill:#f6da45;fill-opacity:1;fill-rule:nonzero;stroke:none;stroke-width:0.13538" />
    <path id="path564"
      d="m 105.48398,184.29256 c -0.42374,0 -0.76761,-0.34251 -0.76761,-0.76625 v -5.885 c 0,-0.42375 0.34387,-0.76626 0.76761,-0.76626 0.42375,0 0.76761,0.34251 0.76761,0.76626 v 5.885 c 0,0.42374 -0.34386,0.76625 -0.76761,0.76625"
      style="fill:#f6da45;fill-opacity:1;fill-rule:nonzero;stroke:none;stroke-width:0.13538" />
    <path id="path565"
      d="m 115.03374,187.2222 c -0.42375,0 -0.76761,-0.34252 -0.76761,-0.76626 v -5.88364 c 0,-0.42374 0.34386,-0.76625 0.76761,-0.76625 0.42374,0 0.76761,0.34251 0.76761,0.76625 v 5.88364 c 0,0.42374 -0.34387,0.76626 -0.76761,0.76626"
      style="fill:#f6da45;fill-opacity:1;fill-rule:nonzero;stroke:none;stroke-width:0.13538" />
    <path id="path566"
      d="m 124.70262,189.56564 c -0.42374,0 -0.76761,-0.34252 -0.76761,-0.76761 v -5.88229 c 0,-0.42509 0.34387,-0.76761 0.76761,-0.76761 0.42375,0 0.76761,0.34252 0.76761,0.76761 v 5.88229 c 0,0.42509 -0.34386,0.76761 -0.76761,0.76761"
      style="fill:#f6da45;fill-opacity:1;fill-rule:nonzero;stroke:none;stroke-width:0.13538" />
    <path id="path567"
      d="m 134.46357,191.32559 c -0.42239,0 -0.76761,-0.34251 -0.76761,-0.76761 v -5.885 c 0,-0.42374 0.34522,-0.76626 0.76761,-0.76626 0.42374,0 0.76896,0.34252 0.76896,0.76626 v 5.885 c 0,0.4251 -0.34522,0.76761 -0.76896,0.76761"
      style="fill:#f6da45;fill-opacity:1;fill-rule:nonzero;stroke:none;stroke-width:0.13538" />
    <path id="path568"
      d="m 144.29356,192.49663 c -0.42374,0 -0.76761,-0.34251 -0.76761,-0.76761 v -5.88229 c 0,-0.4251 0.34387,-0.76761 0.76761,-0.76761 0.42374,0 0.76761,0.34251 0.76761,0.76761 v 5.88229 c 0,0.4251 -0.34387,0.76761 -0.76761,0.76761"
      style="fill:#f6da45;fill-opacity:1;fill-rule:nonzero;stroke:none;stroke-width:0.13538" />
    <path id="path569"
      d="m 154.16146,193.08147 c -0.42375,0 -0.76761,-0.34251 -0.76761,-0.76625 v -5.88365 c 0,-0.42373 0.34386,-0.76625 0.76761,-0.76625 0.42374,0 0.76761,0.34252 0.76761,0.76625 v 5.88365 c 0,0.42374 -0.34387,0.76625 -0.76761,0.76625"
      style="fill:#f6da45;fill-opacity:1;fill-rule:nonzero;stroke:none;stroke-width:0.13538" />
    <path id="path570"
      d="m 164.04289,193.08147 c -0.42374,0 -0.7676,-0.34251 -0.7676,-0.76625 v -5.88365 c 0,-0.42373 0.34386,-0.76625 0.7676,-0.76625 0.42374,0 0.76761,0.34252 0.76761,0.76625 v 5.88365 c 0,0.42374 -0.34387,0.76625 -0.76761,0.76625"
      style="fill:#f6da45;fill-opacity:1;fill-rule:nonzero;stroke:none;stroke-width:0.13538" />
    <path id="path571"
      d="m 173.91078,192.49663 c -0.42238,0 -0.7676,-0.34251 -0.7676,-0.76761 v -5.88229 c 0,-0.4251 0.34522,-0.76761 0.7676,-0.76761 0.42375,0 0.76761,0.34251 0.76761,0.76761 v 5.88229 c 0,0.4251 -0.34386,0.76761 -0.76761,0.76761"
      style="fill:#f6da45;fill-opacity:1;fill-rule:nonzero;stroke:none;stroke-width:0.13538" />
    <path id="path572"
      d="m 183.74078,191.32559 c -0.42375,0 -0.76761,-0.34251 -0.76761,-0.76761 v -5.885 c 0,-0.42374 0.34386,-0.76626 0.76761,-0.76626 0.42374,0 0.76761,0.34252 0.76761,0.76626 v 5.885 c 0,0.4251 -0.34387,0.76761 -0.76761,0.76761"
      style="fill:#f6da45;fill-opacity:1;fill-rule:nonzero;stroke:none;stroke-width:0.13538" />
    <path id="path573"
      d="m 193.50172,189.56564 c -0.42373,0 -0.7676,-0.34252 -0.7676,-0.76761 v -5.88229 c 0,-0.42509 0.34387,-0.76761 0.7676,-0.76761 0.42374,0 0.76761,0.34252 0.76761,0.76761 v 5.88229 c 0,0.42509 -0.34387,0.76761 -0.76761,0.76761"
      style="fill:#f6da45;fill-opacity:1;fill-rule:nonzero;stroke:none;stroke-width:0.13538" />
    <path id="path574"
      d="m 203.17196,187.2222 c -0.42374,0 -0.76896,-0.34252 -0.76896,-0.76626 v -5.88364 c 0,-0.42374 0.34522,-0.76625 0.76896,-0.76625 0.42239,0 0.76761,0.34251 0.76761,0.76625 v 5.88364 c 0,0.42374 -0.34522,0.76626 -0.76761,0.76626"
      style="fill:#f6da45;fill-opacity:1;fill-rule:nonzero;stroke:none;stroke-width:0.13538" />
    <path id="path575"
      d="m 212.72171,184.29256 c -0.42373,0 -0.7676,-0.34251 -0.7676,-0.76625 v -5.885 c 0,-0.42375 0.34387,-0.76626 0.7676,-0.76626 0.42374,0 0.76761,0.34251 0.76761,0.76626 v 5.885 c 0,0.42374 -0.34387,0.76625 -0.76761,0.76625"
      style="fill:#f6da45;fill-opacity:1;fill-rule:nonzero;stroke:none;stroke-width:0.13538" />
    <path id="path576"
      d="m 222.12525,179.96444 c -0.42374,0 -0.76761,-0.34252 -0.76761,-0.76625 v -5.885 c 0,-0.42374 0.34387,-0.76626 0.76761,-0.76626 0.42375,0 0.76761,0.34252 0.76761,0.76626 v 5.885 c 0,0.42373 -0.34386,0.76625 -0.76761,0.76625"
      style="fill:#f6da45;fill-opacity:1;fill-rule:nonzero;stroke:none;stroke-width:0.13538" />
    <path id="path577"
      d="m 211.07007,142.64269 c -0.003,0.35741 -0.0434,0.71618 -0.11779,1.07358 -0.0637,0.31273 -0.16109,0.62681 -0.28023,0.93819 l -0.0894,0.21254 c -0.11101,0.26128 -0.23963,0.52258 -0.38854,0.78251 l -0.1056,0.18682 c -0.19495,0.3222 -0.41562,0.64306 -0.67013,0.96256 l -0.20443,0.23826 c -0.15163,0.18006 -0.30731,0.35741 -0.47789,0.53611 l -0.28972,0.28701 c -0.16381,0.16111 -0.33439,0.3222 -0.51309,0.48196 l -0.34522,0.29783 c -0.18818,0.15705 -0.38313,0.31408 -0.5862,0.46978 -0.12455,0.0975 -0.25045,0.19358 -0.38177,0.28971 -0.20578,0.15162 -0.42375,0.30054 -0.64306,0.45081 -0.15704,0.1056 -0.31002,0.21255 -0.47383,0.31815 -0.23827,0.15433 -0.49143,0.30596 -0.7446,0.45759 -0.16246,0.0975 -0.31949,0.19494 -0.48737,0.29242 -0.28971,0.16652 -0.59838,0.33032 -0.9057,0.49414 -0.15297,0.0812 -0.29512,0.16246 -0.45217,0.24369 -0.47112,0.24097 -0.95984,0.48059 -1.47023,0.71616 l -0.009,0.004 c -0.34252,0.15839 -0.7094,0.31408 -1.07086,0.46977 -0.20307,0.088 -0.3926,0.17599 -0.60109,0.26399 -0.15975,0.0663 -0.33439,0.12997 -0.49685,0.1963 -1.02212,0.41292 -2.09569,0.8177 -3.25184,1.21166 -0.66878,0.22744 -1.36193,0.45217 -2.07674,0.67284 -0.68367,0.2112 -1.38629,0.41427 -2.09704,0.61463 -0.95174,0.2667 -1.92512,0.52528 -2.92016,0.77167 -0.22338,0.0555 -0.45488,0.10695 -0.67962,0.16245 -0.79739,0.19225 -1.60561,0.37772 -2.42737,0.55778 -0.32221,0.0704 -0.64713,0.13944 -0.97339,0.20713 -0.82853,0.17464 -1.66789,0.34116 -2.51943,0.50226 -0.24369,0.046 -0.48331,0.0947 -0.72836,0.13945 -1.0871,0.20036 -2.19045,0.38853 -3.30869,0.56723 -0.25993,0.0419 -0.52664,0.0799 -0.78792,0.1205 -0.88404,0.13537 -1.7762,0.2667 -2.67783,0.38989 -0.35741,0.0501 -0.71481,0.0975 -1.07357,0.14486 -0.92194,0.12048 -1.85201,0.2342 -2.7902,0.34116 -0.25722,0.0298 -0.51173,0.0622 -0.77167,0.0907 -1.18052,0.12997 -2.37321,0.25046 -3.5754,0.36012 -0.29378,0.0257 -0.59026,0.0501 -0.88538,0.0744 -0.93819,0.0825 -1.8818,0.1584 -2.83217,0.22609 -0.30055,0.023 -0.6038,0.0434 -0.9057,0.0637 -2.23242,0.15298 -4.48922,0.27347 -6.76362,0.3574 l -0.31679,0.0122 c -2.35291,0.084 -4.72208,0.12996 -7.09665,0.13944 -0.21796,0.001 -0.43593,0 -0.65389,0 -3.42513,0.005 -6.85703,-0.0663 -10.26592,-0.2139 -0.23556,-0.0109 -0.47247,-0.019 -0.70939,-0.0298 -1.47159,-0.069 -2.93911,-0.15298 -4.39852,-0.25046 -0.31273,-0.0203 -0.6241,-0.0434 -0.93548,-0.065 -1.49595,-0.10695 -2.98649,-0.22203 -4.46079,-0.35876 l -0.0785,-0.008 c -1.47023,-0.13674 -2.92422,-0.29242 -4.36872,-0.45894 -0.29107,-0.0338 -0.58215,-0.0663 -0.87051,-0.10153 -1.41607,-0.16923 -2.81726,-0.35335 -4.20086,-0.55236 -0.22879,-0.0338 -0.45623,-0.069 -0.68367,-0.10289 -1.62862,-0.24098 -3.2356,-0.49956 -4.80737,-0.78115 -0.1435,-0.0257 -0.2843,-0.0541 -0.42645,-0.0799 -1.64352,-0.29918 -3.2586,-0.61733 -4.83037,-0.96255 -1.78974,-0.3926 -3.52803,-0.81364 -5.21081,-1.26445 -14.338169,-3.84211 -21.602689,-9.03125 -21.562075,-14.18519 l -0.117781,15.21137 c -0.03929,5.15395 7.223906,10.34444 21.562076,14.18518 1.68143,0.45082 3.42107,0.87186 5.20944,1.26447 h 0.003 c 1.57042,0.34522 3.1855,0.66336 4.82768,0.96255 0.1435,0.0257 0.2843,0.0541 0.4278,0.0799 1.57042,0.2816 3.17468,0.54017 4.8006,0.78115 0.13673,0.0203 0.26805,0.0447 0.40479,0.065 l 0.29106,0.0379 c 1.38088,0.19901 2.77937,0.38312 4.19139,0.55235 0.29242,0.0352 0.58484,0.0677 0.87726,0.10154 1.44993,0.16787 2.90798,0.32491 4.38363,0.46165 l 0.0447,0.004 0.0122,0.001 c 1.47565,0.13673 2.96484,0.25181 4.46079,0.35875 0.31408,0.0216 0.62681,0.0447 0.9409,0.0663 1.4594,0.0961 2.92558,0.1814 4.39716,0.24909 l 0.25587,0.0149 c 0.15298,0.007 0.30597,0.008 0.45894,0.0149 3.40753,0.14758 6.83673,0.21932 10.26051,0.21391 0.15297,0 0.30595,0.005 0.45894,0.004 l 0.1963,-0.004 c 2.37458,-0.009 4.74238,-0.0555 7.0953,-0.13809 l 0.31814,-0.0135 c 2.27439,-0.084 4.52984,-0.20444 6.76226,-0.35606 l 0.32222,-0.0176 c 0.19629,-0.0135 0.38718,-0.0325 0.58348,-0.046 0.95443,-0.069 1.90346,-0.14621 2.84706,-0.22744 0.28836,-0.0257 0.57808,-0.0474 0.86644,-0.0744 1.20353,-0.10966 2.39759,-0.22879 3.58081,-0.36012 0.25993,-0.0284 0.51445,-0.0609 0.77438,-0.0907 0.93548,-0.10695 1.86284,-0.22067 2.78207,-0.33981 0.36147,-0.0474 0.72159,-0.0961 1.08034,-0.14621 0.89893,-0.12319 1.78703,-0.25316 2.667,-0.38854 0.2667,-0.0406 0.53611,-0.0799 0.8001,-0.12184 1.11689,-0.1787 2.21618,-0.36689 3.30058,-0.5659 0.25045,-0.046 0.49414,-0.0947 0.74324,-0.14215 0.84748,-0.16109 1.68414,-0.32626 2.5086,-0.49955 0.32763,-0.0691 0.65254,-0.13809 0.97475,-0.20849 0.81905,-0.1787 1.62321,-0.36417 2.41654,-0.55641 0.23015,-0.0555 0.46435,-0.10831 0.69179,-0.16381 0.9937,-0.24639 1.96573,-0.50361 2.91475,-0.77032 l 0.18548,-0.05 c 0.64982,-0.18413 1.28747,-0.3723 1.91563,-0.5659 2.85924,-0.88268 5.35701,-1.82493 7.49603,-2.81321 l 0.001,-0.001 0.008,-0.003 c 0.51174,-0.23692 1.00182,-0.47654 1.47159,-0.71887 0.15569,-0.0785 0.29648,-0.15975 0.44676,-0.23962 0.31002,-0.16517 0.61733,-0.32898 0.9084,-0.49549 0.17193,-0.0988 0.33033,-0.19766 0.4955,-0.29649 0.25045,-0.15027 0.5009,-0.3019 0.73646,-0.45353 0.16517,-0.10559 0.31951,-0.2139 0.47655,-0.32085 0.15027,-0.10153 0.31137,-0.20307 0.45488,-0.30596 l 0.18818,-0.14215 c 0.13131,-0.0975 0.25586,-0.19359 0.38177,-0.29107 0.20172,-0.15568 0.39802,-0.31273 0.58484,-0.46977 l 0.34522,-0.29784 c 0.18006,-0.15974 0.34929,-0.3195 0.51309,-0.48059 l 0.29107,-0.28973 c 0.16923,-0.17599 0.32357,-0.35334 0.47519,-0.53204 l 0.20713,-0.24098 0.0474,-0.0541 c 0.25316,-0.32357 0.4657,-0.64713 0.6593,-0.97339 l 0.0731,-0.12862 c 0.15974,-0.28024 0.29783,-0.56183 0.41291,-0.84477 l 0.0637,-0.14892 c 0.11372,-0.30054 0.20985,-0.60109 0.27348,-0.90163 l 0.005,-0.0434 c 0.0718,-0.35334 0.11237,-0.70668 0.11507,-1.06138 l 0.11778,-15.21138"
      style="fill:#fbc518;fill-opacity:1;fill-rule:nonzero;stroke:none;stroke-width:0.13538" />
    <path id="path578"
      d="m 189.51206,128.45752 c 26.91908,7.21308 28.89564,19.18072 4.42424,26.73361 -24.47006,7.55153 -66.11315,7.82636 -93.03224,0.61328 -26.919093,-7.21309 -28.903777,-19.17803 -4.433722,-26.72956 24.471402,-7.55289 66.122632,-7.83042 93.041722,-0.61733"
      style="fill:#f9f062;fill-opacity:1;fill-rule:nonzero;stroke:none;stroke-width:0.13538" />
    <path id="path579"
      d="m 146.14557,157.82022 c -15.91536,0 -31.14297,-1.73151 -42.87913,-4.87505 -13.527225,-3.6255 -18.386044,-8.04703 -18.437482,-10.73299 -0.04467,-2.38134 3.695892,-6.09348 14.32869,-9.3751 11.185152,-3.45221 27.197972,-5.43283 43.933732,-5.43283 15.91535,0 31.14026,1.73152 42.8737,4.87506 13.52453,3.62549 18.38199,8.04702 18.43207,10.73297 0.0447,2.38271 -3.69589,6.0962 -14.33139,9.37918 -11.18109,3.4495 -27.18985,5.42876 -43.92019,5.42876"
      style="fill:#f8df2b;fill-opacity:1;fill-rule:nonzero;stroke:none;stroke-width:0.13538" />
    <path id="path580"
      d="m 99.157648,135.9048 c 11.185152,-3.45221 27.197972,-5.43282 43.933732,-5.43282 15.91535,0 31.14026,1.73151 42.8737,4.87505 11.25825,3.01764 16.49749,6.58357 17.97043,9.24515 0.31949,-0.56995 0.47113,-1.10335 0.46164,-1.5799 -0.05,-2.68595 -4.90754,-7.10883 -18.43207,-10.73297 -11.73344,-3.14354 -26.95835,-4.87506 -42.8737,-4.87506 -16.73576,0 -32.74858,1.98062 -43.933732,5.43283 -10.632798,3.28162 -14.373365,6.99376 -14.32869,9.3751 0.0081,0.44947 0.166518,0.95174 0.463002,1.48784 1.276636,-2.27439 5.363775,-5.17154 13.865688,-7.79522"
      style="fill:#fbc518;fill-opacity:1;fill-rule:nonzero;stroke:none;stroke-width:0.13538" />
    <path id="path583"
      d="m 82.125403,159.27286 c -0.423738,0 -0.767608,-0.34251 -0.767608,-0.76761 v -5.88365 c 0,-0.42509 0.34387,-0.7676 0.767608,-0.7676 0.422388,0 0.767608,0.34251 0.767608,0.7676 v 5.88365 c 0,0.4251 -0.34522,0.76761 -0.767608,0.76761"
      style="fill:#f4e73e;fill-opacity:1;fill-rule:nonzero;stroke:none;stroke-width:0.13538" />
    <path id="path584"
      d="m 91.52759,163.60098 c -0.422387,0 -0.767608,-0.34252 -0.767608,-0.76761 v -5.88364 c 0,-0.4251 0.345221,-0.76761 0.767608,-0.76761 0.423738,0 0.767609,0.34251 0.767609,0.76761 v 5.88364 c 0,0.42509 -0.343871,0.76761 -0.767609,0.76761"
      style="fill:#f4e73e;fill-opacity:1;fill-rule:nonzero;stroke:none;stroke-width:0.13538" />
    <path id="path585"
      d="m 101.0787,166.53062 c -0.42375,0 -0.76761,-0.34251 -0.76761,-0.76761 v -5.88229 c 0,-0.4251 0.34386,-0.76761 0.76761,-0.76761 0.42374,0 0.76761,0.34251 0.76761,0.76761 v 5.88229 c 0,0.4251 -0.34387,0.76761 -0.76761,0.76761"
      style="fill:#f4e73e;fill-opacity:1;fill-rule:nonzero;stroke:none;stroke-width:0.13538" />
    <path id="path586"
      d="m 110.74758,168.87271 c -0.42374,0 -0.76761,-0.34252 -0.76761,-0.76626 v -5.88365 c 0,-0.42374 0.34387,-0.76625 0.76761,-0.76625 0.42375,0 0.76761,0.34251 0.76761,0.76625 v 5.88365 c 0,0.42374 -0.34386,0.76626 -0.76761,0.76626"
      style="fill:#f4e73e;fill-opacity:1;fill-rule:nonzero;stroke:none;stroke-width:0.13538" />
    <path id="path587"
      d="m 120.50853,170.63265 c -0.42375,0 -0.76761,-0.34251 -0.76761,-0.76626 v -5.88499 c 0,-0.42509 0.34386,-0.76761 0.76761,-0.76761 0.42374,0 0.76761,0.34252 0.76761,0.76761 v 5.88499 c 0,0.42375 -0.34387,0.76626 -0.76761,0.76626"
      style="fill:#f4e73e;fill-opacity:1;fill-rule:nonzero;stroke:none;stroke-width:0.13538" />
    <path id="path588"
      d="m 130.33852,171.80369 c -0.42374,0 -0.76761,-0.34251 -0.76761,-0.76625 v -5.88364 c 0,-0.42374 0.34387,-0.76626 0.76761,-0.76626 0.42374,0 0.76761,0.34252 0.76761,0.76626 v 5.88364 c 0,0.42374 -0.34387,0.76625 -0.76761,0.76625"
      style="fill:#f4e73e;fill-opacity:1;fill-rule:nonzero;stroke:none;stroke-width:0.13538" />
    <path id="path589"
      d="m 140.20642,172.3899 c -0.42375,0 -0.76761,-0.34252 -0.76761,-0.76761 v -5.8823 c 0,-0.42509 0.34386,-0.76761 0.76761,-0.76761 0.42374,0 0.76761,0.34252 0.76761,0.76761 v 5.8823 c 0,0.42509 -0.34387,0.76761 -0.76761,0.76761"
      style="fill:#f4e73e;fill-opacity:1;fill-rule:nonzero;stroke:none;stroke-width:0.13538" />
    <path id="path590"
      d="m 150.08785,172.3899 c -0.42374,0 -0.7676,-0.34252 -0.7676,-0.76761 v -5.8823 c 0,-0.42509 0.34386,-0.76761 0.7676,-0.76761 0.42374,0 0.76761,0.34252 0.76761,0.76761 v 5.8823 c 0,0.42509 -0.34387,0.76761 -0.76761,0.76761"
      style="fill:#f4e73e;fill-opacity:1;fill-rule:nonzero;stroke:none;stroke-width:0.13538" />
    <path id="path591"
      d="m 159.95574,171.80369 c -0.42373,0 -0.7676,-0.34251 -0.7676,-0.76625 v -5.88364 c 0,-0.42374 0.34387,-0.76626 0.7676,-0.76626 0.42375,0 0.76761,0.34252 0.76761,0.76626 v 5.88364 c 0,0.42374 -0.34386,0.76625 -0.76761,0.76625"
      style="fill:#f4e73e;fill-opacity:1;fill-rule:nonzero;stroke:none;stroke-width:0.13538" />
    <path id="path592"
      d="m 169.78574,170.63265 c -0.42375,0 -0.76761,-0.34251 -0.76761,-0.76626 v -5.88499 c 0,-0.42509 0.34386,-0.76761 0.76761,-0.76761 0.42374,0 0.76761,0.34252 0.76761,0.76761 v 5.88499 c 0,0.42375 -0.34387,0.76626 -0.76761,0.76626"
      style="fill:#f4e73e;fill-opacity:1;fill-rule:nonzero;stroke:none;stroke-width:0.13538" />
    <path id="path593"
      d="m 179.54668,168.87271 c -0.42373,0 -0.7676,-0.34252 -0.7676,-0.76626 v -5.88365 c 0,-0.42374 0.34387,-0.76625 0.7676,-0.76625 0.42374,0 0.76761,0.34251 0.76761,0.76625 v 5.88365 c 0,0.42374 -0.34387,0.76626 -0.76761,0.76626"
      style="fill:#f4e73e;fill-opacity:1;fill-rule:nonzero;stroke:none;stroke-width:0.13538" />
    <path id="path594"
      d="m 189.21558,166.53062 c -0.42375,0 -0.76761,-0.34251 -0.76761,-0.76761 v -5.88229 c 0,-0.4251 0.34386,-0.76761 0.76761,-0.76761 0.42373,0 0.7676,0.34251 0.7676,0.76761 v 5.88229 c 0,0.4251 -0.34387,0.76761 -0.7676,0.76761"
      style="fill:#f4e73e;fill-opacity:1;fill-rule:nonzero;stroke:none;stroke-width:0.13538" />
    <path id="path595"
      d="m 198.76667,163.60098 c -0.42373,0 -0.7676,-0.34252 -0.7676,-0.76761 v -5.88364 c 0,-0.4251 0.34387,-0.76761 0.7676,-0.76761 0.42375,0 0.76761,0.34251 0.76761,0.76761 v 5.88364 c 0,0.42509 -0.34386,0.76761 -0.76761,0.76761"
      style="fill:#f4e73e;fill-opacity:1;fill-rule:nonzero;stroke:none;stroke-width:0.13538" />
    <path id="path596"
      d="m 208.17021,159.27286 c -0.42374,0 -0.76896,-0.34251 -0.76896,-0.76761 v -5.88365 c 0,-0.42509 0.34522,-0.7676 0.76896,-0.7676 0.42239,0 0.76761,0.34251 0.76761,0.7676 v 5.88365 c 0,0.4251 -0.34522,0.76761 -0.76761,0.76761"
      style="fill:#f4e73e;fill-opacity:1;fill-rule:nonzero;stroke:none;stroke-width:0.13538" />
    <path id="path597"
      d="m 231.763,117.61894 c -0.003,0.35875 -0.0447,0.71616 -0.11778,1.07356 -0.065,0.31409 -0.1611,0.62682 -0.28024,0.93955 l -0.0893,0.21119 c -0.11101,0.26128 -0.23962,0.52257 -0.38854,0.78386 l -0.10559,0.18682 c -0.19631,0.32221 -0.41563,0.64306 -0.67014,0.96256 l -0.20578,0.23826 c -0.15162,0.1787 -0.30732,0.35741 -0.4779,0.53476 l -0.28836,0.28701 c -0.16515,0.1611 -0.33438,0.3222 -0.51444,0.48331 l -0.34522,0.29648 c -0.18682,0.1584 -0.38313,0.31408 -0.58484,0.47113 -0.12591,0.0962 -0.25046,0.19358 -0.38177,0.28971 -0.20579,0.15027 -0.42375,0.30054 -0.64442,0.44947 -0.15705,0.10694 -0.31002,0.21389 -0.47384,0.31949 -0.23826,0.15298 -0.49143,0.3046 -0.74459,0.45759 -0.16245,0.0975 -0.31814,0.19495 -0.48737,0.29107 -0.28971,0.16652 -0.59703,0.33032 -0.90569,0.49413 -0.15163,0.0812 -0.29514,0.16382 -0.45217,0.24369 -0.46978,0.24098 -0.9585,0.48061 -1.47024,0.71752 l -0.008,0.004 c -0.34252,0.15839 -0.71075,0.31273 -1.07221,0.46977 -0.20172,0.0866 -0.39261,0.176 -0.60109,0.26264 -0.1584,0.0663 -0.33304,0.12996 -0.49686,0.1963 -1.02076,0.41291 -2.09569,0.81905 -3.25048,1.21166 -0.67014,0.22744 -1.36193,0.45217 -2.07674,0.67284 -0.68503,0.2112 -1.38765,0.41562 -2.0984,0.61463 -0.95038,0.26805 -1.92512,0.52527 -2.92016,0.77302 -0.22338,0.0555 -0.45353,0.10696 -0.67961,0.1611 -0.79604,0.19224 -1.60426,0.37772 -2.42603,0.55777 -0.3222,0.0704 -0.64712,0.13945 -0.97338,0.20849 -0.82853,0.17328 -1.66924,0.34116 -2.52079,0.50226 -0.24369,0.046 -0.48196,0.0947 -0.72835,0.13945 -1.08576,0.19901 -2.1891,0.38853 -3.3087,0.56723 -0.25993,0.0406 -0.52528,0.0785 -0.78656,0.11915 -0.88404,0.13672 -1.7762,0.26669 -2.67783,0.39124 -0.35741,0.0487 -0.71481,0.0975 -1.07492,0.1435 -0.92194,0.1205 -1.85201,0.23422 -2.78885,0.34252 -0.25858,0.0298 -0.51308,0.0609 -0.77167,0.0907 -1.18052,0.12997 -2.37321,0.2491 -3.5754,0.35876 -0.29378,0.0271 -0.59026,0.0501 -0.88538,0.0759 -0.93955,0.0812 -1.88315,0.15704 -2.83218,0.22609 -0.30189,0.0216 -0.60379,0.0434 -0.90704,0.0637 -2.23243,0.15163 -4.48922,0.27211 -6.76227,0.35605 l -0.31679,0.0135 c -2.35291,0.0825 -4.72208,0.12861 -7.09665,0.13945 -0.21796,0 -0.43728,-0.001 -0.65525,-0.001 -3.42377,0.005 -6.85567,-0.0663 -10.26456,-0.21389 -0.23691,-0.009 -0.47383,-0.0176 -0.70939,-0.0298 -1.47294,-0.0677 -2.93911,-0.15298 -4.39987,-0.2491 -0.31273,-0.0216 -0.62411,-0.0434 -0.93548,-0.0663 -1.4946,-0.1056 -2.98514,-0.22203 -4.4608,-0.35877 l -0.0772,-0.007 c -1.47158,-0.13673 -2.92557,-0.29378 -4.37008,-0.4603 -0.28972,-0.0338 -0.58079,-0.0663 -0.8705,-0.10021 -1.41472,-0.17058 -2.81727,-0.35471 -4.19951,-0.55372 -0.23015,-0.0325 -0.45623,-0.069 -0.68503,-0.10288 -1.62727,-0.24098 -3.23424,-0.49821 -4.80736,-0.78115 -0.14351,-0.0257 -0.28295,-0.0541 -0.42645,-0.0799 -1.64217,-0.2992 -3.25862,-0.61734 -4.82902,-0.96121 -1.78974,-0.3926 -3.52938,-0.81363 -5.21081,-1.26445 -14.33817,-3.84211 -21.60269,-9.0326 -21.56344,-14.18519 l -0.116416,15.21138 c -0.04062,5.15258 7.223906,10.34307 21.562076,14.18518 1.68143,0.45081 3.41972,0.87185 5.20809,1.26446 h 0.003 c 1.57041,0.34386 3.1855,0.66201 4.82767,0.96119 0.14486,0.0271 0.2843,0.0541 0.42916,0.0812 1.57042,0.2816 3.17468,0.53882 4.79925,0.7798 0.13808,0.0203 0.26805,0.046 0.40614,0.0663 l 0.29106,0.0379 c 1.37953,0.19901 2.77801,0.38177 4.19138,0.55235 0.29108,0.0352 0.58485,0.0677 0.87727,0.10154 1.44858,0.16652 2.90798,0.32356 4.38363,0.46029 l 0.0447,0.005 h 0.0109 c 1.47566,0.13672 2.9662,0.25316 4.46215,0.35875 0.31273,0.0231 0.62681,0.046 0.9409,0.0663 1.4594,0.0975 2.92423,0.18141 4.39716,0.25045 l 0.25452,0.0135 c 0.15298,0.007 0.30732,0.009 0.45894,0.0162 3.40753,0.14757 6.83808,0.21797 10.26186,0.21391 0.15297,0 0.30595,0.004 0.45894,0.004 l 0.19495,-0.004 c 2.37457,-0.0109 4.74373,-0.0555 7.09665,-0.13944 l 0.31679,-0.0135 c 2.27439,-0.084 4.53119,-0.20307 6.76361,-0.35604 l 0.32085,-0.0163 c 0.19631,-0.0135 0.38855,-0.0325 0.5835,-0.0474 0.95443,-0.0691 1.90345,-0.14486 2.84705,-0.22744 0.28837,-0.0244 0.57944,-0.0474 0.86644,-0.0731 1.20354,-0.10966 2.39895,-0.23015 3.58082,-0.36011 0.25993,-0.0284 0.5158,-0.0609 0.77438,-0.0907 0.93548,-0.10695 1.86283,-0.22067 2.78207,-0.34116 0.36282,-0.0474 0.72158,-0.0962 1.08169,-0.14486 0.89757,-0.1232 1.78568,-0.25316 2.667,-0.3899 0.26535,-0.0406 0.53475,-0.0799 0.8001,-0.12184 1.11553,-0.17735 2.21618,-0.36688 3.29923,-0.56454 0.25044,-0.046 0.49549,-0.0962 0.74324,-0.1435 0.84747,-0.15975 1.68413,-0.32627 2.50995,-0.49956 0.32627,-0.0677 0.65118,-0.13808 0.97474,-0.20848 0.8177,-0.1787 1.62321,-0.36418 2.41655,-0.55506 0.22879,-0.0555 0.46435,-0.10831 0.69179,-0.16517 0.9937,-0.24639 1.96438,-0.50362 2.91339,-0.77031 l 0.18548,-0.0487 c 0.64982,-0.18412 1.28882,-0.37365 1.91563,-0.56725 2.85924,-0.88132 5.35702,-1.82492 7.49603,-2.81321 h 10e-4 l 0.008,-0.004 c 0.51309,-0.23691 1.00181,-0.47654 1.47294,-0.71751 0.15433,-0.0799 0.29648,-0.16111 0.44675,-0.24099 0.30867,-0.1638 0.61734,-0.32897 0.90841,-0.49549 0.17058,-0.0975 0.32898,-0.19765 0.49415,-0.29648 0.25044,-0.15027 0.5009,-0.30055 0.73646,-0.45217 0.16517,-0.10695 0.3195,-0.21391 0.4779,-0.32085 0.15027,-0.10289 0.31002,-0.20442 0.45352,-0.30596 l 0.18818,-0.14351 c 0.13132,-0.0961 0.25587,-0.19359 0.38178,-0.28971 0.20307,-0.15569 0.39802,-0.31273 0.58619,-0.46978 l 0.34387,-0.29783 c 0.18006,-0.15975 0.34929,-0.32085 0.51309,-0.48196 l 0.29107,-0.28836 c 0.16922,-0.17734 0.32492,-0.35469 0.47519,-0.53204 l 0.20713,-0.24098 0.0474,-0.0555 c 0.25452,-0.3222 0.46571,-0.64712 0.65931,-0.97203 l 0.0731,-0.12861 c 0.15974,-0.28159 0.29783,-0.56318 0.4129,-0.84478 l 0.0637,-0.15027 c 0.11372,-0.29919 0.2112,-0.59973 0.27483,-0.90164 l 0.004,-0.0419 c 0.0731,-0.35334 0.11372,-0.70804 0.11642,-1.06274 l 0.11778,-15.21137"
      style="fill:#f8b61c;fill-opacity:1;fill-rule:nonzero;stroke:none;stroke-width:0.13538" />
    <path id="path598"
      d="m 210.20498,103.43511 c 26.9191,7.21308 28.89431,19.18072 4.42425,26.73226 -24.47006,7.55153 -66.11314,7.82771 -93.03224,0.61463 -26.919088,-7.21308 -28.903772,-19.17803 -4.43372,-26.73092 24.47006,-7.551528 66.12263,-7.829055 93.04171,-0.61597"
      style="fill:#fbe76d;fill-opacity:1;fill-rule:nonzero;stroke:none;stroke-width:0.13538" />
    <path id="path599"
      d="m 166.83715,132.79781 c -15.91535,0 -31.14297,-1.73151 -42.87777,-4.87505 -13.52859,-3.62685 -18.3874,-8.04839 -18.43749,-10.73433 -0.0447,-2.38135 3.69453,-6.09349 14.32733,-9.37511 11.18515,-3.45086 27.19933,-5.43283 43.93374,-5.43283 15.91535,0 31.14161,1.73287 42.8737,4.87641 13.52453,3.62414 18.38334,8.04568 18.43343,10.73162 0.0447,2.38271 -3.69724,6.0962 -14.33139,9.37917 -11.18244,3.45086 -27.19121,5.43012 -43.92155,5.43012"
      style="fill:#fbd134;fill-opacity:1;fill-rule:nonzero;stroke:none;stroke-width:0.13538" />
    <path id="path600"
      d="m 119.84922,110.88104 c 11.18515,-3.45086 27.19933,-5.43283 43.93374,-5.43283 15.91535,0 31.14161,1.73288 42.8737,4.87642 11.25826,3.01628 16.49749,6.58356 17.97043,9.24379 0.32085,-0.56995 0.47248,-1.102 0.463,-1.5799 -0.0501,-2.68594 -4.9089,-7.10748 -18.43343,-10.73162 -11.73209,-3.14354 -26.95835,-4.87641 -42.8737,-4.87641 -16.73441,0 -32.74859,1.98197 -43.93374,5.43283 -10.6328,3.28162 -14.372,6.99376 -14.32733,9.37511 0.008,0.45081 0.16516,0.95308 0.46164,1.48919 1.278,-2.2744 5.36379,-5.1729 13.86569,-7.79658"
      style="fill:#f8b61c;fill-opacity:1;fill-rule:nonzero;stroke:none;stroke-width:0.13538" />
    <path id="path603"
      d="m 102.81699,134.2491 c -0.42375,0 -0.76761,-0.34252 -0.76761,-0.76626 v -5.885 c 0,-0.42373 0.34386,-0.76625 0.76761,-0.76625 0.42374,0 0.76761,0.34252 0.76761,0.76625 v 5.885 c 0,0.42374 -0.34387,0.76626 -0.76761,0.76626"
      style="fill:#f6da45;fill-opacity:1;fill-rule:nonzero;stroke:none;stroke-width:0.13538" />
    <path id="path604"
      d="m 112.22053,138.57721 c -0.42374,0 -0.76761,-0.34251 -0.76761,-0.76624 v -5.885 c 0,-0.42375 0.34387,-0.76626 0.76761,-0.76626 0.42373,0 0.7676,0.34251 0.7676,0.76626 v 5.885 c 0,0.42373 -0.34387,0.76624 -0.7676,0.76624"
      style="fill:#f6da45;fill-opacity:1;fill-rule:nonzero;stroke:none;stroke-width:0.13538" />
    <path id="path605"
      d="m 121.77027,141.50686 c -0.42373,0 -0.7676,-0.34252 -0.7676,-0.76626 v -5.88365 c 0,-0.42374 0.34387,-0.76625 0.7676,-0.76625 0.42375,0 0.76761,0.34251 0.76761,0.76625 v 5.88365 c 0,0.42374 -0.34386,0.76626 -0.76761,0.76626"
      style="fill:#f6da45;fill-opacity:1;fill-rule:nonzero;stroke:none;stroke-width:0.13538" />
    <path id="path606"
      d="m 131.43916,143.8503 c -0.42373,0 -0.7676,-0.34252 -0.7676,-0.76761 v -5.8823 c 0,-0.42509 0.34387,-0.76761 0.7676,-0.76761 0.42374,0 0.76761,0.34252 0.76761,0.76761 v 5.8823 c 0,0.42509 -0.34387,0.76761 -0.76761,0.76761"
      style="fill:#f6da45;fill-opacity:1;fill-rule:nonzero;stroke:none;stroke-width:0.13538" />
    <path id="path607"
      d="m 141.20147,145.61024 c -0.42375,0 -0.76761,-0.34387 -0.76761,-0.76761 v -5.88499 c 0,-0.42374 0.34386,-0.76626 0.76761,-0.76626 0.42374,0 0.76761,0.34252 0.76761,0.76626 v 5.88499 c 0,0.42374 -0.34387,0.76761 -0.76761,0.76761"
      style="fill:#f6da45;fill-opacity:1;fill-rule:nonzero;stroke:none;stroke-width:0.13538" />
    <path id="path608"
      d="m 151.0301,146.78128 c -0.42374,0 -0.7676,-0.34251 -0.7676,-0.76761 v -5.88228 c 0,-0.4251 0.34386,-0.76761 0.7676,-0.76761 0.42374,0 0.76761,0.34251 0.76761,0.76761 v 5.88228 c 0,0.4251 -0.34387,0.76761 -0.76761,0.76761"
      style="fill:#f6da45;fill-opacity:1;fill-rule:nonzero;stroke:none;stroke-width:0.13538" />
    <path id="path609"
      d="m 160.89799,147.36613 c -0.42373,0 -0.7676,-0.34251 -0.7676,-0.76625 v -5.88365 c 0,-0.42374 0.34387,-0.76761 0.7676,-0.76761 0.42375,0 0.76761,0.34387 0.76761,0.76761 v 5.88365 c 0,0.42374 -0.34386,0.76625 -0.76761,0.76625"
      style="fill:#f6da45;fill-opacity:1;fill-rule:nonzero;stroke:none;stroke-width:0.13538" />
    <path id="path610"
      d="m 170.78079,147.36613 c -0.42375,0 -0.76761,-0.34251 -0.76761,-0.76625 v -5.88365 c 0,-0.42374 0.34386,-0.76761 0.76761,-0.76761 0.42374,0 0.76761,0.34387 0.76761,0.76761 v 5.88365 c 0,0.42374 -0.34387,0.76625 -0.76761,0.76625"
      style="fill:#f6da45;fill-opacity:1;fill-rule:nonzero;stroke:none;stroke-width:0.13538" />
    <path id="path611"
      d="m 180.64868,146.78128 c -0.42374,0 -0.76761,-0.34251 -0.76761,-0.76761 v -5.88228 c 0,-0.4251 0.34387,-0.76761 0.76761,-0.76761 0.42375,0 0.76761,0.34251 0.76761,0.76761 v 5.88228 c 0,0.4251 -0.34386,0.76761 -0.76761,0.76761"
      style="fill:#f6da45;fill-opacity:1;fill-rule:nonzero;stroke:none;stroke-width:0.13538" />
    <path id="path612"
      d="m 190.47732,145.61024 c -0.42374,0 -0.76761,-0.34387 -0.76761,-0.76761 v -5.88499 c 0,-0.42374 0.34387,-0.76626 0.76761,-0.76626 0.42374,0 0.7676,0.34252 0.7676,0.76626 v 5.88499 c 0,0.42374 -0.34386,0.76761 -0.7676,0.76761"
      style="fill:#f6da45;fill-opacity:1;fill-rule:nonzero;stroke:none;stroke-width:0.13538" />
    <path id="path613"
      d="m 200.23962,143.8503 c -0.42374,0 -0.76761,-0.34252 -0.76761,-0.76761 v -5.8823 c 0,-0.42509 0.34387,-0.76761 0.76761,-0.76761 0.42374,0 0.76761,0.34252 0.76761,0.76761 v 5.8823 c 0,0.42509 -0.34387,0.76761 -0.76761,0.76761"
      style="fill:#f6da45;fill-opacity:1;fill-rule:nonzero;stroke:none;stroke-width:0.13538" />
    <path id="path614"
      d="m 209.9085,141.50686 c -0.42374,0 -0.76761,-0.34252 -0.76761,-0.76626 v -5.88365 c 0,-0.42374 0.34387,-0.76625 0.76761,-0.76625 0.42375,0 0.76761,0.34251 0.76761,0.76625 v 5.88365 c 0,0.42374 -0.34386,0.76626 -0.76761,0.76626"
      style="fill:#f6da45;fill-opacity:1;fill-rule:nonzero;stroke:none;stroke-width:0.13538" />
    <path id="path615"
      d="m 219.45826,138.57721 c -0.42375,0 -0.76761,-0.34251 -0.76761,-0.76624 v -5.885 c 0,-0.42375 0.34386,-0.76626 0.76761,-0.76626 0.42374,0 0.76761,0.34251 0.76761,0.76626 v 5.885 c 0,0.42373 -0.34387,0.76624 -0.76761,0.76624"
      style="fill:#f6da45;fill-opacity:1;fill-rule:nonzero;stroke:none;stroke-width:0.13538" />
    <path id="path616"
      d="m 228.8618,134.2491 c -0.42374,0 -0.76761,-0.34252 -0.76761,-0.76626 v -5.885 c 0,-0.42373 0.34387,-0.76625 0.76761,-0.76625 0.42373,0 0.7676,0.34252 0.7676,0.76625 v 5.885 c 0,0.42374 -0.34387,0.76626 -0.7676,0.76626"
      style="fill:#f6da45;fill-opacity:1;fill-rule:nonzero;stroke:none;stroke-width:0.13538" />
    <path id="path617"
      d="m 200.08257,95.822645 c -0.003,0.358765 -0.0447,0.71617 -0.11778,1.073575 -0.065,0.31408 -0.16109,0.626809 -0.28023,0.939539 l -0.0894,0.211194 c -0.111,0.262641 -0.23962,0.523923 -0.38853,0.783854 l -0.1056,0.186825 c -0.19631,0.322203 -0.41562,0.643055 -0.67013,0.962556 l -0.20578,0.238272 c -0.15028,0.1787 -0.30732,0.35741 -0.47654,0.53475 l -0.28972,0.28836 c -0.16381,0.16111 -0.33439,0.32085 -0.51444,0.48196 l -0.34522,0.29783 c -0.18683,0.15705 -0.38178,0.31409 -0.58485,0.46978 -0.12455,0.0961 -0.25046,0.19359 -0.38177,0.28971 -0.20578,0.15027 -0.42375,0.30054 -0.64442,0.44946 -0.15568,0.10695 -0.30866,0.21391 -0.47383,0.31951 -0.23692,0.15297 -0.49007,0.30595 -0.74324,0.45758 -0.16246,0.0975 -0.31949,0.19494 -0.48737,0.29242 -0.28971,0.16517 -0.59838,0.33033 -0.9057,0.49414 -0.15297,0.0799 -0.29648,0.16246 -0.45217,0.24234 -0.47112,0.24232 -0.95984,0.48059 -1.47023,0.71751 l -0.009,0.004 c -0.34252,0.15839 -0.7094,0.31409 -1.07086,0.46977 -0.20308,0.0866 -0.39261,0.17599 -0.60109,0.26264 -0.15975,0.0663 -0.33439,0.13132 -0.49821,0.1963 -1.02077,0.41292 -2.09569,0.81906 -3.25048,1.21166 -0.66879,0.2288 -1.36193,0.45218 -2.07674,0.67284 -0.68368,0.2112 -1.38631,0.41562 -2.09705,0.61463 -0.95173,0.26805 -1.92512,0.52528 -2.92152,0.77303 -0.22337,0.0555 -0.45352,0.10694 -0.6796,0.16109 -0.79604,0.19225 -1.60426,0.37908 -2.42603,0.55778 -0.3222,0.0704 -0.64712,0.14079 -0.97338,0.20848 -0.82853,0.17329 -1.66925,0.34116 -2.51944,0.50227 -0.24369,0.046 -0.48331,0.0947 -0.72835,0.13944 -1.08711,0.19901 -2.19045,0.38854 -3.31005,0.56724 -0.25994,0.0419 -0.52528,0.0785 -0.78657,0.11914 -0.88403,0.13673 -1.77619,0.26805 -2.67783,0.39124 -0.3574,0.0487 -0.71481,0.0975 -1.07492,0.14486 -0.92058,0.1205 -1.85065,0.23422 -2.78884,0.34116 -0.25723,0.0297 -0.51174,0.0622 -0.77167,0.0907 -1.18052,0.12997 -2.37323,0.24911 -3.57541,0.35877 -0.29377,0.0271 -0.59025,0.0501 -0.88539,0.0759 -0.93818,0.0812 -1.88178,0.15704 -2.83216,0.22609 -0.30189,0.0216 -0.6038,0.0434 -0.90569,0.0637 -2.23243,0.15297 -4.48922,0.27211 -6.76362,0.35604 l -0.31679,0.0135 c -2.35292,0.084 -4.72208,0.1286 -7.09666,0.13944 -0.21796,0 -0.43592,-0.001 -0.65389,0 -3.42513,0.004 -6.85703,-0.0663 -10.26591,-0.21526 -0.23556,-0.009 -0.47248,-0.0176 -0.7094,-0.0284 -1.47294,-0.069 -2.93911,-0.15298 -4.39851,-0.25046 -0.31273,-0.0203 -0.62411,-0.0434 -0.93548,-0.065 -1.49596,-0.10695 -2.9865,-0.22338 -4.4608,-0.35876 l -0.0785,-0.008 c -1.47023,-0.13674 -2.92557,-0.29242 -4.36873,-0.46029 -0.29107,-0.0325 -0.58214,-0.065 -0.8705,-0.10021 -1.41608,-0.17058 -2.81727,-0.3547 -4.20086,-0.55371 -0.23015,-0.0325 -0.45624,-0.0677 -0.68503,-0.10153 -1.62728,-0.24099 -3.23424,-0.49956 -4.80737,-0.78251 -0.1435,-0.0257 -0.28294,-0.0528 -0.426447,-0.0799 -1.642164,-0.29918 -3.257259,-0.61733 -4.829029,-0.96119 -1.789725,-0.39261 -3.529374,-0.81365 -5.210802,-1.26446 -14.338253,-3.8423 -21.602783,-9.032792 -21.562168,-14.185373 l -0.117782,15.211363 c -0.03929,5.15395 7.223916,10.34309 21.562079,14.18519 1.681428,0.45082 3.421076,0.87185 5.209452,1.26446 h 10e-4 c 1.57177,0.34387 3.186864,0.66201 4.829028,0.9612 0.143511,0.0271 0.284299,0.0555 0.427809,0.0812 1.57041,0.28159 3.17467,0.53881 4.80059,0.77979 0.13673,0.0203 0.2667,0.046 0.40479,0.0663 l 0.29107,0.0379 c 1.38089,0.19901 2.77801,0.38313 4.19138,0.55235 0.29108,0.0352 0.58485,0.0677 0.87727,0.10154 1.44858,0.16652 2.90798,0.32356 4.38362,0.4603 l 0.0447,0.005 0.0122,0.001 c 1.47567,0.13539 2.96484,0.25181 4.46081,0.35877 0.31408,0.0216 0.62681,0.0447 0.94088,0.065 1.45942,0.0975 2.92558,0.1814 4.39718,0.25045 l 0.25587,0.0149 c 0.15161,0.007 0.30594,0.008 0.45758,0.0149 3.40753,0.14756 6.83807,0.21931 10.26185,0.21389 0.15298,0 0.30596,0.004 0.45894,0.004 l 0.19631,-0.004 c 2.37458,-0.009 4.74237,-0.0555 7.09531,-0.13944 l 0.31679,-0.0122 c 2.27439,-0.084 4.53118,-0.20442 6.76361,-0.35741 l 0.3222,-0.0162 c 0.19495,-0.0135 0.3872,-0.0325 0.5835,-0.0474 0.95443,-0.069 1.90208,-0.14485 2.84705,-0.22608 0.28836,-0.0257 0.57808,-0.0487 0.86509,-0.0744 1.20489,-0.10966 2.39894,-0.23014 3.58081,-0.36011 0.26128,-0.0284 0.51581,-0.0609 0.77438,-0.0907 0.93548,-0.10695 1.86284,-0.22067 2.78343,-0.34116 0.36147,-0.0474 0.72157,-0.0947 1.08034,-0.14485 0.89757,-0.1232 1.78702,-0.25317 2.66699,-0.38855 0.26535,-0.0419 0.53611,-0.0799 0.8001,-0.12184 1.11554,-0.1787 2.21619,-0.36688 3.30059,-0.56589 0.25045,-0.046 0.49413,-0.0961 0.74323,-0.14351 0.84748,-0.15974 1.68414,-0.32626 2.5086,-0.49819 0.32627,-0.069 0.65119,-0.13809 0.97474,-0.20984 0.81905,-0.17871 1.62321,-0.36418 2.41655,-0.55507 0.23014,-0.0555 0.46435,-0.1083 0.69179,-0.16515 0.9937,-0.2464 1.96438,-0.50362 2.91475,-0.77032 l 0.18546,-0.0487 c 0.64984,-0.18412 1.28748,-0.3723 1.91564,-0.56589 2.85789,-0.88269 5.35567,-1.82494 7.49603,-2.81321 l 0.001,-10e-4 0.008,-0.004 c 0.51174,-0.23692 1.00046,-0.47655 1.47159,-0.71752 0.15569,-0.0799 0.29648,-0.15975 0.44675,-0.24097 0.30868,-0.16382 0.61735,-0.32763 0.90841,-0.4955 0.17058,-0.0975 0.33034,-0.19766 0.49414,-0.29648 0.25181,-0.15027 0.50226,-0.30055 0.73782,-0.45218 0.16517,-0.10695 0.31815,-0.21389 0.47655,-0.32085 0.15027,-0.10289 0.31137,-0.20307 0.45488,-0.30596 l 0.18683,-0.1435 c 0.13131,-0.0962 0.25721,-0.19225 0.38312,-0.28972 0.20172,-0.15568 0.39802,-0.31273 0.58485,-0.46976 l 0.34522,-0.29785 c 0.1787,-0.15974 0.34928,-0.32085 0.51309,-0.48195 l 0.29107,-0.28836 c 0.16923,-0.176 0.32357,-0.3547 0.47384,-0.53204 l 0.20848,-0.24099 0.046,-0.0555 c 0.25452,-0.32221 0.46706,-0.64712 0.66066,-0.97204 l 0.0718,-0.1286 c 0.1611,-0.28024 0.29919,-0.56184 0.41427,-0.84478 l 0.0622,-0.14892 c 0.11372,-0.30055 0.21119,-0.60109 0.27484,-0.90299 l 0.005,-0.0419 c 0.0718,-0.35334 0.11237,-0.70804 0.11508,-1.06138 L 200.0819,95.8223"
      style="fill:#fbc518;fill-opacity:1;fill-rule:nonzero;stroke:none;stroke-width:0.13538" />
    <path id="path618"
      d="m 178.52456,81.638816 c 26.91909,7.213082 28.89429,19.180734 4.42424,26.732264 -24.47005,7.55289 -66.11315,7.82771 -93.032243,0.61463 C 62.997475,101.77263 61.012791,89.807692 85.482847,82.256152 109.9529,74.703271 151.60547,74.425734 178.52456,81.638816"
      style="fill:#f9f062;fill-opacity:1;fill-rule:nonzero;stroke:none;stroke-width:0.13538" />
    <path id="path619"
      d="m 135.15807,111.00153 c -15.9167,0 -31.14432,-1.73152 -42.879117,-4.87506 -13.52859,-3.62549 -18.387399,-8.048377 -18.437496,-10.734336 -0.04468,-2.379992 3.695892,-6.09348 14.328689,-9.375107 11.185151,-3.450847 27.197984,-5.431469 43.933744,-5.431469 15.91399,0 31.14025,1.731515 42.87235,4.875054 13.52588,3.624147 18.38333,8.045673 18.43342,10.732983 0.0447,2.381342 -3.69589,6.096195 -14.33139,9.379165 -11.18245,3.4495 -27.19121,5.42877 -43.9202,5.42877"
      style="fill:#f8df2b;fill-opacity:1;fill-rule:nonzero;stroke:none;stroke-width:0.13538" />
    <path id="path620"
      d="m 88.170146,89.084759 c 11.185151,-3.450856 27.197984,-5.431479 43.933744,-5.431479 15.91534,0 31.14025,1.731526 42.87235,4.875065 11.25825,3.017625 16.49748,6.583551 17.97178,9.243781 0.31949,-0.569949 0.47112,-1.101995 0.46164,-1.578531 -0.0501,-2.68731 -4.90754,-7.108836 -18.43342,-10.732983 -11.7321,-3.143539 -26.95701,-4.875054 -42.87235,-4.875054 -16.73576,0 -32.748593,1.980622 -43.933744,5.431469 -10.632797,3.281627 -14.373365,6.995115 -14.328689,9.375107 0.0081,0.450818 0.165167,0.953084 0.463001,1.489191 1.276647,-2.274395 5.363786,-5.171538 13.865688,-7.796566"
      style="fill:#fbc518;fill-opacity:1;fill-rule:nonzero;stroke:none;stroke-width:0.13538" />
    <path id="path623"
      d="m 71.136551,112.45281 c -0.423738,0 -0.767609,-0.34251 -0.767609,-0.76626 v -5.885 c 0,-0.42373 0.343871,-0.76624 0.767609,-0.76624 0.423748,0 0.767608,0.34251 0.767608,0.76624 v 5.885 c 0,0.42375 -0.34386,0.76626 -0.767608,0.76626"
      style="fill:#f4e73e;fill-opacity:1;fill-rule:nonzero;stroke:none;stroke-width:0.13538" />
    <path id="path624"
      d="m 80.540099,116.78093 c -0.423749,0 -0.767609,-0.34252 -0.767609,-0.76626 v -5.88499 c 0,-0.42374 0.34386,-0.76626 0.767609,-0.76626 0.423738,0 0.767608,0.34252 0.767608,0.76626 v 5.88499 c 0,0.42374 -0.34387,0.76626 -0.767608,0.76626"
      style="fill:#f4e73e;fill-opacity:1;fill-rule:nonzero;stroke:none;stroke-width:0.13538" />
    <path id="path625"
      d="m 90.091198,119.71057 c -0.423738,0 -0.767608,-0.34251 -0.767608,-0.76626 v -5.88364 c 0,-0.42375 0.34387,-0.76626 0.767608,-0.76626 0.422388,0 0.767608,0.34251 0.767608,0.76626 v 5.88364 c 0,0.42375 -0.34522,0.76626 -0.767608,0.76626"
      style="fill:#f4e73e;fill-opacity:1;fill-rule:nonzero;stroke:none;stroke-width:0.13538" />
    <path id="path626"
      d="m 99.760089,122.05401 c -0.423739,0 -0.767609,-0.34251 -0.767609,-0.76626 v -5.88364 c 0,-0.42375 0.34387,-0.76626 0.767609,-0.76626 0.423741,0 0.767611,0.34251 0.767611,0.76626 v 5.88364 c 0,0.42375 -0.34387,0.76626 -0.767611,0.76626"
      style="fill:#f4e73e;fill-opacity:1;fill-rule:nonzero;stroke:none;stroke-width:0.13538" />
    <path id="path627"
      d="m 109.52103,123.81395 c -0.42374,0 -0.76761,-0.34251 -0.76761,-0.76761 v -5.88363 c 0,-0.4251 0.34387,-0.76761 0.76761,-0.76761 0.42375,0 0.76761,0.34251 0.76761,0.76761 v 5.88363 c 0,0.4251 -0.34386,0.76761 -0.76761,0.76761"
      style="fill:#f4e73e;fill-opacity:1;fill-rule:nonzero;stroke:none;stroke-width:0.13538" />
    <path id="path628"
      d="m 119.35103,124.985 c -0.42375,0 -0.76761,-0.34252 -0.76761,-0.76626 v -5.88364 c 0,-0.42374 0.34386,-0.76625 0.76761,-0.76625 0.42239,0 0.76761,0.34251 0.76761,0.76625 v 5.88364 c 0,0.42374 -0.34522,0.76626 -0.76761,0.76626"
      style="fill:#f4e73e;fill-opacity:1;fill-rule:nonzero;stroke:none;stroke-width:0.13538" />
    <path id="path629"
      d="m 129.21892,125.56985 c -0.42374,0 -0.76761,-0.34252 -0.76761,-0.76626 v -5.88365 c 0,-0.42374 0.34387,-0.76625 0.76761,-0.76625 0.42375,0 0.76761,0.34251 0.76761,0.76625 v 5.88365 c 0,0.42374 -0.34386,0.76626 -0.76761,0.76626"
      style="fill:#f4e73e;fill-opacity:1;fill-rule:nonzero;stroke:none;stroke-width:0.13538" />
    <path id="path630"
      d="m 139.10035,125.56985 c -0.42374,0 -0.76761,-0.34252 -0.76761,-0.76626 v -5.88365 c 0,-0.42374 0.34387,-0.76625 0.76761,-0.76625 0.42375,0 0.76761,0.34251 0.76761,0.76625 v 5.88365 c 0,0.42374 -0.34386,0.76626 -0.76761,0.76626"
      style="fill:#f4e73e;fill-opacity:1;fill-rule:nonzero;stroke:none;stroke-width:0.13538" />
    <path id="path631"
      d="m 148.96825,124.985 c -0.42373,0 -0.76761,-0.34252 -0.76761,-0.76626 v -5.88364 c 0,-0.42374 0.34388,-0.76625 0.76761,-0.76625 0.42374,0 0.76761,0.34251 0.76761,0.76625 v 5.88364 c 0,0.42374 -0.34387,0.76626 -0.76761,0.76626"
      style="fill:#f4e73e;fill-opacity:1;fill-rule:nonzero;stroke:none;stroke-width:0.13538" />
    <path id="path632"
      d="m 158.79824,123.81395 c -0.42374,0 -0.76761,-0.34251 -0.76761,-0.76761 v -5.88363 c 0,-0.4251 0.34387,-0.76761 0.76761,-0.76761 0.42239,0 0.76761,0.34251 0.76761,0.76761 v 5.88363 c 0,0.4251 -0.34522,0.76761 -0.76761,0.76761"
      style="fill:#f4e73e;fill-opacity:1;fill-rule:nonzero;stroke:none;stroke-width:0.13538" />
    <path id="path633"
      d="m 168.55919,122.05401 c -0.42375,0 -0.76761,-0.34251 -0.76761,-0.76626 v -5.88364 c 0,-0.42375 0.34386,-0.76626 0.76761,-0.76626 0.42374,0 0.76761,0.34251 0.76761,0.76626 v 5.88364 c 0,0.42375 -0.34387,0.76626 -0.76761,0.76626"
      style="fill:#f4e73e;fill-opacity:1;fill-rule:nonzero;stroke:none;stroke-width:0.13538" />
    <path id="path634"
      d="m 178.22807,119.71057 c -0.42373,0 -0.76761,-0.34251 -0.76761,-0.76626 v -5.88364 c 0,-0.42375 0.34388,-0.76626 0.76761,-0.76626 0.42375,0 0.76761,0.34251 0.76761,0.76626 v 5.88364 c 0,0.42375 -0.34386,0.76626 -0.76761,0.76626"
      style="fill:#f4e73e;fill-opacity:1;fill-rule:nonzero;stroke:none;stroke-width:0.13538" />
    <path id="path635"
      d="m 187.77783,116.78093 c -0.42375,0 -0.76761,-0.34252 -0.76761,-0.76626 v -5.88499 c 0,-0.42374 0.34386,-0.76626 0.76761,-0.76626 0.42374,0 0.76761,0.34252 0.76761,0.76626 v 5.88499 c 0,0.42374 -0.34387,0.76626 -0.76761,0.76626"
      style="fill:#f4e73e;fill-opacity:1;fill-rule:nonzero;stroke:none;stroke-width:0.13538" />
    <path id="path636"
      d="m 197.18137,112.45281 c -0.42374,0 -0.76761,-0.34251 -0.76761,-0.76626 v -5.885 c 0,-0.42373 0.34387,-0.76624 0.76761,-0.76624 0.42374,0 0.76761,0.34251 0.76761,0.76624 v 5.885 c 0,0.42375 -0.34387,0.76626 -0.76761,0.76626"
      style="fill:#f4e73e;fill-opacity:1;fill-rule:nonzero;stroke:none;stroke-width:0.13538" />
  </g>
</svg>