<svg xmlns:inkscape="http://www.inkscape.org/namespaces/inkscape"
  xmlns:sodipodi="http://sodipodi.sourceforge.net/DTD/sodipodi-0.dtd"
  xmlns="http://www.w3.org/2000/svg" xmlns:svg="http://www.w3.org/2000/svg" viewBox="0 0 300 300"
  version="1.1" id="svg1" inkscape:version="1.3.2 (091e20ef0f, 2023-11-25)"
  sodipodi:docname="coins.svg">
  <sodipodi:namedview id="namedview1" pagecolor="#ffffff" bordercolor="#000000"
    borderopacity="0.28235294" inkscape:showpageshadow="true" inkscape:pageopacity="0.0"
    inkscape:pagecheckerboard="false" inkscape:deskcolor="#747474" inkscape:document-units="px"
    showborder="true" labelstyle="default" inkscape:clip-to-page="false" inkscape:zoom="2.964"
    inkscape:cx="134.44669" inkscape:cy="141.8691" inkscape:window-width="1920"
    inkscape:window-height="939" inkscape:window-x="0" inkscape:window-y="338"
    inkscape:window-maximized="1" inkscape:current-layer="layer3" />
  <defs id="defs1">
    <clipPath clipPathUnits="userSpaceOnUse" id="clipPath637">
      <path d="m 3082.51,1352.32 v 0.03 l 0.02,0.19 -0.02,-0.22"
        transform="matrix(0.12194825,0,0,-0.12195196,-375.46645,165.37905)" id="path637" />
    </clipPath>
    <clipPath clipPathUnits="userSpaceOnUse" id="clipPath638">
      <path d="m 2002.96,1360.54 -0.01,0.17 0.02,0.21 0.01,-0.16 -0.02,-0.22"
        transform="matrix(0.12195196,0,0,-0.10869624,-243.76977,148.38124)" id="path638" />
    </clipPath>
    <clipPath clipPathUnits="userSpaceOnUse" id="clipPath639">
      <path d="m 3520.48,1136.29 v 0.01 l 0.03,0.11 -0.03,-0.12"
        transform="matrix(0.12194825,0,0,-0.12195196,-428.87978,139.03742)" id="path639" />
    </clipPath>
    <clipPath clipPathUnits="userSpaceOnUse" id="clipPath640">
      <path
        d="m 3296.9,1087.01 c -6.55,0 -13.18,0.04 -19.88,0.13 -1.92,0.02 -3.86,0.07 -5.79,0.1 -6.36,0.11 -12.78,0.25 -19.27,0.43 -2.59,0.07 -5.19,0.15 -7.8,0.23 -6.63,0.22 -13.32,0.47 -20.07,0.76 -1.86,0.08 -3.7,0.15 -5.58,0.23 -8.52,0.4 -17.12,0.85 -25.78,1.36 -2.06,0.13 -4.15,0.27 -6.23,0.4 -6.78,0.42 -13.6,0.87 -20.46,1.36 -1.4,0.1 -2.78,0.18 -4.19,0.28 l -2.31,0.2 c -16.03,1.19 -32.2,2.57 -48.49,4.13 l -2.27,0.21 c -16.85,1.63 -33.79,3.46 -50.75,5.47 l -1.4,0.15 c -1.09,0.13 -2.18,0.28 -3.28,0.42 -24.44,2.94 -48.89,6.25 -73.14,9.91 -1.08,0.16 -2.18,0.31 -3.26,0.47 l -1.82,0.29 c -10.47,1.61 -20.89,3.28 -31.25,5.01 -2.23,0.38 -4.45,0.76 -6.68,1.14 -10.62,1.8 -21.19,3.66 -31.64,5.59 l -0.09,0.02 -0.31,0.06 c -10.46,1.93 -20.78,3.96 -31.03,6.02 -2.07,0.41 -4.14,0.83 -6.21,1.25 -9.98,2.04 -19.86,4.14 -29.6,6.29 l -2.06,0.44 c -0.97,0.21 -1.88,0.45 -2.85,0.67 -11.46,2.57 -22.77,5.2 -33.81,7.92 -1.02,0.25 -2.01,0.51 -3.02,0.76 -11.55,2.87 -22.89,5.8 -33.91,8.83 h -0.01 c -12.54,3.44 -24.71,6.98 -36.45,10.61 -38.37,11.87 -69.13,23.79 -92.38,35.38 -3.02,-0.12 -5.99,-0.36 -9.02,-0.47 l -2.6,-0.11 c -19.28,-0.68 -38.69,-1.06 -58.15,-1.14 l -1.61,-0.03 c -0.03,0 -0.07,0 -0.11,0 -0.61,0 -1.22,0.01 -1.82,0.02 -0.57,0 -1.14,0.01 -1.71,0.01 -0.04,0 -0.08,0 -0.12,0 -0.93,0 -1.85,0 -2.78,0 -27.13,0 -54.31,0.59 -81.31,1.76 -1.25,0.05 -2.51,0.06 -3.76,0.12 l -2.1,0.12 c -12.06,0.56 -24.07,1.25 -36.03,2.05 -2.58,0.17 -5.14,0.36 -7.71,0.54 -12.26,0.87 -24.47,1.82 -36.56,2.94 l -0.1,0.01 -0.37,0.03 c -12.09,1.13 -24.05,2.41 -35.92,3.78 -2.4,0.28 -4.8,0.55 -7.19,0.84 -11.58,1.39 -23.04,2.89 -34.35,4.52 l -2.39,0.31 c -1.13,0.17 -2.19,0.38 -3.32,0.54 -13.32,1.98 -26.46,4.09 -39.34,6.4 -1.18,0.21 -2.33,0.44 -3.51,0.66 -13.45,2.45 -26.69,5.06 -39.57,7.88 h -0.01 c -14.66,3.22 -28.91,6.67 -42.69,10.36 -93.59,25.08 -150.4,57.16 -169.48,90.53 0.15,1.42 0.21,2.83 0.21,4.25 -0.08,8.01 -2.52,16.01 -7.33,23.91 2.43,36.16 48.76,71.92 140.25,100.15 103.32,31.89 243.97,47.95 386.27,47.95 133.91,0 269.29,-14.23 376.24,-42.89 118.42,-31.73 177.94,-73.59 176.65,-116.15 l 0.02,-0.07 c -0.04,-2.84 -0.35,-5.68 -0.93,-8.51 l -0.04,-0.35 c -0.52,-2.47 -1.31,-4.93 -2.25,-7.39 l -0.52,-1.23 c -0.94,-2.31 -2.07,-4.62 -3.38,-6.92 l -0.6,-1.05 c -1.59,-2.67 -3.32,-5.33 -5.4,-7.97 l -0.39,-0.45 -1.7,-1.98 c -1.24,-1.46 -2.51,-2.91 -3.89,-4.36 l -2.39,-2.37 c -1.34,-1.32 -2.73,-2.63 -4.2,-3.94 -0.92,-0.82 -1.86,-1.63 -2.83,-2.44 -1.53,-1.29 -3.14,-2.58 -4.8,-3.85 -1.03,-0.8 -2.05,-1.59 -3.13,-2.38 l -1.54,-1.17 c -1.17,-0.84 -2.49,-1.67 -3.72,-2.51 -1.29,-0.88 -2.56,-1.76 -3.91,-2.63 l -1.1,-0.68 c 121.39,-13.99 244.19,-37.35 339.07,-66.7 100.91,-31.21 149.77,-62.17 145.61,-87.12 l 0.01,-0.05 c -0.24,-1.67 -0.71,-3.31 -1.42,-4.92 l -0.06,-0.2 c -0.63,-1.4 -1.5,-2.77 -2.49,-4.12 l -0.54,-0.67 c -0.98,-1.26 -2.13,-2.5 -3.44,-3.72 l -0.59,-0.56 c -1.58,-1.4 -3.28,-2.79 -5.28,-4.12 l -0.37,-0.23 -1.63,-0.99 c -1.18,-0.73 -2.39,-1.45 -3.7,-2.16 l -2.24,-1.14 c -1.27,-0.64 -2.57,-1.26 -3.95,-1.88 l -2.64,-1.14 c -1.43,-0.6 -2.91,-1.19 -4.45,-1.77 -0.95,-0.36 -1.9,-0.71 -2.9,-1.07 l -1.42,-0.52 c -1.09,-0.38 -2.3,-0.73 -3.43,-1.09 -1.19,-0.38 -2.35,-0.77 -3.59,-1.14 -1.77,-0.53 -3.65,-1.04 -5.53,-1.55 -1.23,-0.33 -2.42,-0.68 -3.7,-1 -2.18,-0.56 -4.48,-1.08 -6.78,-1.61 -1.12,-0.26 -2.18,-0.52 -3.33,-0.77 -3.5,-0.76 -7.14,-1.5 -10.93,-2.2 l -0.06,-0.01 H 3446 c -15.85,-2.93 -34.24,-5.32 -55.17,-7.11 -4.59,-0.39 -9.26,-0.75 -14.01,-1.08 l -1.35,-0.07 c -6.94,-0.47 -14.02,-0.87 -21.26,-1.2 -1.66,-0.08 -3.37,-0.13 -5.04,-0.2 -5.77,-0.24 -11.63,-0.44 -17.58,-0.59 -2.35,-0.07 -4.71,-0.12 -7.08,-0.17 -5.99,-0.12 -12.06,-0.2 -18.21,-0.24 -1.8,-0.01 -3.57,-0.04 -5.39,-0.05 -1.33,0 -2.67,0 -4.01,0 m -671.11,240.72 -1.03,-0.05 1.01,0.04 0.02,0.01 m -512.29,15.44 -0.01,-0.16 0.02,-0.21 0.01,0.16 -0.02,0.21"
        transform="matrix(6.5436461e-4,0,0,-0.0023245,-1.3080094,3.5218504)" id="path640" />
    </clipPath>
    <clipPath clipPathUnits="userSpaceOnUse" id="clipPath641">
      <path d="m 2113.51,1342.8 -0.02,0.21 0.01,0.16 0.02,-0.21 -0.01,-0.16"
        transform="matrix(0.12194839,0,0,-0.12195196,-257.29891,164.28148)" id="path641" />
    </clipPath>
    <clipPath clipPathUnits="userSpaceOnUse" id="clipPath642">
      <path
        d="m 2010.2,1335.2 c -4.84,8.46 -7.25,17.02 -7.22,25.56 0.01,0.86 0.04,1.73 0.1,2.6 4.81,-7.9 7.25,-15.9 7.33,-23.91 0,-1.42 -0.06,-2.83 -0.21,-4.25"
        transform="matrix(0.07575758,0,0,-0.02923985,-151.43182,39.944559)" id="path642" />
    </clipPath>
    <clipPath clipPathUnits="userSpaceOnUse" id="clipPath536">
      <path
        d="m 4156.26,1516.72 c -0.59,0 -1.19,0.01 -1.78,0.02 -0.58,0.01 -1.16,0.01 -1.74,0.01 -0.04,0 -0.08,0 -0.12,0 -0.9,0 -1.8,0 -2.7,0 -27.16,0 -54.36,0.59 -81.39,1.76 -1.25,0.05 -2.51,0.07 -3.76,0.12 l -2.1,0.12 c -12.06,0.56 -24.07,1.25 -36.03,2.05 -2.58,0.17 -5.14,0.36 -7.71,0.54 -12.26,0.87 -24.47,1.82 -36.56,2.94 l -0.1,0.01 -0.37,0.04 c -12.09,1.12 -24.05,2.4 -35.92,3.77 -2.4,0.28 -4.8,0.55 -7.19,0.84 -11.58,1.39 -23.04,2.89 -34.35,4.52 l -2.39,0.32 c -1.12,0.16 -2.19,0.37 -3.32,0.54 -13.32,1.97 -26.46,4.08 -39.34,6.39 -1.18,0.21 -2.33,0.44 -3.5,0.66 -13.46,2.45 -26.7,5.06 -39.57,7.88 h -0.02 c -14.66,3.22 -28.91,6.67 -42.69,10.36 -117.51,31.49 -177.04,74.02 -176.71,116.26 v -0.01 c 0.46,36.99 46.81,73.72 140.36,102.6 103.32,31.88 243.97,47.94 386.27,47.94 133.91,0 269.29,-14.23 376.24,-42.89 118.42,-31.73 177.94,-73.59 176.65,-116.15 l 0.02,-0.1 0.02,0.22 c -0.02,-2.9 -0.35,-5.8 -0.95,-8.7 l -0.04,-0.35 c -0.52,-2.47 -1.31,-4.93 -2.25,-7.39 l -0.52,-1.23 c -0.94,-2.31 -2.07,-4.62 -3.38,-6.92 l -0.6,-1.05 c -1.58,-2.67 -3.32,-5.33 -5.4,-7.97 l -0.39,-0.45 -1.7,-1.98 c -1.24,-1.46 -2.51,-2.91 -3.89,-4.36 l -2.38,-2.36 c -1.35,-1.32 -2.74,-2.64 -4.21,-3.95 -0.92,-0.82 -1.86,-1.63 -2.83,-2.44 -1.53,-1.29 -3.14,-2.57 -4.79,-3.85 -1.03,-0.8 -2.06,-1.59 -3.14,-2.38 l -1.54,-1.17 c -1.17,-0.84 -2.49,-1.67 -3.72,-2.51 -1.29,-0.88 -2.56,-1.76 -3.91,-2.63 -1.93,-1.24 -3.98,-2.47 -6.04,-3.71 -1.35,-0.81 -2.65,-1.62 -4.05,-2.43 -2.38,-1.37 -4.91,-2.71 -7.44,-4.06 -1.24,-0.66 -2.4,-1.32 -3.66,-1.97 -3.86,-1.98 -7.87,-3.94 -12.07,-5.88 l -0.07,-0.04 h -0.01 c -17.53,-8.1 -38,-15.82 -61.43,-23.05 -5.14,-1.59 -10.38,-3.14 -15.7,-4.65 l -1.52,-0.4 c -7.78,-2.19 -15.74,-4.3 -23.88,-6.32 -1.87,-0.46 -3.79,-0.89 -5.67,-1.34 -6.5,-1.57 -13.1,-3.09 -19.8,-4.56 -2.66,-0.58 -5.32,-1.14 -8,-1.71 -6.76,-1.41 -13.61,-2.78 -20.56,-4.09 -2.04,-0.39 -4.04,-0.79 -6.09,-1.17 -8.88,-1.63 -17.9,-3.17 -27.05,-4.63 -2.16,-0.35 -4.37,-0.67 -6.55,-1 -7.22,-1.12 -14.5,-2.18 -21.86,-3.19 -2.94,-0.41 -5.89,-0.8 -8.86,-1.19 -7.53,-0.99 -15.13,-1.92 -22.8,-2.8 -2.12,-0.24 -4.22,-0.5 -6.35,-0.74 -9.69,-1.07 -19.48,-2.05 -29.34,-2.95 -2.36,-0.22 -4.74,-0.4 -7.1,-0.61 -7.74,-0.67 -15.51,-1.29 -23.33,-1.86 -1.61,-0.11 -3.18,-0.27 -4.78,-0.38 l -2.64,-0.14 c -18.3,-1.25 -36.79,-2.23 -55.43,-2.92 l -2.6,-0.11 c -19.28,-0.68 -38.69,-1.05 -58.15,-1.14 l -1.6,-0.03 c -0.04,0 -0.09,0 -0.13,0 m 63.46,125.95 -1.03,-0.05 1.01,0.05 h 0.02 m -156.09,0.75 h 0.01 c 1.48,-0.07 2.97,-0.13 4.45,-0.19 -1.49,0.06 -2.98,0.12 -4.46,0.19 m -466.74,32.06 -0.01,0.17 0.02,0.21 c 0,-0.13 -0.01,-0.25 -0.01,-0.38"
        transform="matrix(9.1894874e-4,0,0,-0.00317259,-3.3016909,5.8061549)" id="path536" />
    </clipPath>
    <clipPath clipPathUnits="userSpaceOnUse" id="clipPath435">
      <path
        d="m 982.781,1748.31 c -0.578,0 -1.152,0.01 -1.73,0.02 -0.571,0.01 -1.141,0.02 -1.711,0.02 -0.039,0 -0.078,0 -0.117,0 -0.926,-0.01 -1.852,-0.01 -2.778,-0.01 -27.132,0 -54.312,0.59 -81.316,1.76 -1.25,0.05 -2.508,0.07 -3.758,0.12 l -2.094,0.12 c -12.066,0.57 -24.074,1.25 -36.035,2.05 -2.578,0.17 -5.14,0.36 -7.711,0.54 -12.261,0.87 -24.472,1.82 -36.562,2.94 l -0.098,0.01 -0.367,0.04 c -12.09,1.12 -24.047,2.41 -35.922,3.78 -2.398,0.27 -4.801,0.54 -7.191,0.83 -11.578,1.39 -23.036,2.89 -34.352,4.52 l -2.383,0.32 c -1.129,0.16 -2.195,0.37 -3.32,0.54 -13.32,1.97 -26.469,4.08 -39.34,6.39 -1.183,0.21 -2.332,0.44 -3.508,0.66 -13.461,2.45 -26.695,5.06 -39.57,7.88 h -0.02 c -14.656,3.22 -28.906,6.67 -42.683,10.36 -117.508,31.49 -177.039,74.02 -176.715,116.26 v -0.01 c 0.457,36.98 46.816,73.72 140.363,102.6 103.321,31.88 243.965,47.94 386.27,47.94 133.907,0 269.287,-14.23 376.237,-42.89 118.42,-31.73 177.94,-73.59 176.66,-116.15 l 0.02,-0.1 0.01,0.22 c -0.02,-2.9 -0.35,-5.8 -0.95,-8.7 l -0.03,-0.35 c -0.53,-2.47 -1.32,-4.93 -2.25,-7.39 l -0.52,-1.22 c -0.95,-2.32 -2.08,-4.62 -3.39,-6.92 l -0.6,-1.06 c -1.58,-2.67 -3.32,-5.33 -5.4,-7.97 l -0.39,-0.45 -1.7,-1.98 c -1.23,-1.45 -2.5,-2.91 -3.89,-4.36 l -2.38,-2.36 c -1.35,-1.32 -2.74,-2.64 -4.21,-3.95 -0.91,-0.82 -1.86,-1.63 -2.83,-2.44 -1.53,-1.29 -3.13,-2.57 -4.79,-3.85 -1.03,-0.8 -2.06,-1.59 -3.13,-2.38 l -1.54,-1.17 c -1.18,-0.84 -2.5,-1.67 -3.73,-2.51 -1.29,-0.87 -2.55,-1.75 -3.91,-2.63 -1.93,-1.24 -3.98,-2.47 -6.04,-3.71 -1.35,-0.81 -2.65,-1.62 -4.05,-2.43 -2.38,-1.36 -4.91,-2.71 -7.44,-4.06 -1.23,-0.65 -2.39,-1.32 -3.66,-1.97 -3.86,-1.98 -7.87,-3.94 -12.07,-5.88 l -0.07,-0.03 -0.01,-0.01 c -17.53,-8.1 -38,-15.82 -61.43,-23.05 -5.14,-1.59 -10.38,-3.14 -15.7,-4.65 l -1.52,-0.4 c -7.78,-2.19 -15.74,-4.29 -23.88,-6.31 -1.86,-0.47 -3.79,-0.9 -5.67,-1.35 -6.5,-1.57 -13.1,-3.09 -19.8,-4.56 -2.65,-0.57 -5.32,-1.14 -8,-1.71 -6.76,-1.41 -13.61,-2.78 -20.56,-4.09 -2.04,-0.38 -4.03,-0.79 -6.09,-1.17 -8.88,-1.63 -17.9,-3.17 -27.05,-4.63 -2.16,-0.35 -4.37,-0.66 -6.55,-1 -7.22,-1.12 -14.5,-2.18 -21.86,-3.19 -2.94,-0.41 -5.89,-0.8 -8.86,-1.19 -7.53,-0.99 -15.13,-1.92 -22.8,-2.79 -2.12,-0.25 -4.21,-0.51 -6.34,-0.75 -9.7,-1.07 -19.48,-2.05 -29.35,-2.95 -2.36,-0.21 -4.74,-0.4 -7.1,-0.6 -7.73,-0.68 -15.51,-1.3 -23.33,-1.87 -1.61,-0.11 -3.18,-0.27 -4.78,-0.38 l -2.64,-0.14 c -18.3,-1.25 -36.79,-2.23 -55.43,-2.92 l -2.59,-0.1 c -19.29,-0.69 -38.7,-1.06 -58.16,-1.15 l -1.602,-0.03 c -0.066,0 -0.136,0 -0.207,0 m -559.285,158.76 -0.012,0.17 0.016,0.21 c -0.004,-0.13 -0.004,-0.25 -0.004,-0.38"
        transform="matrix(9.1894874e-4,0,0,-0.00316256,-0.38586658,6.5215054)" id="path435" />
    </clipPath>
    <clipPath clipPathUnits="userSpaceOnUse" id="clipPath637-9">
      <path d="m 3082.51,1352.32 v 0.03 l 0.02,0.19 -0.02,-0.22"
        transform="matrix(0.12194825,0,0,-0.12195196,-375.46645,165.37905)" id="path637-4" />
    </clipPath>
    <clipPath clipPathUnits="userSpaceOnUse" id="clipPath638-9">
      <path d="m 2002.96,1360.54 -0.01,0.17 0.02,0.21 0.01,-0.16 -0.02,-0.22"
        transform="matrix(0.12195196,0,0,-0.10869624,-243.76977,148.38124)" id="path638-0" />
    </clipPath>
    <clipPath clipPathUnits="userSpaceOnUse" id="clipPath639-9">
      <path d="m 3520.48,1136.29 v 0.01 l 0.03,0.11 -0.03,-0.12"
        transform="matrix(0.12194825,0,0,-0.12195196,-428.87978,139.03742)" id="path639-1" />
    </clipPath>
    <clipPath clipPathUnits="userSpaceOnUse" id="clipPath640-7">
      <path
        d="m 3296.9,1087.01 c -6.55,0 -13.18,0.04 -19.88,0.13 -1.92,0.02 -3.86,0.07 -5.79,0.1 -6.36,0.11 -12.78,0.25 -19.27,0.43 -2.59,0.07 -5.19,0.15 -7.8,0.23 -6.63,0.22 -13.32,0.47 -20.07,0.76 -1.86,0.08 -3.7,0.15 -5.58,0.23 -8.52,0.4 -17.12,0.85 -25.78,1.36 -2.06,0.13 -4.15,0.27 -6.23,0.4 -6.78,0.42 -13.6,0.87 -20.46,1.36 -1.4,0.1 -2.78,0.18 -4.19,0.28 l -2.31,0.2 c -16.03,1.19 -32.2,2.57 -48.49,4.13 l -2.27,0.21 c -16.85,1.63 -33.79,3.46 -50.75,5.47 l -1.4,0.15 c -1.09,0.13 -2.18,0.28 -3.28,0.42 -24.44,2.94 -48.89,6.25 -73.14,9.91 -1.08,0.16 -2.18,0.31 -3.26,0.47 l -1.82,0.29 c -10.47,1.61 -20.89,3.28 -31.25,5.01 -2.23,0.38 -4.45,0.76 -6.68,1.14 -10.62,1.8 -21.19,3.66 -31.64,5.59 l -0.09,0.02 -0.31,0.06 c -10.46,1.93 -20.78,3.96 -31.03,6.02 -2.07,0.41 -4.14,0.83 -6.21,1.25 -9.98,2.04 -19.86,4.14 -29.6,6.29 l -2.06,0.44 c -0.97,0.21 -1.88,0.45 -2.85,0.67 -11.46,2.57 -22.77,5.2 -33.81,7.92 -1.02,0.25 -2.01,0.51 -3.02,0.76 -11.55,2.87 -22.89,5.8 -33.91,8.83 h -0.01 c -12.54,3.44 -24.71,6.98 -36.45,10.61 -38.37,11.87 -69.13,23.79 -92.38,35.38 -3.02,-0.12 -5.99,-0.36 -9.02,-0.47 l -2.6,-0.11 c -19.28,-0.68 -38.69,-1.06 -58.15,-1.14 l -1.61,-0.03 c -0.03,0 -0.07,0 -0.11,0 -0.61,0 -1.22,0.01 -1.82,0.02 -0.57,0 -1.14,0.01 -1.71,0.01 -0.04,0 -0.08,0 -0.12,0 -0.93,0 -1.85,0 -2.78,0 -27.13,0 -54.31,0.59 -81.31,1.76 -1.25,0.05 -2.51,0.06 -3.76,0.12 l -2.1,0.12 c -12.06,0.56 -24.07,1.25 -36.03,2.05 -2.58,0.17 -5.14,0.36 -7.71,0.54 -12.26,0.87 -24.47,1.82 -36.56,2.94 l -0.1,0.01 -0.37,0.03 c -12.09,1.13 -24.05,2.41 -35.92,3.78 -2.4,0.28 -4.8,0.55 -7.19,0.84 -11.58,1.39 -23.04,2.89 -34.35,4.52 l -2.39,0.31 c -1.13,0.17 -2.19,0.38 -3.32,0.54 -13.32,1.98 -26.46,4.09 -39.34,6.4 -1.18,0.21 -2.33,0.44 -3.51,0.66 -13.45,2.45 -26.69,5.06 -39.57,7.88 h -0.01 c -14.66,3.22 -28.91,6.67 -42.69,10.36 -93.59,25.08 -150.4,57.16 -169.48,90.53 0.15,1.42 0.21,2.83 0.21,4.25 -0.08,8.01 -2.52,16.01 -7.33,23.91 2.43,36.16 48.76,71.92 140.25,100.15 103.32,31.89 243.97,47.95 386.27,47.95 133.91,0 269.29,-14.23 376.24,-42.89 118.42,-31.73 177.94,-73.59 176.65,-116.15 l 0.02,-0.07 c -0.04,-2.84 -0.35,-5.68 -0.93,-8.51 l -0.04,-0.35 c -0.52,-2.47 -1.31,-4.93 -2.25,-7.39 l -0.52,-1.23 c -0.94,-2.31 -2.07,-4.62 -3.38,-6.92 l -0.6,-1.05 c -1.59,-2.67 -3.32,-5.33 -5.4,-7.97 l -0.39,-0.45 -1.7,-1.98 c -1.24,-1.46 -2.51,-2.91 -3.89,-4.36 l -2.39,-2.37 c -1.34,-1.32 -2.73,-2.63 -4.2,-3.94 -0.92,-0.82 -1.86,-1.63 -2.83,-2.44 -1.53,-1.29 -3.14,-2.58 -4.8,-3.85 -1.03,-0.8 -2.05,-1.59 -3.13,-2.38 l -1.54,-1.17 c -1.17,-0.84 -2.49,-1.67 -3.72,-2.51 -1.29,-0.88 -2.56,-1.76 -3.91,-2.63 l -1.1,-0.68 c 121.39,-13.99 244.19,-37.35 339.07,-66.7 100.91,-31.21 149.77,-62.17 145.61,-87.12 l 0.01,-0.05 c -0.24,-1.67 -0.71,-3.31 -1.42,-4.92 l -0.06,-0.2 c -0.63,-1.4 -1.5,-2.77 -2.49,-4.12 l -0.54,-0.67 c -0.98,-1.26 -2.13,-2.5 -3.44,-3.72 l -0.59,-0.56 c -1.58,-1.4 -3.28,-2.79 -5.28,-4.12 l -0.37,-0.23 -1.63,-0.99 c -1.18,-0.73 -2.39,-1.45 -3.7,-2.16 l -2.24,-1.14 c -1.27,-0.64 -2.57,-1.26 -3.95,-1.88 l -2.64,-1.14 c -1.43,-0.6 -2.91,-1.19 -4.45,-1.77 -0.95,-0.36 -1.9,-0.71 -2.9,-1.07 l -1.42,-0.52 c -1.09,-0.38 -2.3,-0.73 -3.43,-1.09 -1.19,-0.38 -2.35,-0.77 -3.59,-1.14 -1.77,-0.53 -3.65,-1.04 -5.53,-1.55 -1.23,-0.33 -2.42,-0.68 -3.7,-1 -2.18,-0.56 -4.48,-1.08 -6.78,-1.61 -1.12,-0.26 -2.18,-0.52 -3.33,-0.77 -3.5,-0.76 -7.14,-1.5 -10.93,-2.2 l -0.06,-0.01 H 3446 c -15.85,-2.93 -34.24,-5.32 -55.17,-7.11 -4.59,-0.39 -9.26,-0.75 -14.01,-1.08 l -1.35,-0.07 c -6.94,-0.47 -14.02,-0.87 -21.26,-1.2 -1.66,-0.08 -3.37,-0.13 -5.04,-0.2 -5.77,-0.24 -11.63,-0.44 -17.58,-0.59 -2.35,-0.07 -4.71,-0.12 -7.08,-0.17 -5.99,-0.12 -12.06,-0.2 -18.21,-0.24 -1.8,-0.01 -3.57,-0.04 -5.39,-0.05 -1.33,0 -2.67,0 -4.01,0 m -671.11,240.72 -1.03,-0.05 1.01,0.04 0.02,0.01 m -512.29,15.44 -0.01,-0.16 0.02,-0.21 0.01,0.16 -0.02,0.21"
        transform="matrix(6.5436461e-4,0,0,-0.0023245,-1.3080094,3.5218504)" id="path640-7" />
    </clipPath>
    <clipPath clipPathUnits="userSpaceOnUse" id="clipPath641-1">
      <path d="m 2113.51,1342.8 -0.02,0.21 0.01,0.16 0.02,-0.21 -0.01,-0.16"
        transform="matrix(0.12194839,0,0,-0.12195196,-257.29891,164.28148)" id="path641-1" />
    </clipPath>
    <clipPath clipPathUnits="userSpaceOnUse" id="clipPath642-5">
      <path
        d="m 2010.2,1335.2 c -4.84,8.46 -7.25,17.02 -7.22,25.56 0.01,0.86 0.04,1.73 0.1,2.6 4.81,-7.9 7.25,-15.9 7.33,-23.91 0,-1.42 -0.06,-2.83 -0.21,-4.25"
        transform="matrix(0.07575758,0,0,-0.02923985,-151.43182,39.944559)" id="path642-9" />
    </clipPath>
    <filter style="color-interpolation-filters:sRGB" inkscape:label="Brilliance" id="filter760"
      x="0" y="0" width="1" height="0.9986054">
      <feColorMatrix type="hueRotate" values="7" result="color1" id="feColorMatrix759" />
      <feColorMatrix type="saturate" values="1" result="fbSourceGraphic" id="feColorMatrix760" />
      <feColorMatrix result="fbSourceGraphicAlpha" in="fbSourceGraphic"
        values="0 0 0 -1 0 0 0 0 -1 0 0 0 0 -1 0 0 0 0 1 0" id="feColorMatrix790" />
      <feColorMatrix id="feColorMatrix791"
        values="1 -0 -0 0 0.1 -0 1 -0 0 0.1 -0 -0 1 0 0.1 0 0 0 1 0 " in="fbSourceGraphic" />
    </filter>
    <clipPath clipPathUnits="userSpaceOnUse" id="clipPath69">
      <path
        d="m 1755.99,2458.1 c -0.59,0 -1.19,0.01 -1.79,0.01 -0.57,0.01 -1.15,0.02 -1.73,0.02 -0.04,0 -0.08,0 -0.12,0 -0.9,0 -1.8,0 -2.7,0 -27.16,0 -54.36,0.58 -81.39,1.76 -1.25,0.05 -2.51,0.06 -3.76,0.12 l -2.1,0.12 c -12.06,0.56 -24.07,1.25 -36.03,2.05 -2.58,0.17 -5.14,0.36 -7.71,0.54 -12.26,0.87 -24.47,1.82 -36.56,2.94 h -0.1 l -0.37,0.04 c -12.09,1.13 -24.05,2.41 -35.92,3.78 -2.4,0.28 -4.8,0.55 -7.19,0.83 -11.58,1.4 -23.04,2.9 -34.35,4.53 l -2.39,0.31 c -1.13,0.17 -2.19,0.38 -3.32,0.54 -13.32,1.98 -26.46,4.09 -39.34,6.4 -1.18,0.21 -2.33,0.44 -3.51,0.66 -13.46,2.45 -26.69,5.05 -39.57,7.88 h -0.01 c -14.66,3.21 -28.91,6.67 -42.69,10.36 -117.51,31.48 -177.04,74.02 -176.71,116.25 v 0 c 0.46,36.98 46.81,73.72 140.36,102.59 103.32,31.89 243.97,47.95 386.27,47.95 133.91,0 269.29,-14.23 376.24,-42.89 118.42,-31.73 177.94,-73.59 176.65,-116.15 l 0.02,-0.1 0.02,0.22 c -0.02,-2.9 -0.36,-5.81 -0.95,-8.7 l -0.04,-0.35 c -0.52,-2.47 -1.31,-4.93 -2.25,-7.39 l -0.52,-1.23 c -0.94,-2.31 -2.07,-4.62 -3.38,-6.92 l -0.6,-1.05 c -1.59,-2.67 -3.33,-5.33 -5.4,-7.97 l -0.39,-0.45 -1.7,-1.98 c -1.24,-1.46 -2.51,-2.92 -3.89,-4.36 l -2.39,-2.37 c -1.34,-1.32 -2.73,-2.63 -4.2,-3.94 -0.92,-0.82 -1.86,-1.63 -2.83,-2.44 -1.53,-1.29 -3.14,-2.58 -4.8,-3.86 -1.03,-0.79 -2.05,-1.58 -3.13,-2.37 l -1.54,-1.17 c -1.17,-0.85 -2.49,-1.67 -3.72,-2.51 -1.29,-0.88 -2.56,-1.76 -3.91,-2.63 -1.93,-1.25 -3.98,-2.48 -6.04,-3.71 -1.35,-0.81 -2.65,-1.63 -4.05,-2.43 -2.39,-1.37 -4.91,-2.72 -7.45,-4.06 -1.23,-0.66 -2.39,-1.32 -3.66,-1.97 -3.86,-1.98 -7.87,-3.95 -12.06,-5.89 l -0.07,-0.03 h -0.01 c -17.53,-8.1 -38,-15.83 -61.43,-23.06 -5.14,-1.59 -10.38,-3.13 -15.7,-4.64 l -1.52,-0.4 c -7.78,-2.19 -15.74,-4.3 -23.88,-6.32 -1.87,-0.46 -3.79,-0.89 -5.68,-1.35 -6.5,-1.57 -13.09,-3.09 -19.8,-4.55 -2.65,-0.58 -5.31,-1.15 -7.99,-1.71 -6.76,-1.42 -13.62,-2.78 -20.56,-4.09 -2.04,-0.39 -4.04,-0.8 -6.09,-1.17 -8.88,-1.63 -17.9,-3.18 -27.05,-4.64 -2.16,-0.34 -4.38,-0.66 -6.56,-1 -7.21,-1.11 -14.49,-2.18 -21.85,-3.19 -2.95,-0.4 -5.89,-0.8 -8.86,-1.19 -7.54,-0.98 -15.14,-1.91 -22.8,-2.79 -2.12,-0.24 -4.22,-0.51 -6.35,-0.74 -9.69,-1.07 -19.48,-2.05 -29.35,-2.95 -2.35,-0.22 -4.73,-0.4 -7.09,-0.61 -7.74,-0.67 -15.51,-1.29 -23.34,-1.86 -1.6,-0.12 -3.17,-0.27 -4.78,-0.38 l -2.64,-0.14 c -18.29,-1.25 -36.78,-2.23 -55.42,-2.92 l -2.6,-0.11 c -19.28,-0.68 -38.69,-1.06 -58.15,-1.14 l -1.61,-0.03 c -0.04,0 -0.08,0 -0.12,0 m 63.46,125.95 -1.03,-0.05 1.01,0.04 0.02,0.01 m -156.1,0.75 0.02,-0.01 c 1.48,-0.06 2.96,-0.12 4.45,-0.18 -1.49,0.06 -2.98,0.12 -4.47,0.19 m -466.73,32.06 -0.01,0.16 0.02,0.22 c -0.01,-0.13 -0.01,-0.26 -0.01,-0.38"
        transform="matrix(9.1894874e-4,0,0,-0.00317259,-1.0962139,8.7915608)" id="path69" />
    </clipPath>
    <clipPath clipPathUnits="userSpaceOnUse" id="clipPath331">
      <path
        d="m 2573.85,2031.28 c -0.06,0 -0.13,0 -0.2,0 l -1.61,0.03 c -19.46,0.09 -38.87,0.46 -58.15,1.14 l -2.6,0.11 c -18.64,0.69 -37.13,1.67 -55.42,2.92 l -2.64,0.14 c -1.61,0.11 -3.18,0.27 -4.78,0.38 -7.83,0.57 -15.6,1.19 -23.33,1.86 -2.37,0.21 -4.75,0.4 -7.1,0.61 -9.87,0.9 -19.66,1.88 -29.35,2.95 -2.13,0.24 -4.23,0.5 -6.35,0.74 -7.66,0.88 -15.26,1.81 -22.8,2.8 -2.96,0.39 -5.91,0.78 -8.86,1.19 -7.36,1.01 -14.64,2.07 -21.85,3.19 -2.18,0.33 -4.39,0.65 -6.56,1 -9.15,1.46 -18.17,3 -27.05,4.63 -2.05,0.38 -4.05,0.78 -6.09,1.17 -6.94,1.31 -13.8,2.68 -20.56,4.09 -2.68,0.56 -5.34,1.13 -7.99,1.71 -6.71,1.47 -13.3,2.99 -19.8,4.55 -1.89,0.46 -3.81,0.89 -5.68,1.35 -8.14,2.03 -16.1,4.13 -23.88,6.32 l -1.52,0.4 c -5.32,1.51 -10.55,3.06 -15.7,4.64 -23.42,7.24 -43.9,14.96 -61.43,23.06 h -0.01 l -0.07,0.04 c -4.19,1.94 -8.2,3.9 -12.06,5.88 -1.27,0.65 -2.43,1.31 -3.66,1.97 -2.54,1.35 -5.06,2.69 -7.45,4.06 -1.4,0.8 -2.7,1.62 -4.05,2.43 -2.05,1.23 -4.11,2.47 -6.04,3.71 -1.35,0.87 -2.61,1.76 -3.91,2.63 -1.23,0.84 -2.55,1.67 -3.72,2.51 l -1.54,1.17 c -1.08,0.79 -2.1,1.58 -3.13,2.38 -1.66,1.28 -3.26,2.56 -4.8,3.85 -0.96,0.81 -1.91,1.62 -2.83,2.44 -1.47,1.31 -2.86,2.63 -4.2,3.94 l -2.38,2.37 c -1.39,1.45 -2.66,2.9 -3.9,4.36 l -1.7,1.98 -0.38,0.45 c -2.08,2.64 -3.82,5.3 -5.41,7.97 l -0.6,1.05 c -1.31,2.3 -2.44,4.61 -3.38,6.92 l -0.52,1.23 c -0.93,2.46 -1.73,4.92 -2.25,7.39 l -0.04,0.35 c -0.59,2.9 -0.93,5.8 -0.95,8.7 l 0.02,-0.22 0.02,0.1 c -1.29,42.56 58.23,84.42 176.65,116.15 106.97,28.66 242.32,42.89 376.24,42.89 142.29,0 282.96,-16.06 386.27,-47.95 93.55,-28.87 139.91,-65.61 140.37,-102.59 v 0.01 c 0.32,-42.24 -59.21,-84.77 -176.72,-116.26 -13.78,-3.69 -28.03,-7.14 -42.69,-10.36 h -0.01 c -12.88,-2.82 -26.11,-5.43 -39.57,-7.88 -1.18,-0.22 -2.33,-0.45 -3.51,-0.66 -12.87,-2.31 -26.02,-4.42 -39.34,-6.39 -1.12,-0.17 -2.19,-0.38 -3.32,-0.55 l -2.38,-0.31 c -11.32,-1.63 -22.78,-3.13 -34.36,-4.52 -2.39,-0.29 -4.79,-0.56 -7.19,-0.84 -11.87,-1.37 -23.83,-2.65 -35.92,-3.77 l -0.37,-0.04 -0.1,-0.01 c -12.09,-1.12 -24.3,-2.07 -36.56,-2.94 -2.57,-0.18 -5.13,-0.37 -7.71,-0.54 -11.96,-0.8 -23.97,-1.49 -36.03,-2.05 l -2.1,-0.12 c -1.25,-0.05 -2.51,-0.07 -3.76,-0.12 -27,-1.17 -54.18,-1.76 -81.31,-1.76 -0.93,0 -1.85,0 -2.78,0 -0.04,0 -0.08,0 -0.12,0 -0.56,0 -1.12,0 -1.68,-0.01 -0.58,-0.01 -1.17,-0.02 -1.76,-0.02 m -63.53,125.95 h 0.01 l 1.01,-0.04 -1.02,0.04 m 622.82,32.81 c 0,0.13 0,0.25 0,0.38 l 0.01,-0.21 -0.01,-0.17"
        transform="matrix(9.2064074e-4,0,0,-0.00316256,-1.8872215,7.4165085)" id="path331" />
    </clipPath>
    <filter style="color-interpolation-filters:sRGB" inkscape:label="Brilliance" id="filter804"
      x="0" y="0" width="1" height="0.99841048">
      <feColorMatrix type="hueRotate" values="9" result="color1" id="feColorMatrix803" />
      <feColorMatrix type="saturate" values="1" result="fbSourceGraphic" id="feColorMatrix804" />
      <feColorMatrix result="fbSourceGraphicAlpha" in="fbSourceGraphic"
        values="0 0 0 -1 0 0 0 0 -1 0 0 0 0 -1 0 0 0 0 1 0" id="feColorMatrix813" />
      <feColorMatrix id="feColorMatrix814"
        values="1 -0 -0 0 0.1 -0 1 -0 0 0.1 -0 -0 1 0 0.1 0 0 0 1 0 " in="fbSourceGraphic" />
    </filter>
    <clipPath clipPathUnits="userSpaceOnUse" id="clipPath230">
      <path
        d="m 3361.49,2467.63 c -0.07,0 -0.14,0 -0.21,0 l -1.6,0.03 c -19.46,0.08 -38.87,0.46 -58.15,1.14 l -2.6,0.11 c -18.64,0.69 -37.13,1.67 -55.43,2.92 l -2.64,0.14 c -1.6,0.11 -3.17,0.26 -4.78,0.38 -7.82,0.57 -15.59,1.19 -23.33,1.86 -2.36,0.21 -4.74,0.39 -7.1,0.6 -9.87,0.91 -19.65,1.89 -29.34,2.96 -2.13,0.23 -4.23,0.5 -6.35,0.74 -7.67,0.88 -15.27,1.81 -22.8,2.79 -2.97,0.39 -5.92,0.79 -8.86,1.19 -7.36,1.01 -14.64,2.08 -21.86,3.19 -2.18,0.34 -4.39,0.66 -6.55,1 -9.15,1.46 -18.17,3.01 -27.05,4.64 -2.05,0.37 -4.05,0.78 -6.09,1.16 -6.95,1.32 -13.8,2.68 -20.56,4.1 -2.68,0.56 -5.34,1.13 -8,1.71 -6.7,1.46 -13.3,2.98 -19.8,4.55 -1.88,0.46 -3.8,0.89 -5.67,1.35 -8.14,2.02 -16.1,4.13 -23.88,6.32 l -1.52,0.4 c -5.32,1.51 -10.56,3.05 -15.7,4.64 -23.43,7.23 -43.9,14.96 -61.43,23.05 l -0.01,0.01 -0.07,0.03 c -4.2,1.94 -8.21,3.91 -12.07,5.89 -1.26,0.65 -2.42,1.31 -3.66,1.96 -2.53,1.35 -5.06,2.7 -7.44,4.06 -1.4,0.81 -2.7,1.63 -4.05,2.44 -2.06,1.23 -4.11,2.46 -6.04,3.71 -1.35,0.87 -2.62,1.75 -3.91,2.63 -1.23,0.84 -2.55,1.66 -3.72,2.51 l -1.54,1.17 c -1.08,0.79 -2.11,1.58 -3.14,2.37 -1.65,1.28 -3.26,2.56 -4.79,3.86 -0.97,0.81 -1.91,1.62 -2.83,2.43 -1.47,1.31 -2.86,2.63 -4.21,3.95 l -2.38,2.37 c -1.38,1.44 -2.65,2.9 -3.89,4.36 l -1.7,1.97 -0.39,0.46 c -2.08,2.64 -3.82,5.3 -5.4,7.96 l -0.6,1.06 c -1.31,2.3 -2.44,4.61 -3.38,6.92 l -0.52,1.23 c -0.94,2.46 -1.73,4.92 -2.25,7.39 l -0.04,0.35 c -0.6,2.89 -0.93,5.79 -0.95,8.7 l 0.02,-0.22 0.02,0.1 c -1.29,42.56 58.23,84.42 176.65,116.15 106.96,28.66 242.32,42.89 376.24,42.89 142.29,0 282.96,-16.07 386.27,-47.95 93.55,-28.87 139.9,-65.61 140.36,-102.6 v 0.01 c 0.33,-42.23 -59.2,-84.77 -176.71,-116.25 -13.78,-3.69 -28.03,-7.15 -42.69,-10.36 h -0.02 c -12.87,-2.83 -26.11,-5.43 -39.57,-7.89 -1.17,-0.21 -2.32,-0.44 -3.5,-0.65 -12.88,-2.31 -26.02,-4.42 -39.34,-6.4 -1.13,-0.17 -2.2,-0.37 -3.32,-0.54 l -2.39,-0.31 c -11.31,-1.63 -22.77,-3.14 -34.35,-4.53 -2.39,-0.28 -4.79,-0.55 -7.19,-0.83 -11.87,-1.37 -23.83,-2.66 -35.92,-3.78 l -0.37,-0.04 h -0.1 c -12.09,-1.12 -24.3,-2.07 -36.56,-2.94 -2.57,-0.19 -5.13,-0.37 -7.71,-0.54 -11.96,-0.8 -23.97,-1.49 -36.04,-2.05 l -2.09,-0.12 c -1.25,-0.06 -2.51,-0.07 -3.76,-0.13 -27,-1.17 -54.18,-1.75 -81.31,-1.75 -0.93,0 -1.86,0 -2.78,0 -0.04,0 -0.08,0 -0.12,0 -0.56,0 -1.12,-0.01 -1.68,-0.02 -0.59,0 -1.17,-0.01 -1.76,-0.01 m 91.16,126.63 v 0 0 m 1.39,0.06 c -0.45,-0.02 -0.9,-0.04 -1.35,-0.06 0.44,0.02 0.89,0.04 1.34,0.06 h 0.01 m 466.74,32.07 c 0,0.12 -0.01,0.25 -0.01,0.37 l 0.02,-0.21 -0.01,-0.16"
        transform="matrix(9.2148915e-4,0,0,-0.00317259,-2.6150941,8.8232868)" id="path230" />
    </clipPath>
  </defs>
  <g inkscape:label="Small" inkscape:groupmode="layer" id="layer1" style="display:inline">
    <path id="path643"
      d="m 179.40981,154.84693 c -0.003,0.35741 -0.0447,0.71617 -0.11778,1.07357 -0.0637,0.31273 -0.1611,0.62681 -0.28024,0.93819 l -0.0893,0.21254 c -0.11101,0.26129 -0.23962,0.52258 -0.38854,0.78251 l -0.10559,0.18682 c -0.19631,0.3222 -0.41563,0.64442 -0.67014,0.96256 l -0.20578,0.23962 c -0.15027,0.1787 -0.30732,0.35741 -0.47654,0.53476 l -0.28972,0.287 c -0.1638,0.16111 -0.33438,0.32221 -0.51444,0.48196 l -0.34387,0.29783 c -0.18817,0.15705 -0.38312,0.31409 -0.58619,0.46978 -0.12456,0.0975 -0.25046,0.19359 -0.38178,0.28971 -0.20578,0.15163 -0.42374,0.30054 -0.64306,0.45081 -0.15704,0.1056 -0.31002,0.21256 -0.47519,0.31816 -0.23691,0.15433 -0.49007,0.30595 -0.74324,0.45758 -0.16245,0.0975 -0.31949,0.1963 -0.48737,0.29242 -0.28971,0.16652 -0.59838,0.33033 -0.90569,0.49414 -0.15298,0.0812 -0.29649,0.16246 -0.45217,0.24369 -0.47113,0.24097 -0.95985,0.48059 -1.47024,0.71616 l -0.009,0.004 c -0.34252,0.15839 -0.7094,0.31409 -1.07087,0.46977 -0.20307,0.088 -0.39261,0.17735 -0.60109,0.26399 -0.15974,0.0663 -0.33439,0.12997 -0.4982,0.1963 -1.02077,0.41292 -2.0957,0.81771 -3.25049,1.21167 -0.66878,0.22744 -1.36193,0.45217 -2.07674,0.67283 -0.68367,0.2112 -1.3863,0.41427 -2.09705,0.61464 -0.95172,0.26669 -1.92511,0.52527 -2.92151,0.77167 -0.22338,0.0555 -0.45353,0.10694 -0.67961,0.16245 -0.79604,0.19224 -1.60426,0.37772 -2.42603,0.55777 -0.3222,0.0704 -0.64711,0.13944 -0.97338,0.20848 -0.82853,0.17329 -1.66924,0.33981 -2.51944,0.50092 -0.24368,0.046 -0.48331,0.0947 -0.72834,0.13944 -1.08711,0.20036 -2.19046,0.38854 -3.30871,0.56724 -0.26128,0.0419 -0.52662,0.0799 -0.78791,0.12049 -0.88403,0.13673 -1.7762,0.2667 -2.67783,0.38989 -0.35741,0.0501 -0.71481,0.0975 -1.07493,0.14486 -0.92058,0.1205 -1.85064,0.23421 -2.78883,0.34116 -0.25723,0.0298 -0.51174,0.0622 -0.77167,0.0907 -1.18052,0.12997 -2.37323,0.25046 -3.57541,0.36012 -0.29377,0.0271 -0.59026,0.0501 -0.88539,0.0759 -0.93819,0.0812 -1.88179,0.15703 -2.83216,0.22608 -0.3019,0.0216 -0.6038,0.0419 -0.9057,0.0622 -2.23243,0.15297 -4.48922,0.27346 -6.76361,0.3574 l -0.31679,0.0122 c -2.35293,0.084 -4.72208,0.12996 -7.09666,0.13943 -0.21796,0.001 -0.43593,0 -0.65389,0 -3.42513,0.005 -6.85703,-0.0663 -10.26591,-0.2139 -0.23556,-0.0109 -0.47248,-0.019 -0.7094,-0.0298 -1.47294,-0.069 -2.93911,-0.15298 -4.39852,-0.25046 -0.312728,-0.0203 -0.624096,-0.0434 -0.935475,-0.065 -1.495953,-0.1056 -2.986494,-0.22202 -4.46079,-0.35876 l -0.07849,-0.008 c -1.470234,-0.13674 -2.925573,-0.29242 -4.368727,-0.45894 -0.291072,-0.0338 -0.582144,-0.0663 -0.870505,-0.10153 -1.416075,-0.16923 -2.817264,-0.35335 -4.200858,-0.55236 -0.230151,-0.0338 -0.45623,-0.069 -0.68503,-0.10288 -1.627269,-0.24099 -3.234241,-0.49956 -4.80601,-0.78116 -0.1435,-0.0257 -0.284299,-0.0541 -0.426449,-0.0799 -1.643525,-0.29919 -3.258609,-0.61733 -4.830379,-0.96255 -1.789736,-0.39261 -3.529374,-0.81365 -5.210802,-1.26446 -14.338173,-3.84211 -21.602693,-9.03124 -21.562079,-14.18518 l -0.117781,15.21136 c -0.03929,5.15395 7.223906,10.34444 21.562079,14.18519 1.681428,0.45082 3.421066,0.87321 5.209441,1.26446 h 10e-4 c 1.571769,0.34522 3.186854,0.66336 4.829028,0.96255 0.1435,0.0257 0.284299,0.0541 0.4278,0.0799 1.570419,0.28159 3.17468,0.54017 4.800598,0.78114 0.136738,0.0203 0.266703,0.0447 0.404792,0.065 l 0.291061,0.0379 c 1.380883,0.19901 2.778011,0.38313 4.191386,0.55235 0.291071,0.0352 0.584844,0.0677 0.877266,0.10154 1.448577,0.16788 2.907977,0.32491 4.383633,0.46165 l 0.04468,0.004 0.01218,0.001 c 1.475646,0.13673 2.964837,0.25317 4.46079,0.35876 0.314079,0.0216 0.626809,0.0447 0.940901,0.0663 1.4594,0.0962 2.92557,0.18142 4.39715,0.2491 l 0.25587,0.0149 c 0.15164,0.007 0.30597,0.008 0.45894,0.0149 3.40754,0.14756 6.83672,0.21932 10.2605,0.2139 0.15298,0 0.30597,0.005 0.45894,0.004 l 0.19631,-0.004 c 2.37457,-0.009 4.74238,-0.0555 7.0953,-0.13809 l 0.31679,-0.0135 c 2.2744,-0.084 4.53119,-0.20443 6.76362,-0.35606 l 0.3222,-0.0176 c 0.19495,-0.0135 0.38719,-0.0325 0.58349,-0.046 0.95444,-0.069 1.90346,-0.14486 2.84706,-0.22744 0.28836,-0.0257 0.57807,-0.0474 0.86508,-0.0744 1.20489,-0.10965 2.39895,-0.22879 3.58082,-0.3601 0.26128,-0.0284 0.5158,-0.0609 0.77437,-0.0907 0.93549,-0.10695 1.8642,-0.22067 2.78344,-0.3398 0.36146,-0.0474 0.72157,-0.0962 1.08033,-0.14621 0.89758,-0.12321 1.78703,-0.25317 2.667,-0.38855 0.2667,-0.0406 0.5361,-0.0799 0.8001,-0.12184 1.11554,-0.1787 2.21618,-0.36688 3.30058,-0.56589 0.25046,-0.046 0.49414,-0.0947 0.74324,-0.14215 0.84749,-0.1611 1.68414,-0.32627 2.50861,-0.49955 0.32626,-0.0691 0.65118,-0.13809 0.97474,-0.2085 0.81904,-0.1787 1.62321,-0.36416 2.41654,-0.55641 0.23014,-0.0555 0.46436,-0.10695 0.6918,-0.16381 0.99369,-0.24639 1.96437,-0.50361 2.91474,-0.77032 l 0.18547,-0.05 c 0.64983,-0.18412 1.28747,-0.3723 1.91564,-0.56589 2.85789,-0.88269 5.35566,-1.82494 7.49603,-2.81322 h 0.001 l 0.008,-0.004 c 0.51174,-0.23691 1.00046,-0.47653 1.47158,-0.71887 0.1557,-0.0785 0.29649,-0.15974 0.44676,-0.23962 0.30867,-0.16517 0.61733,-0.32898 0.90841,-0.4955 0.17058,-0.0988 0.33032,-0.19765 0.49414,-0.29648 0.25181,-0.15027 0.50225,-0.30054 0.73782,-0.45353 0.16516,-0.10559 0.3195,-0.21389 0.47654,-0.32085 0.15028,-0.10153 0.31137,-0.20307 0.45488,-0.30596 l 0.18683,-0.14215 c 0.13131,-0.0961 0.25722,-0.19359 0.38312,-0.29107 0.20172,-0.15568 0.39802,-0.31137 0.58485,-0.46976 l 0.34522,-0.29785 c 0.1787,-0.15974 0.34928,-0.31949 0.51309,-0.48059 l 0.29107,-0.28837 c 0.16923,-0.17735 0.32356,-0.35469 0.47383,-0.53339 l 0.20849,-0.24099 0.0474,-0.0541 c 0.25316,-0.32357 0.46571,-0.64712 0.6593,-0.97339 l 0.0731,-0.12861 c 0.15975,-0.28024 0.29783,-0.56184 0.41291,-0.84477 l 0.0623,-0.14893 c 0.11507,-0.30054 0.21119,-0.60109 0.27482,-0.90163 l 0.005,-0.0434 c 0.0718,-0.35334 0.11237,-0.70669 0.11507,-1.06138 l 0.11778,-15.21137"
      style="fill:#fbc518;fill-opacity:1;fill-rule:nonzero;stroke:none;stroke-width:0.13538" />
    <path id="path644"
      d="m 157.85179,140.66175 c 26.91909,7.21308 28.8943,19.18073 4.42425,26.73361 -24.47006,7.55154 -66.113146,7.82636 -93.032238,0.61328 -26.919091,-7.21309 -28.903775,-19.17802 -4.43372,-26.72956 24.470056,-7.55153 66.122618,-7.83042 93.041708,-0.61733"
      style="fill:#f9f062;fill-opacity:1;fill-rule:nonzero;stroke:none;stroke-width:0.13538" />
    <path id="path645"
      d="m 114.48531,170.02581 c -15.915354,0 -31.144319,-1.73287 -42.879122,-4.87641 -13.52859,-3.62549 -18.387398,-8.04703 -18.437486,-10.73298 -0.04468,-2.38134 3.695892,-6.09348 14.32869,-9.3751 11.185151,-3.45221 27.197969,-5.43283 43.933728,-5.43283 15.914,0 31.14026,1.73151 42.87235,4.87505 13.52588,3.6255 18.38334,8.04704 18.43343,10.73298 0.0447,2.3827 -3.6959,6.0962 -14.33139,9.37917 -11.18245,3.4495 -27.18986,5.43012 -43.9202,5.43012"
      style="fill:#f8df2b;fill-opacity:1;fill-rule:nonzero;stroke:none;stroke-width:0.13538" />
    <path id="path646"
      d="m 67.497392,148.10904 c 11.185151,-3.45221 27.197969,-5.43283 43.933728,-5.43283 15.91535,0 31.14026,1.73153 42.87235,4.87641 11.25826,3.01629 16.49749,6.58221 17.97179,9.2438 0.31949,-0.56996 0.47112,-1.10336 0.46164,-1.5799 -0.0501,-2.68594 -4.90755,-7.10748 -18.43343,-10.73162 -11.73209,-3.1449 -26.957,-4.87641 -42.87235,-4.87641 -16.735759,0 -32.748577,1.98062 -43.933728,5.43283 -10.632798,3.28162 -14.373366,6.99376 -14.32869,9.3751 0.0081,0.44946 0.165158,0.95173 0.463002,1.48783 1.276636,-2.27439 5.363775,-5.17153 13.865688,-7.79521"
      style="fill:#fbc518;fill-opacity:1;fill-rule:nonzero;stroke:none;stroke-width:0.13538" />
    <path id="path647"
      d="m 118.07831,161.15838 -0.74594,0.001 0.29377,-0.12591 c 0.77032,-0.36824 1.41202,-0.75542 1.92511,-1.15344 0.24098,-0.18683 0.44811,-0.37771 0.63223,-0.5686 l 0.15975,-0.18954 c 0.11237,-0.13131 0.22067,-0.26263 0.30732,-0.39395 l 0.12725,-0.22608 c 0.0663,-0.12321 0.1259,-0.24505 0.17058,-0.36959 l 0.0718,-0.23692 0.0528,-0.32627 0.0284,-0.18411 0.0122,-1.11419 -0.023,0.26399 c 0.18005,-1.33485 -0.90299,-2.69136 -3.2004,-3.89895 l 2.52755,-0.80146 0.0122,-1.11553 -2.67377,-2.97567 -6.22615,1.97791 -1.35652,0.43051 c -2.48829,-0.49685 -5.20132,-0.838 -7.98745,-1.02889 l 4.21982,-1.33757 v -1.11553 l -2.67378,-2.97432 -23.147382,7.34847 -4.88995,1.55281 v 1.11553 l 2.653458,2.97702 3.641743,-1.15614 4.88995,-1.55282 0.148922,-0.046 0.328975,-0.088 c 0.333036,-0.0961 0.672835,-0.18953 1.03024,-0.27347 0.180063,-0.0434 0.366888,-0.0812 0.552353,-0.12184 0.327624,-0.069 0.659311,-0.13538 1.00182,-0.1963 0.203071,-0.0366 0.407493,-0.0704 0.615986,-0.10289 0.350632,-0.0555 0.708037,-0.10559 1.072215,-0.15027 0.203071,-0.0257 0.403431,-0.0528 0.610563,-0.0758 0.414265,-0.046 0.836652,-0.0825 1.261751,-0.11643 0.132666,-0.0109 0.25857,-0.0271 0.392597,-0.0366 l 0.07849,-0.003 c 0.732406,-0.0515 1.476997,-0.0799 2.227009,-0.0962 0.174641,-0.004 0.346571,-0.005 0.521212,-0.007 0.764908,-0.008 1.531155,-0.005 2.294702,0.0216 0.226089,0.008 0.452178,0.0176 0.676907,0.0284 0.458939,0.023 0.907049,0.065 1.359219,0.10022 0.20036,0.0149 0.4075,0.019 0.60515,0.0379 l -12.274964,3.8976 -0.01218,1.11418 2.667002,2.97702 18.456442,-5.85926 c 0.4955,0.25993 0.89623,0.53204 1.20083,0.80957 0.27618,0.24368 0.48195,0.49278 0.61869,0.74324 l 0.0853,0.21119 c -0.38177,0.87456 -1.62728,1.71392 -3.76494,2.39218 l -4.8913,1.55281 -0.0122,1.11554 2.33125,3.08397 3.77983,-0.008 37.10243,-0.0799 8.2325,-2.61285 0.0122,-1.11553 -37.11055,0.0812"
      style="fill:#fbc518;fill-opacity:1;fill-rule:nonzero;stroke:none;stroke-width:0.13538" />
    <path id="path648"
      d="m 117.7561,147.74351 2.67377,2.97567 -3.9477,1.25362 c 6.60117,2.73605 6.19909,6.53211 -1.54063,8.98927 l -0.6417,0.20443 3.77847,-0.008 37.11055,-0.0812 -8.2325,2.6142 -37.10243,0.0785 -3.77982,0.008 -2.33126,-3.08398 4.8913,-1.55281 c 3.81909,-1.21166 4.79519,-2.93912 3.07315,-4.46079 -0.30461,-0.27889 -0.70534,-0.55101 -1.20083,-0.81094 l -18.456444,5.86063 -2.667002,-2.97702 14.814706,-4.70447 c -1.63404,-0.25452 -3.38857,-0.41156 -5.168834,-0.47519 -4.395807,-0.15705 -8.916167,0.2694 -12.136873,1.29288 l -4.88995,1.55281 -3.641743,1.15481 -2.665642,-2.97702 4.88995,-1.55282 23.147382,-7.34846 2.67378,2.97432 -7.253701,2.30417 c 3.839391,0.10831 7.635471,0.50227 11.021331,1.17781 l 1.35652,-0.43051 6.22615,-1.97791"
      style="fill:#f9f062;fill-opacity:1;fill-rule:nonzero;stroke:none;stroke-width:0.13538" />
    <path id="path649"
      d="m 50.463796,171.47709 c -0.422387,0 -0.767608,-0.34251 -0.767608,-0.76761 v -5.88364 c 0,-0.42509 0.345221,-0.7676 0.767608,-0.7676 0.423738,0 0.767609,0.34251 0.767609,0.7676 v 5.88364 c 0,0.4251 -0.343871,0.76761 -0.767609,0.76761"
      style="fill:#f4e73e;fill-opacity:1;fill-rule:nonzero;stroke:none;stroke-width:0.13538" />
    <path id="path650"
      d="m 59.867334,175.80521 c -0.423738,0 -0.767608,-0.34251 -0.767608,-0.76761 v -5.88364 c 0,-0.42509 0.34387,-0.76761 0.767608,-0.76761 0.423738,0 0.767608,0.34252 0.767608,0.76761 v 5.88364 c 0,0.4251 -0.34387,0.76761 -0.767608,0.76761"
      style="fill:#f4e73e;fill-opacity:1;fill-rule:nonzero;stroke:none;stroke-width:0.13538" />
    <path id="path651"
      d="m 69.418444,178.73485 c -0.423749,0 -0.767609,-0.34251 -0.767609,-0.76761 v -5.88229 c 0,-0.4251 0.34386,-0.76761 0.767609,-0.76761 0.423738,0 0.767608,0.34251 0.767608,0.76761 v 5.88229 c 0,0.4251 -0.34387,0.76761 -0.767608,0.76761"
      style="fill:#f4e73e;fill-opacity:1;fill-rule:nonzero;stroke:none;stroke-width:0.13538" />
    <path id="path652"
      d="m 79.087324,181.07829 c -0.423738,0 -0.767608,-0.34386 -0.767608,-0.76761 v -5.88364 c 0,-0.42375 0.34387,-0.76626 0.767608,-0.76626 0.423748,0 0.767608,0.34251 0.767608,0.76626 v 5.88364 c 0,0.42375 -0.34386,0.76761 -0.767608,0.76761"
      style="fill:#f4e73e;fill-opacity:1;fill-rule:nonzero;stroke:none;stroke-width:0.13538" />
    <path id="path653"
      d="m 88.848277,182.83688 c -0.423748,0 -0.767609,-0.34251 -0.767609,-0.76625 v -5.88499 c 0,-0.42375 0.343861,-0.76761 0.767609,-0.76761 0.423738,0 0.767608,0.34386 0.767608,0.76761 v 5.88499 c 0,0.42374 -0.34387,0.76625 -0.767608,0.76625"
      style="fill:#f4e73e;fill-opacity:1;fill-rule:nonzero;stroke:none;stroke-width:0.13538" />
    <path id="path654"
      d="m 98.678264,184.00928 c -0.423738,0 -0.767609,-0.34251 -0.767609,-0.76761 v -5.88364 c 0,-0.42374 0.343871,-0.76625 0.767609,-0.76625 0.423738,0 0.767608,0.34251 0.767608,0.76625 v 5.88364 c 0,0.4251 -0.34387,0.76761 -0.767608,0.76761"
      style="fill:#f4e73e;fill-opacity:1;fill-rule:nonzero;stroke:none;stroke-width:0.13538" />
    <path id="path655"
      d="m 108.54615,184.59413 c -0.42373,0 -0.76759,-0.34251 -0.76759,-0.76761 v -5.88229 c 0,-0.4251 0.34386,-0.76761 0.76759,-0.76761 0.42375,0 0.76761,0.34251 0.76761,0.76761 v 5.88229 c 0,0.4251 -0.34386,0.76761 -0.76761,0.76761"
      style="fill:#f4e73e;fill-opacity:1;fill-rule:nonzero;stroke:none;stroke-width:0.13538" />
    <path id="path656"
      d="m 118.42759,184.59413 c -0.42374,0 -0.76761,-0.34251 -0.76761,-0.76761 v -5.88229 c 0,-0.4251 0.34387,-0.76761 0.76761,-0.76761 0.42375,0 0.76761,0.34251 0.76761,0.76761 v 5.88229 c 0,0.4251 -0.34386,0.76761 -0.76761,0.76761"
      style="fill:#f4e73e;fill-opacity:1;fill-rule:nonzero;stroke:none;stroke-width:0.13538" />
    <path id="path657"
      d="m 128.29549,184.00928 c -0.42374,0 -0.76761,-0.34251 -0.76761,-0.76761 v -5.88364 c 0,-0.42374 0.34387,-0.76625 0.76761,-0.76625 0.42374,0 0.76761,0.34251 0.76761,0.76625 v 5.88364 c 0,0.4251 -0.34387,0.76761 -0.76761,0.76761"
      style="fill:#f4e73e;fill-opacity:1;fill-rule:nonzero;stroke:none;stroke-width:0.13538" />
    <path id="path658"
      d="m 138.12548,182.83688 c -0.42374,0 -0.76761,-0.34251 -0.76761,-0.76625 v -5.88499 c 0,-0.42375 0.34387,-0.76761 0.76761,-0.76761 0.42374,0 0.7676,0.34386 0.7676,0.76761 v 5.88499 c 0,0.42374 -0.34386,0.76625 -0.7676,0.76625"
      style="fill:#f4e73e;fill-opacity:1;fill-rule:nonzero;stroke:none;stroke-width:0.13538" />
    <path id="path659"
      d="m 147.88643,181.07829 c -0.42375,0 -0.76761,-0.34386 -0.76761,-0.76761 v -5.88364 c 0,-0.42375 0.34386,-0.76626 0.76761,-0.76626 0.42374,0 0.76761,0.34251 0.76761,0.76626 v 5.88364 c 0,0.42375 -0.34387,0.76761 -0.76761,0.76761"
      style="fill:#f4e73e;fill-opacity:1;fill-rule:nonzero;stroke:none;stroke-width:0.13538" />
    <path id="path660"
      d="m 157.55531,178.73485 c -0.42374,0 -0.76761,-0.34251 -0.76761,-0.76761 v -5.88229 c 0,-0.4251 0.34387,-0.76761 0.76761,-0.76761 0.42375,0 0.76761,0.34251 0.76761,0.76761 v 5.88229 c 0,0.4251 -0.34386,0.76761 -0.76761,0.76761"
      style="fill:#f4e73e;fill-opacity:1;fill-rule:nonzero;stroke:none;stroke-width:0.13538" />
    <path id="path661"
      d="m 167.10507,175.80521 c -0.42375,0 -0.76761,-0.34251 -0.76761,-0.76761 v -5.88364 c 0,-0.42509 0.34386,-0.76761 0.76761,-0.76761 0.42374,0 0.76761,0.34252 0.76761,0.76761 v 5.88364 c 0,0.4251 -0.34387,0.76761 -0.76761,0.76761"
      style="fill:#f4e73e;fill-opacity:1;fill-rule:nonzero;stroke:none;stroke-width:0.13538" />
    <path id="path662"
      d="m 176.50861,171.47709 c -0.42374,0 -0.76761,-0.34251 -0.76761,-0.76761 v -5.88364 c 0,-0.42509 0.34387,-0.7676 0.76761,-0.7676 0.42373,0 0.7676,0.34251 0.7676,0.7676 v 5.88364 c 0,0.4251 -0.34387,0.76761 -0.7676,0.76761"
      style="fill:#f4e73e;fill-opacity:1;fill-rule:nonzero;stroke:none;stroke-width:0.13538" />
    <path id="path663"
      d="m 188.07147,133.19144 c -0.003,0.35876 -0.0434,0.71616 -0.11778,1.07357 -0.0637,0.31409 -0.16111,0.62682 -0.28024,0.93955 l -0.0893,0.21119 c -0.11101,0.26263 -0.23963,0.52392 -0.38855,0.78386 l -0.10559,0.18682 c -0.19495,0.3222 -0.41562,0.64306 -0.67014,0.96256 l -0.20442,0.23826 c -0.15162,0.1787 -0.30732,0.35741 -0.4779,0.53476 l -0.28971,0.28836 c -0.16381,0.1611 -0.33439,0.32085 -0.51309,0.48196 l -0.34522,0.29783 c -0.18819,0.15705 -0.38313,0.31408 -0.5862,0.46978 -0.12455,0.0961 -0.25045,0.19358 -0.38178,0.28971 -0.20577,0.15027 -0.42374,0.30054 -0.64305,0.44946 -0.15705,0.10695 -0.31002,0.2139 -0.47384,0.3195 -0.23826,0.15298 -0.49143,0.30596 -0.74459,0.45759 -0.16246,0.0975 -0.3195,0.19494 -0.48737,0.29242 -0.28971,0.16517 -0.59838,0.33032 -0.9057,0.49414 -0.15298,0.0799 -0.29513,0.16246 -0.45216,0.24232 -0.47113,0.24234 -0.95986,0.48061 -1.47024,0.71753 l -0.008,0.004 c -0.34387,0.15839 -0.71075,0.31408 -1.07222,0.46977 -0.20307,0.0866 -0.3926,0.17599 -0.60109,0.26263 -0.15975,0.0663 -0.33439,0.13133 -0.49685,0.19631 -1.02212,0.41291 -2.09569,0.81905 -3.25184,1.21166 -0.66878,0.22879 -1.36193,0.45216 -2.07674,0.67284 -0.68367,0.21119 -1.3863,0.41562 -2.09705,0.61463 -0.95172,0.26805 -1.92511,0.52527 -2.92016,0.77302 -0.22337,0.0555 -0.45488,0.10695 -0.6796,0.1611 -0.7974,0.19224 -1.60563,0.37906 -2.42603,0.55777 -0.32356,0.0704 -0.64847,0.1408 -0.97474,0.20849 -0.82853,0.17328 -1.66789,0.34116 -2.51943,0.50226 -0.24369,0.046 -0.48331,0.0947 -0.72835,0.13944 -1.08711,0.19901 -2.19046,0.38854 -3.30871,0.56724 -0.25993,0.0419 -0.52663,0.0785 -0.78791,0.11914 -0.88404,0.13673 -1.77619,0.26806 -2.67783,0.39125 -0.3574,0.0487 -0.71481,0.0975 -1.07357,0.14486 -0.92194,0.12048 -1.85201,0.2342 -2.7902,0.34116 -0.25722,0.0297 -0.51174,0.0622 -0.77167,0.0907 -1.18051,0.12997 -2.37322,0.2491 -3.5754,0.35876 -0.29377,0.0271 -0.59025,0.05 -0.88539,0.0758 -0.93819,0.0812 -1.88179,0.15705 -2.83216,0.22609 -0.30054,0.0216 -0.6038,0.0434 -0.90569,0.0637 -2.23243,0.15298 -4.48923,0.27211 -6.76363,0.35605 l -0.31679,0.0135 c -2.35291,0.084 -4.72207,0.12861 -7.09665,0.13944 -0.21797,0 -0.43592,-10e-4 -0.65389,0 -3.42513,0.004 -6.85703,-0.0663 -10.26592,-0.21525 -0.23556,-0.009 -0.47247,-0.0176 -0.70939,-0.0284 -1.47159,-0.069 -2.93911,-0.15298 -4.39851,-0.25046 -0.31273,-0.0203 -0.62411,-0.0433 -0.93548,-0.065 -1.49596,-0.10695 -2.98651,-0.22338 -4.4608,-0.35876 l -0.0785,-0.008 c -1.47023,-0.13674 -2.92422,-0.29242 -4.368736,-0.4603 -0.291062,-0.0325 -0.582134,-0.065 -0.870494,-0.10022 -1.416085,-0.17058 -2.817275,-0.3547 -4.200859,-0.55371 -0.2288,-0.0325 -0.45624,-0.0677 -0.683679,-0.10154 -1.62863,-0.24097 -3.235591,-0.49955 -4.807361,-0.78249 -0.14351,-0.0257 -0.284299,-0.0528 -0.426449,-0.0799 -1.643525,-0.29919 -3.258619,-0.61733 -4.830389,-0.9612 -1.788375,-0.3926 -3.528013,-0.81364 -5.210802,-1.26446 -14.338163,-3.8421 -21.602693,-9.03259 -21.562079,-14.18518 l -0.117781,15.21137 c -0.03929,5.15395 7.225266,10.34308 21.562079,14.18518 1.681428,0.45082 3.421076,0.87186 5.209451,1.26446 h 0.003 c 1.570408,0.34387 3.185503,0.66201 4.827667,0.9612 0.143511,0.0271 0.2843,0.0555 0.42781,0.0812 1.570409,0.28159 3.17467,0.53882 4.800598,0.77979 0.136728,0.0203 0.268054,0.046 0.404782,0.0663 l 0.291072,0.0379 c 1.380882,0.19901 2.779361,0.38312 4.191385,0.55235 0.292422,0.0352 0.584845,0.0677 0.877267,0.10154 1.449928,0.16651 2.907978,0.32355 4.383618,0.46029 l 0.0447,0.005 0.0122,10e-4 c 1.47566,0.13538 2.96484,0.25181 4.4608,0.35875 0.31408,0.0216 0.62681,0.0447 0.94089,0.065 1.4594,0.0975 2.92557,0.18141 4.39717,0.25046 l 0.25587,0.0149 c 0.15297,0.007 0.30595,0.008 0.45894,0.0149 3.40753,0.14756 6.83672,0.21931 10.26049,0.2139 0.15299,0 0.30596,0.004 0.45895,0.004 l 0.19629,-0.004 c 2.37458,-0.009 4.74239,-0.0555 7.0953,-0.13945 l 0.31816,-0.0122 c 2.27439,-0.084 4.52983,-0.20442 6.76226,-0.35741 l 0.3222,-0.0162 c 0.1963,-0.0135 0.38719,-0.0325 0.5835,-0.0474 0.95443,-0.069 1.90344,-0.14486 2.84705,-0.22609 0.28836,-0.0257 0.57807,-0.0487 0.86644,-0.0744 1.20353,-0.10966 2.39758,-0.23015 3.58082,-0.36012 0.25993,-0.0284 0.51444,-0.0609 0.77437,-0.0907 0.93548,-0.10696 1.86284,-0.22068 2.78207,-0.34116 0.36147,-0.0474 0.72158,-0.0947 1.08034,-0.14486 0.89893,-0.12319 1.78702,-0.25316 2.667,-0.38855 0.2667,-0.0419 0.53611,-0.0799 0.8001,-0.12184 1.11689,-0.1787 2.21619,-0.36688 3.30058,-0.56589 0.25045,-0.046 0.49414,-0.0961 0.74324,-0.1435 0.84748,-0.15975 1.68413,-0.32627 2.5086,-0.4982 0.32763,-0.069 0.65254,-0.13809 0.97474,-0.20985 0.81906,-0.1787 1.62322,-0.36416 2.41655,-0.55505 0.23015,-0.0555 0.46436,-0.10831 0.6918,-0.16517 0.99369,-0.24639 1.96573,-0.50361 2.91474,-0.77032 l 0.18547,-0.0487 c 0.64983,-0.18412 1.28747,-0.37229 1.91564,-0.56589 2.85924,-0.88268 5.35702,-1.82493 7.49602,-2.81321 l 0.001,-0.001 0.008,-0.004 c 0.51174,-0.23691 1.00181,-0.47654 1.47159,-0.71752 0.15568,-0.0799 0.29648,-0.15975 0.44675,-0.24098 0.31002,-0.1638 0.61869,-0.32762 0.90841,-0.49549 0.17193,-0.0975 0.33033,-0.19766 0.49549,-0.29648 0.25045,-0.15028 0.50091,-0.30055 0.73647,-0.45217 0.16517,-0.10696 0.3195,-0.21391 0.47654,-0.32085 0.15027,-0.1029 0.31138,-0.20307 0.45488,-0.30597 l 0.18818,-0.1435 c 0.13132,-0.0962 0.25587,-0.19224 0.38178,-0.28971 0.20171,-0.1557 0.39801,-0.31273 0.58484,-0.46978 l 0.34522,-0.29783 c 0.18005,-0.15976 0.34928,-0.32085 0.51309,-0.48196 l 0.29107,-0.28836 c 0.16922,-0.17599 0.32355,-0.35469 0.47519,-0.53205 l 0.20713,-0.24097 0.0474,-0.0555 c 0.25317,-0.3222 0.46571,-0.64712 0.65931,-0.97203 l 0.0731,-0.12862 c 0.15975,-0.28023 0.29784,-0.56182 0.41291,-0.84477 l 0.0637,-0.14891 c 0.11372,-0.30055 0.20984,-0.60109 0.27347,-0.903 l 0.005,-0.0419 c 0.0718,-0.35335 0.11236,-0.70804 0.11507,-1.06138 l 0.11778,-15.21273"
      style="fill:#f9b41b;fill-opacity:1;fill-rule:nonzero;stroke:none;stroke-width:0.13538" />
    <path id="path664"
      d="m 166.51345,119.00761 c 26.91909,7.21309 28.89565,19.18073 4.42424,26.73227 -24.47006,7.55288 -66.11315,7.82771 -93.032239,0.61463 -26.919092,-7.21309 -28.903766,-19.17803 -4.43371,-26.72956 24.471406,-7.55289 66.122619,-7.83042 93.041709,-0.61734"
      style="fill:#fae669;fill-opacity:1;fill-rule:nonzero;stroke:none;stroke-width:0.13538" />
    <path id="path665"
      d="m 123.14696,148.37032 c -15.91535,0 -31.14296,-1.73151 -42.879113,-4.87505 -13.52724,-3.6255 -18.386049,-8.04839 -18.437497,-10.73434 -0.04468,-2.37999 3.695893,-6.09348 14.32869,-9.3751 11.185151,-3.45086 27.19798,-5.43148 43.93373,-5.43148 15.91536,0 31.14027,1.73152 42.87371,4.87506 13.52453,3.62414 18.38199,8.04567 18.43208,10.73297 0.046,2.38136 -3.6959,6.09619 -14.33141,9.37918 -11.18108,3.4495 -27.18984,5.42876 -43.92019,5.42876"
      style="fill:#fbd131;fill-opacity:1;fill-rule:nonzero;stroke:none;stroke-width:0.13538" />
    <path id="path666"
      d="m 76.15904,126.45355 c 11.185151,-3.45086 27.19798,-5.43147 43.93373,-5.43147 15.91536,0 31.14027,1.73151 42.87371,4.87505 11.25826,3.01764 16.49749,6.58357 17.97042,9.2438 0.31951,-0.56995 0.47113,-1.102 0.46166,-1.57855 -0.0501,-2.6873 -4.90755,-7.10883 -18.43208,-10.73297 -11.73344,-3.14354 -26.95835,-4.87506 -42.87371,-4.87506 -16.73575,0 -32.748579,1.98062 -43.93373,5.43148 -10.632797,3.28162 -14.373365,6.99511 -14.32869,9.3751 0.0081,0.45082 0.166519,0.95309 0.463002,1.48919 1.276647,-2.27439 5.363786,-5.17154 13.865688,-7.79657"
      style="fill:#f9b41b;fill-opacity:1;fill-rule:nonzero;stroke:none;stroke-width:0.13538" />
    <path id="path669"
      d="m 59.126805,149.82161 c -0.423748,0 -0.767608,-0.34252 -0.767608,-0.76626 v -5.885 c 0,-0.42374 0.34386,-0.76626 0.767608,-0.76626 0.423738,0 0.767609,0.34252 0.767609,0.76626 v 5.885 c 0,0.42374 -0.343871,0.76626 -0.767609,0.76626"
      style="fill:#f6d942;fill-opacity:1;fill-rule:nonzero;stroke:none;stroke-width:0.13538" />
    <path id="path670"
      d="m 68.530343,154.14972 c -0.423738,0 -0.768959,-0.34251 -0.768959,-0.76626 v -5.88498 c 0,-0.42375 0.345221,-0.76626 0.768959,-0.76626 0.422388,0 0.767608,0.34251 0.767608,0.76626 v 5.88498 c 0,0.42375 -0.34522,0.76626 -0.767608,0.76626"
      style="fill:#f6d942;fill-opacity:1;fill-rule:nonzero;stroke:none;stroke-width:0.13538" />
    <path id="path671"
      d="m 78.080092,157.07936 c -0.423738,0 -0.767609,-0.34251 -0.767609,-0.76625 v -5.88365 c 0,-0.42374 0.343871,-0.76625 0.767609,-0.76625 0.423748,0 0.767608,0.34251 0.767608,0.76625 v 5.88365 c 0,0.42374 -0.34386,0.76625 -0.767608,0.76625"
      style="fill:#f6d942;fill-opacity:1;fill-rule:nonzero;stroke:none;stroke-width:0.13538" />
    <path id="path672"
      d="m 87.748982,159.42279 c -0.423738,0 -0.767608,-0.3425 -0.767608,-0.76624 v -5.88365 c 0,-0.42374 0.34387,-0.76625 0.767608,-0.76625 0.423739,0 0.767609,0.34251 0.767609,0.76625 v 5.88365 c 0,0.42374 -0.34387,0.76624 -0.767609,0.76624"
      style="fill:#f6d942;fill-opacity:1;fill-rule:nonzero;stroke:none;stroke-width:0.13538" />
    <path id="path673"
      d="m 97.509925,161.18275 c -0.423738,0 -0.767608,-0.34252 -0.767608,-0.76761 v -5.88365 c 0,-0.42509 0.34387,-0.7676 0.767608,-0.7676 0.423748,0 0.767608,0.34251 0.767608,0.7676 v 5.88365 c 0,0.42509 -0.34386,0.76761 -0.767608,0.76761"
      style="fill:#f6d942;fill-opacity:1;fill-rule:nonzero;stroke:none;stroke-width:0.13538" />
    <path id="path674"
      d="m 107.33992,162.35379 c -0.42375,0 -0.76761,-0.34251 -0.76761,-0.76626 v -5.88364 c 0,-0.42374 0.34386,-0.76625 0.76761,-0.76625 0.42374,0 0.76761,0.34251 0.76761,0.76625 v 5.88364 c 0,0.42375 -0.34387,0.76626 -0.76761,0.76626"
      style="fill:#f6d942;fill-opacity:1;fill-rule:nonzero;stroke:none;stroke-width:0.13538" />
    <path id="path675"
      d="m 117.20781,162.93863 c -0.42374,0 -0.76761,-0.34251 -0.76761,-0.76625 v -5.88364 c 0,-0.42375 0.34387,-0.76626 0.76761,-0.76626 0.42374,0 0.76761,0.34251 0.76761,0.76626 v 5.88364 c 0,0.42374 -0.34387,0.76625 -0.76761,0.76625"
      style="fill:#f6d942;fill-opacity:1;fill-rule:nonzero;stroke:none;stroke-width:0.13538" />
    <path id="path676"
      d="m 127.08925,162.93863 c -0.42374,0 -0.76761,-0.34251 -0.76761,-0.76625 v -5.88364 c 0,-0.42375 0.34387,-0.76626 0.76761,-0.76626 0.42374,0 0.76761,0.34251 0.76761,0.76626 v 5.88364 c 0,0.42374 -0.34387,0.76625 -0.76761,0.76625"
      style="fill:#f6d942;fill-opacity:1;fill-rule:nonzero;stroke:none;stroke-width:0.13538" />
    <path id="path677"
      d="m 136.95715,162.35379 c -0.42375,0 -0.76761,-0.34251 -0.76761,-0.76626 v -5.88364 c 0,-0.42374 0.34386,-0.76625 0.76761,-0.76625 0.42374,0 0.76761,0.34251 0.76761,0.76625 v 5.88364 c 0,0.42375 -0.34387,0.76626 -0.76761,0.76626"
      style="fill:#f6d942;fill-opacity:1;fill-rule:nonzero;stroke:none;stroke-width:0.13538" />
    <path id="path678"
      d="m 146.78713,161.18275 c -0.42373,0 -0.7676,-0.34252 -0.7676,-0.76761 v -5.88365 c 0,-0.42509 0.34387,-0.7676 0.7676,-0.7676 0.42374,0 0.76761,0.34251 0.76761,0.7676 v 5.88365 c 0,0.42509 -0.34387,0.76761 -0.76761,0.76761"
      style="fill:#f6d942;fill-opacity:1;fill-rule:nonzero;stroke:none;stroke-width:0.13538" />
    <path id="path679"
      d="m 156.54808,159.42279 c -0.42374,0 -0.76761,-0.3425 -0.76761,-0.76624 v -5.88365 c 0,-0.42374 0.34387,-0.76625 0.76761,-0.76625 0.42374,0 0.76761,0.34251 0.76761,0.76625 v 5.88365 c 0,0.42374 -0.34387,0.76624 -0.76761,0.76624"
      style="fill:#f6d942;fill-opacity:1;fill-rule:nonzero;stroke:none;stroke-width:0.13538" />
    <path id="path680"
      d="m 166.21697,157.07936 c -0.42374,0 -0.76761,-0.34251 -0.76761,-0.76625 v -5.88365 c 0,-0.42374 0.34387,-0.76625 0.76761,-0.76625 0.42374,0 0.76761,0.34251 0.76761,0.76625 v 5.88365 c 0,0.42374 -0.34387,0.76625 -0.76761,0.76625"
      style="fill:#f6d942;fill-opacity:1;fill-rule:nonzero;stroke:none;stroke-width:0.13538" />
    <path id="path681"
      d="m 175.76808,154.14972 c -0.42375,0 -0.76761,-0.34251 -0.76761,-0.76626 v -5.88498 c 0,-0.42375 0.34386,-0.76626 0.76761,-0.76626 0.42373,0 0.76761,0.34251 0.76761,0.76626 v 5.88498 c 0,0.42375 -0.34388,0.76626 -0.76761,0.76626"
      style="fill:#f6d942;fill-opacity:1;fill-rule:nonzero;stroke:none;stroke-width:0.13538" />
    <path id="path682"
      d="m 185.17161,149.82161 c -0.42373,0 -0.76895,-0.34252 -0.76895,-0.76626 v -5.885 c 0,-0.42374 0.34522,-0.76626 0.76895,-0.76626 0.42239,0 0.76761,0.34252 0.76761,0.76626 v 5.885 c 0,0.42374 -0.34522,0.76626 -0.76761,0.76626"
      style="fill:#f6d942;fill-opacity:1;fill-rule:nonzero;stroke:none;stroke-width:0.13538" />
    <path id="path683"
      d="m 174.11643,112.49986 c -0.003,0.3574 -0.0434,0.71617 -0.11778,1.07357 -0.0637,0.31408 -0.16111,0.62681 -0.28024,0.93954 l -0.0893,0.2112 c -0.11101,0.26128 -0.23963,0.52257 -0.38855,0.7825 l -0.10559,0.18683 c -0.1963,0.3222 -0.41562,0.6444 -0.67014,0.9639 l -0.20577,0.23828 c -0.15027,0.1787 -0.30732,0.3574 -0.47655,0.53474 l -0.28971,0.28701 c -0.16381,0.16111 -0.33439,0.32221 -0.51445,0.48196 l -0.34386,0.29784 c -0.18818,0.15704 -0.38313,0.31408 -0.5862,0.46977 -0.12455,0.0975 -0.25045,0.19359 -0.38178,0.29106 -0.20577,0.15027 -0.42373,0.2992 -0.64305,0.44947 -0.15705,0.1056 -0.31002,0.21254 -0.47519,0.3195 -0.23691,0.15297 -0.49008,0.30461 -0.74324,0.45623 -0.16245,0.0975 -0.3195,0.1963 -0.48737,0.29242 -0.28971,0.16652 -0.59838,0.33033 -0.90569,0.49415 -0.15299,0.0812 -0.29649,0.16245 -0.45217,0.24368 -0.47113,0.24097 -0.95986,0.4806 -1.47024,0.71616 l -0.009,0.004 c -0.34251,0.1584 -0.70939,0.31408 -1.07086,0.46978 -0.20307,0.088 -0.39261,0.17734 -0.60109,0.26399 -0.15976,0.0663 -0.3344,0.12996 -0.49685,0.1963 -1.02212,0.41291 -2.09705,0.81769 -3.25184,1.21165 -0.66878,0.22744 -1.36194,0.45218 -2.07675,0.67285 -0.68367,0.21119 -1.38629,0.41426 -2.09704,0.61462 -0.95172,0.26806 -1.92511,0.52529 -2.92151,0.77167 -0.22338,0.0555 -0.45353,0.10831 -0.67962,0.16246 -0.79604,0.19225 -1.60426,0.37771 -2.42602,0.55777 -0.3222,0.0704 -0.64711,0.13944 -0.97339,0.20849 -0.82853,0.17329 -1.66924,0.3398 -2.51943,0.5009 -0.24368,0.046 -0.48331,0.0947 -0.72834,0.1408 -1.08711,0.19901 -2.19047,0.38719 -3.30871,0.56589 -0.26128,0.0419 -0.52663,0.0799 -0.78791,0.12049 -0.88404,0.13674 -1.7762,0.2667 -2.67783,0.39125 -0.35741,0.0487 -0.71481,0.0961 -1.07493,0.14351 -0.92059,0.12048 -1.85065,0.2342 -2.78884,0.34251 -0.25722,0.0284 -0.51174,0.0609 -0.77167,0.0893 -1.18051,0.13131 -2.37322,0.25046 -3.5754,0.36011 -0.29377,0.0271 -0.59026,0.0501 -0.88539,0.0759 -0.93819,0.0812 -1.88179,0.15705 -2.83216,0.22609 -0.30191,0.0216 -0.6038,0.0419 -0.9057,0.0637 -2.23243,0.15163 -4.48923,0.27212 -6.76362,0.35605 l -0.31679,0.0122 c -2.35292,0.084 -4.72207,0.12997 -7.09665,0.13945 -0.21797,0.001 -0.43593,0 -0.65389,0 -3.42513,0.005 -6.85703,-0.0663 -10.265913,-0.2139 -0.235562,-0.0109 -0.472485,-0.019 -0.709398,-0.0298 -1.472945,-0.0677 -2.939118,-0.15299 -4.398518,-0.25046 -0.312729,-0.0203 -0.624108,-0.0434 -0.935477,-0.065 -1.495963,-0.1056 -2.986504,-0.22203 -4.460799,-0.35876 l -0.07849,-0.008 c -1.470234,-0.13539 -2.925573,-0.29243 -4.368738,-0.45894 -0.291062,-0.0338 -0.582133,-0.0663 -0.870494,-0.10154 -1.416085,-0.16923 -2.817275,-0.35334 -4.200859,-0.55235 -0.23015,-0.0338 -0.45624,-0.0691 -0.685029,-0.1029 -1.627279,-0.24097 -3.234241,-0.49955 -4.806011,-0.78114 -0.14351,-0.0257 -0.284299,-0.0541 -0.426449,-0.0799 -1.643525,-0.29918 -3.258619,-0.61734 -4.830389,-0.96256 -1.789725,-0.39124 -3.529374,-0.81363 -5.210802,-1.26445 -14.338163,-3.84075 -21.602693,-9.03125 -21.562078,-14.18519 l -0.117782,15.21273 c -0.03929,5.15259 7.223916,10.34309 21.562079,14.18519 1.681428,0.44946 3.421076,0.87185 5.209452,1.2631 l 10e-4,0.001 c 1.571769,0.34387 3.186864,0.66201 4.829028,0.9612 0.143511,0.0257 0.2843,0.0541 0.42781,0.0799 1.570409,0.2816 3.17467,0.54017 4.800598,0.78116 0.136728,0.0203 0.266694,0.046 0.404782,0.065 l 0.291072,0.0393 c 1.380882,0.19901 2.778011,0.38178 4.191385,0.55101 0.291072,0.0352 0.584845,0.069 0.877267,0.10153 1.448576,0.16787 2.907977,0.32491 4.383622,0.46165 l 0.04468,0.004 0.01218,0.001 c 1.475656,0.13674 2.964837,0.25316 4.4608,0.35875 0.31408,0.0231 0.626809,0.0447 0.940889,0.0663 1.45941,0.0975 2.925583,0.1814 4.397167,0.24909 l 0.25587,0.0149 c 0.151623,0.007 0.305957,0.008 0.45894,0.0149 3.407525,0.14757 6.836715,0.21931 10.260495,0.21525 0.15298,-10e-4 0.30596,0.004 0.45894,0.003 l 0.1963,-0.003 c 2.37458,-0.0109 4.74239,-0.0569 7.0953,-0.13944 l 0.31679,-0.0135 c 2.2744,-0.084 4.5312,-0.20307 6.76363,-0.35606 l 0.3222,-0.0176 c 0.1963,-0.0135 0.38718,-0.0325 0.58349,-0.046 0.95444,-0.069 1.90345,-0.14485 2.84706,-0.22744 0.28836,-0.0244 0.57807,-0.0474 0.86508,-0.0731 1.20488,-0.11101 2.39894,-0.23014 3.58217,-0.36147 0.25993,-0.0284 0.51444,-0.0609 0.77302,-0.0893 0.93548,-0.1083 1.8642,-0.22067 2.78343,-0.34116 0.36146,-0.0474 0.72158,-0.0961 1.08033,-0.14485 0.89758,-0.12455 1.78703,-0.25452 2.66701,-0.3899 0.2667,-0.0406 0.5361,-0.0799 0.8001,-0.12184 1.11554,-0.1787 2.21618,-0.36689 3.30058,-0.5659 0.25045,-0.046 0.49413,-0.0947 0.74324,-0.14215 0.84748,-0.15974 1.68413,-0.32626 2.5086,-0.49955 0.32627,-0.0691 0.65118,-0.13809 0.97474,-0.20848 0.81905,-0.17871 1.62322,-0.36418 2.41654,-0.55507 0.23015,-0.0555 0.46437,-0.1083 0.6918,-0.16516 0.99369,-0.24639 1.96437,-0.50361 2.91474,-0.77032 l 0.18548,-0.0487 c 0.64983,-0.18412 1.28747,-0.37365 1.91564,-0.56725 2.85788,-0.88268 5.35565,-1.82493 7.49602,-2.8132 h 0.001 l 0.008,-0.004 c 0.51174,-0.23692 1.00046,-0.47654 1.47158,-0.71887 0.15569,-0.0785 0.29649,-0.15975 0.44676,-0.23962 0.30867,-0.16382 0.61733,-0.32898 0.90841,-0.49549 0.17193,-0.0988 0.33032,-0.19766 0.49413,-0.29649 0.25181,-0.15027 0.50226,-0.30054 0.73783,-0.45353 0.16516,-0.10559 0.3195,-0.2139 0.47653,-0.32085 0.15028,-0.10153 0.31138,-0.20307 0.45488,-0.30596 l 0.18683,-0.14215 c 0.13267,-0.0962 0.25723,-0.19359 0.38313,-0.28972 0.20171,-0.15703 0.39802,-0.31273 0.58485,-0.47112 l 0.34522,-0.29649 c 0.1787,-0.16109 0.34928,-0.32085 0.51309,-0.48194 l 0.29107,-0.28836 c 0.16922,-0.17736 0.32355,-0.35471 0.47382,-0.53205 l 0.2085,-0.24234 0.0474,-0.0541 c 0.25317,-0.32222 0.46572,-0.64713 0.65931,-0.97339 l 0.0731,-0.12862 c 0.15975,-0.28024 0.29783,-0.56183 0.4129,-0.84341 l 0.0623,-0.15028 c 0.11507,-0.30054 0.21119,-0.60109 0.27481,-0.90163 l 0.005,-0.0434 c 0.0718,-0.35334 0.11236,-0.70668 0.11507,-1.06138 l 0.11778,-15.21138"
      style="fill:#fbc518;fill-opacity:1;fill-rule:nonzero;stroke:none;stroke-width:0.13538" />
    <path id="path684"
      d="m 152.55841,98.31468 c 26.91909,7.21308 28.89429,19.18073 4.42424,26.73362 -24.47006,7.55153 -66.113147,7.82635 -93.032238,0.61327 -26.919092,-7.21173 -28.903766,-19.17802 -4.43371,-26.729555 24.470055,-7.55154 66.122618,-7.829067 93.041708,-0.617335"
      style="fill:#f9f062;fill-opacity:1;fill-rule:nonzero;stroke:none;stroke-width:0.13538" />
    <path id="path685"
      d="m 109.19192,127.67875 c -15.915345,0 -31.14432,-1.73288 -42.879112,-4.87642 -13.52724,-3.6255 -18.387399,-8.04702 -18.437497,-10.73298 -0.04468,-2.38134 3.695892,-6.09348 14.32869,-9.37511 11.185151,-3.452206 27.197979,-5.432829 43.933739,-5.432829 15.91535,0 31.14026,1.731526 42.8737,4.876419 13.52453,3.62413 18.38199,8.04567 18.43208,10.73162 0.0447,2.3827 -3.6959,6.09619 -14.3314,9.37918 -11.18244,3.45084 -27.19121,5.43012 -43.9202,5.43012"
      style="fill:#f8df2b;fill-opacity:1;fill-rule:nonzero;stroke:none;stroke-width:0.13538" />
    <path id="path686"
      d="m 62.204001,105.76196 c 11.185151,-3.4522 27.197979,-5.43282 43.933739,-5.43282 15.91535,0 31.14026,1.73152 42.8737,4.87641 11.2569,3.01628 16.49613,6.58221 17.97042,9.24379 0.31951,-0.56995 0.47113,-1.10199 0.46166,-1.57989 -0.0501,-2.68595 -4.90755,-7.10749 -18.43208,-10.73162 -11.73344,-3.144893 -26.95835,-4.876419 -42.8737,-4.876419 -16.73576,0 -32.748588,1.980623 -43.933739,5.432829 -10.632798,3.28163 -14.373365,6.99377 -14.32869,9.37511 0.0081,0.44947 0.165168,0.95173 0.463002,1.48784 1.276647,-2.27305 5.363786,-5.17155 13.865688,-7.79523"
      style="fill:#fbc518;fill-opacity:1;fill-rule:nonzero;stroke:none;stroke-width:0.13538" />
    <path id="path689"
      d="m 45.170406,129.13002 c -0.422388,0 -0.767609,-0.34251 -0.767609,-0.7676 v -5.88365 c 0,-0.42509 0.345221,-0.76761 0.767609,-0.76761 0.423748,0 0.767608,0.34252 0.767608,0.76761 v 5.88365 c 0,0.42509 -0.34386,0.7676 -0.767608,0.7676"
      style="fill:#f4e73e;fill-opacity:1;fill-rule:nonzero;stroke:none;stroke-width:0.13538" />
    <path id="path690"
      d="m 54.573953,133.45815 c -0.423748,0 -0.767608,-0.34252 -0.767608,-0.76761 v -5.88365 c 0,-0.4251 0.34386,-0.76761 0.767608,-0.76761 0.423739,0 0.767609,0.34251 0.767609,0.76761 v 5.88365 c 0,0.42509 -0.34387,0.76761 -0.767609,0.76761"
      style="fill:#f4e73e;fill-opacity:1;fill-rule:nonzero;stroke:none;stroke-width:0.13538" />
    <path id="path691"
      d="m 64.125053,136.38778 c -0.423738,0 -0.767609,-0.34251 -0.767609,-0.76761 v -5.88228 c 0,-0.4251 0.343871,-0.76761 0.767609,-0.76761 0.423748,0 0.767608,0.34251 0.767608,0.76761 v 5.88228 c 0,0.4251 -0.34386,0.76761 -0.767608,0.76761"
      style="fill:#f4e73e;fill-opacity:1;fill-rule:nonzero;stroke:none;stroke-width:0.13538" />
    <path id="path692"
      d="m 73.793943,138.73122 c -0.423738,0 -0.767608,-0.34251 -0.767608,-0.76761 v -5.88228 c 0,-0.4251 0.34387,-0.76761 0.767608,-0.76761 0.423738,0 0.767609,0.34251 0.767609,0.76761 v 5.88228 c 0,0.4251 -0.343871,0.76761 -0.767609,0.76761"
      style="fill:#f4e73e;fill-opacity:1;fill-rule:nonzero;stroke:none;stroke-width:0.13538" />
    <path id="path693"
      d="m 83.554886,140.48982 c -0.423738,0 -0.767608,-0.34251 -0.767608,-0.76626 v -5.885 c 0,-0.42374 0.34387,-0.76625 0.767608,-0.76625 0.423748,0 0.767608,0.34251 0.767608,0.76625 v 5.885 c 0,0.42375 -0.34386,0.76626 -0.767608,0.76626"
      style="fill:#f4e73e;fill-opacity:1;fill-rule:nonzero;stroke:none;stroke-width:0.13538" />
    <path id="path694"
      d="m 93.384883,141.66222 c -0.423748,0 -0.767608,-0.34252 -0.767608,-0.76761 v -5.8823 c 0,-0.42509 0.34386,-0.76761 0.767608,-0.76761 0.423738,0 0.767608,0.34252 0.767608,0.76761 v 5.8823 c 0,0.42509 -0.34387,0.76761 -0.767608,0.76761"
      style="fill:#f4e73e;fill-opacity:1;fill-rule:nonzero;stroke:none;stroke-width:0.13538" />
    <path id="path695"
      d="m 103.25277,142.24706 c -0.42374,0 -0.76761,-0.34252 -0.76761,-0.76761 v -5.8823 c 0,-0.42508 0.34387,-0.7676 0.76761,-0.7676 0.42375,0 0.76761,0.34252 0.76761,0.7676 v 5.8823 c 0,0.42509 -0.34386,0.76761 -0.76761,0.76761"
      style="fill:#f4e73e;fill-opacity:1;fill-rule:nonzero;stroke:none;stroke-width:0.13538" />
    <path id="path696"
      d="m 113.13421,142.24706 c -0.42374,0 -0.76761,-0.34252 -0.76761,-0.76761 v -5.8823 c 0,-0.42508 0.34387,-0.7676 0.76761,-0.7676 0.42374,0 0.76761,0.34252 0.76761,0.7676 v 5.8823 c 0,0.42509 -0.34387,0.76761 -0.76761,0.76761"
      style="fill:#f4e73e;fill-opacity:1;fill-rule:nonzero;stroke:none;stroke-width:0.13538" />
    <path id="path697"
      d="m 123.00211,141.66222 c -0.42375,0 -0.76761,-0.34252 -0.76761,-0.76761 v -5.8823 c 0,-0.42509 0.34386,-0.76761 0.76761,-0.76761 0.42374,0 0.76761,0.34252 0.76761,0.76761 v 5.8823 c 0,0.42509 -0.34387,0.76761 -0.76761,0.76761"
      style="fill:#f4e73e;fill-opacity:1;fill-rule:nonzero;stroke:none;stroke-width:0.13538" />
    <path id="path698"
      d="m 132.83209,140.48982 c -0.42373,0 -0.7676,-0.34251 -0.7676,-0.76626 v -5.885 c 0,-0.42374 0.34387,-0.76625 0.7676,-0.76625 0.42374,0 0.76761,0.34251 0.76761,0.76625 v 5.885 c 0,0.42375 -0.34387,0.76626 -0.76761,0.76626"
      style="fill:#f4e73e;fill-opacity:1;fill-rule:nonzero;stroke:none;stroke-width:0.13538" />
    <path id="path699"
      d="m 142.59304,138.73122 c -0.42374,0 -0.76761,-0.34251 -0.76761,-0.76761 v -5.88228 c 0,-0.4251 0.34387,-0.76761 0.76761,-0.76761 0.42375,0 0.76761,0.34251 0.76761,0.76761 v 5.88228 c 0,0.4251 -0.34386,0.76761 -0.76761,0.76761"
      style="fill:#f4e73e;fill-opacity:1;fill-rule:nonzero;stroke:none;stroke-width:0.13538" />
    <path id="path700"
      d="m 152.26193,136.38778 c -0.42374,0 -0.76761,-0.34251 -0.76761,-0.76761 v -5.88228 c 0,-0.4251 0.34387,-0.76761 0.76761,-0.76761 0.42374,0 0.76761,0.34251 0.76761,0.76761 v 5.88228 c 0,0.4251 -0.34387,0.76761 -0.76761,0.76761"
      style="fill:#f4e73e;fill-opacity:1;fill-rule:nonzero;stroke:none;stroke-width:0.13538" />
    <path id="path701"
      d="m 161.81168,133.45815 c -0.42239,0 -0.76761,-0.34252 -0.76761,-0.76761 v -5.88365 c 0,-0.4251 0.34522,-0.76761 0.76761,-0.76761 0.42375,0 0.76761,0.34251 0.76761,0.76761 v 5.88365 c 0,0.42509 -0.34386,0.76761 -0.76761,0.76761"
      style="fill:#f4e73e;fill-opacity:1;fill-rule:nonzero;stroke:none;stroke-width:0.13538" />
    <path id="path702"
      d="m 171.21522,129.13002 c -0.42374,0 -0.7676,-0.34251 -0.7676,-0.7676 v -5.88365 c 0,-0.42509 0.34386,-0.76761 0.7676,-0.76761 0.42374,0 0.76761,0.34252 0.76761,0.76761 v 5.88365 c 0,0.42509 -0.34387,0.7676 -0.76761,0.7676"
      style="fill:#f4e73e;fill-opacity:1;fill-rule:nonzero;stroke:none;stroke-width:0.13538" />
    <path id="path703"
      d="m 256.55648,195.64796 c -0.28024,0.22202 -0.58484,0.41427 -0.90976,0.58078 -0.28429,0.14621 -0.5889,0.2667 -0.9084,0.36959 l -0.22067,0.0637 c -0.27347,0.0772 -0.55777,0.14079 -0.8529,0.18818 l -0.21254,0.0338 c -0.37365,0.0487 -0.76085,0.0799 -1.16969,0.0812 l -0.31409,-0.0109 c -0.2342,-0.005 -0.47113,-0.0163 -0.71616,-0.0366 -0.13268,-0.0122 -0.27077,-0.0298 -0.40614,-0.046 -0.22879,-0.0271 -0.46029,-0.0582 -0.69722,-0.0988 -0.14756,-0.0244 -0.29783,-0.0528 -0.4481,-0.0825 -0.23963,-0.0474 -0.48466,-0.10154 -0.73377,-0.1611 -0.15297,-0.0379 -0.30731,-0.0744 -0.46435,-0.11643 -0.2464,-0.065 -0.50091,-0.14215 -0.75408,-0.21932 -0.1814,-0.0555 -0.36146,-0.10831 -0.54558,-0.17058 -0.2694,-0.0893 -0.54558,-0.19088 -0.82312,-0.29377 -0.17734,-0.065 -0.35198,-0.1259 -0.53339,-0.19631 -0.31002,-0.12184 -0.63087,-0.25857 -0.95172,-0.39666 -0.1584,-0.0677 -0.31273,-0.12861 -0.47384,-0.20037 -0.48196,-0.21525 -0.97474,-0.44539 -1.47971,-0.69585 l -0.008,-0.004 c -0.33845,-0.16787 -0.68909,-0.35741 -1.03701,-0.54152 -0.19495,-0.1029 -0.38449,-0.19495 -0.58215,-0.30326 -0.15162,-0.0825 -0.31137,-0.1787 -0.46435,-0.26534 -0.96256,-0.53611 -1.95083,-1.12095 -2.98108,-1.77484 -0.59703,-0.37907 -1.20624,-0.77844 -1.82493,-1.19677 -0.59433,-0.40073 -1.19271,-0.82176 -1.7938,-1.24957 -0.80416,-0.57401 -1.61509,-1.17239 -2.43144,-1.79378 -0.18276,-0.13945 -0.36823,-0.28566 -0.55235,-0.42781 -0.64847,-0.50091 -1.29965,-1.014 -1.95354,-1.54198 -0.25722,-0.20713 -0.5158,-0.41698 -0.77302,-0.62817 -0.65389,-0.53746 -1.31049,-1.08711 -1.96979,-1.65029 -0.18818,-0.1611 -0.37636,-0.31679 -0.56589,-0.48061 -0.8353,-0.72157 -1.6733,-1.46346 -2.51402,-2.22294 -0.19495,-0.17736 -0.39126,-0.36012 -0.5862,-0.53882 -0.66065,-0.60379 -1.32132,-1.21707 -1.98333,-1.84253 -0.26128,-0.24774 -0.52257,-0.49685 -0.7852,-0.7473 -0.67014,-0.64306 -1.34163,-1.29695 -2.01312,-1.95896 -0.18411,-0.18277 -0.36958,-0.36147 -0.5537,-0.54558 -0.84207,-0.83937 -1.68143,-1.69362 -2.52079,-2.56141 -0.20442,-0.21254 -0.40885,-0.42915 -0.61327,-0.64305 -0.65118,-0.68097 -1.30101,-1.3687 -1.94949,-2.06592 -0.20713,-0.22201 -0.41291,-0.44404 -0.61868,-0.66742 -1.51627,-1.64352 -3.02441,-3.32765 -4.5136,-5.04834 l -0.20848,-0.23828 c -1.53928,-1.7816 -3.0596,-3.59977 -4.55421,-5.44365 -0.13808,-0.16923 -0.27347,-0.34116 -0.4102,-0.51039 -2.14849,-2.66699 -4.24283,-5.38679 -6.26407,-8.13637 -0.13944,-0.18953 -0.28159,-0.38042 -0.42103,-0.5713 -0.86914,-1.19 -1.72204,-2.38677 -2.5614,-3.58489 -0.1787,-0.25722 -0.35606,-0.51445 -0.53476,-0.77032 -0.85425,-1.23196 -1.69631,-2.46663 -2.51402,-3.7013 l -0.0434,-0.0663 c -0.815,-1.23197 -1.60426,-2.46394 -2.37865,-3.69319 -0.15568,-0.24775 -0.31272,-0.4955 -0.46706,-0.74188 -0.75407,-1.21031 -1.48919,-2.41791 -2.19994,-3.62144 -0.11778,-0.19901 -0.23285,-0.39802 -0.34928,-0.59703 -0.83123,-1.42015 -1.63675,-2.83352 -2.40165,-4.23741 -0.0704,-0.12727 -0.13538,-0.25452 -0.20578,-0.38177 -0.79468,-1.46754 -1.55959,-2.92694 -2.27575,-4.36739 -0.81499,-1.64081 -1.57583,-3.25996 -2.27845,-4.8534 -5.98789,-13.58274 -6.49286,-22.496203 -2.45039,-25.693891 l -11.9311,9.437391 c -4.04112,3.19769 -3.53615,12.11115 2.45175,25.69389 0.70126,1.59343 1.46211,3.21258 2.27709,4.85205 l 0.001,0.001 c 0.71481,1.44046 1.4797,2.89851 2.27439,4.36603 0.0704,0.12861 0.13538,0.25587 0.20577,0.38448 0.76491,1.40119 1.56907,2.81321 2.39895,4.23064 l 0.20307,0.35741 0.15163,0.25046 c 0.71074,1.20083 1.44316,2.40571 2.19587,3.61331 0.15569,0.2491 0.31273,0.49819 0.46978,0.7473 0.77843,1.23331 1.56906,2.46934 2.38675,3.70537 l 0.0244,0.0379 0.007,0.009 c 0.81769,1.23602 1.66112,2.46934 2.51537,3.70265 0.1787,0.25858 0.3574,0.5158 0.53882,0.77438 0.838,1.19812 1.6909,2.39353 2.55869,3.58353 l 0.14892,0.20848 c 0.0907,0.1232 0.18547,0.24368 0.27618,0.36689 2.01853,2.74822 4.11151,5.46667 6.26,8.13231 l 0.28565,0.36012 0.12455,0.15027 c 1.49596,1.84523 3.01493,3.66204 4.5542,5.44365 l 0.2085,0.23963 c 1.49054,1.71933 2.99733,3.40347 4.51494,5.04834 l 0.21525,0.23962 c 0.13268,0.14486 0.26805,0.28295 0.40073,0.42645 0.65254,0.69992 1.30643,1.39172 1.96167,2.07674 0.19901,0.20849 0.39937,0.42104 0.59974,0.62817 0.83935,0.87049 1.68142,1.7261 2.52349,2.56547 0.18547,0.18546 0.37094,0.36416 0.55641,0.54693 0.66879,0.66201 1.33892,1.31455 2.00906,1.9549 0.26263,0.25316 0.52662,0.50362 0.78926,0.75271 0.6593,0.62275 1.31725,1.23333 1.97385,1.83442 0.19901,0.1814 0.39802,0.36822 0.59703,0.54693 0.838,0.75813 1.67466,1.49866 2.50725,2.21889 0.1936,0.16652 0.38448,0.32492 0.57808,0.49007 0.65524,0.55913 1.30913,1.10742 1.9603,1.64218 0.25859,0.21119 0.51581,0.42102 0.77439,0.62952 0.65117,0.52527 1.29965,1.03701 1.94542,1.53521 0.18682,0.14486 0.37636,0.29378 0.56182,0.43593 0.815,0.62004 1.62322,1.21571 2.42603,1.78973 l 0.15568,0.11372 c 0.54965,0.3899 1.09659,0.77031 1.64082,1.1372 2.47882,1.67601 4.77758,3.03252 6.88817,4.08173 h 0.001 l 0.008,0.004 c 0.50632,0.25045 0.9991,0.48195 1.48241,0.6972 0.1584,0.0718 0.31003,0.13133 0.46707,0.19766 0.32221,0.13809 0.64306,0.27618 0.95579,0.39802 0.18276,0.0718 0.36011,0.13268 0.54017,0.20036 0.27482,0.10022 0.54829,0.20172 0.81498,0.28972 0.18683,0.0622 0.36689,0.11507 0.5483,0.17058 0.17464,0.0541 0.35334,0.11507 0.52392,0.16246 l 0.2288,0.0582 c 0.15703,0.0419 0.31137,0.0785 0.4657,0.11507 0.24775,0.0609 0.49279,0.11508 0.73242,0.16246 0.15162,0.0298 0.30054,0.0569 0.44811,0.0825 0.23691,0.0393 0.46841,0.0704 0.69721,0.0975 0.13673,0.0162 0.27346,0.0352 0.40749,0.046 0.24369,0.0216 0.47925,0.0312 0.7121,0.0366 l 0.31815,0.0109 0.0718,0.003 c 0.4102,-0.004 0.79604,-0.0419 1.17105,-0.0947 l 0.14621,-0.0244 c 0.31949,-0.0515 0.62546,-0.1205 0.91788,-0.20714 l 0.15568,-0.0447 c 0.30461,-0.0988 0.59974,-0.2112 0.87456,-0.35064 l 0.0366,-0.023 c 0.32085,-0.16517 0.62275,-0.3547 0.90029,-0.57538 l 11.92974,-9.43737"
      style="fill:#fbc518;fill-opacity:1;fill-rule:nonzero;stroke:none;stroke-width:0.13538" />
    <path id="path704"
      d="m 254.1088,169.95948 c 11.24066,25.50029 3.15031,34.53695 -18.06519,20.19473 C 214.82675,175.81199 188.525,143.5237 177.28434,118.02339 166.04368,92.521734 174.1259,83.479663 195.34276,97.823248 c 21.21551,14.342222 47.52539,46.634572 58.76604,72.136232"
      style="fill:#f9f062;fill-opacity:1;fill-rule:nonzero;stroke:none;stroke-width:0.13538" />
    <path id="path705"
      d="m 204.05451,154.55045 c -9.97079,-12.40629 -18.15996,-25.36086 -23.06075,-36.47696 -5.64943,-12.81649 -5.24599,-19.372976 -3.18415,-21.095018 1.82764,-1.527094 7.06417,-0.936837 16.28359,5.294728 9.69731,6.5565 21.27236,17.79715 31.75625,30.84243 9.96942,12.40493 18.1586,25.35815 23.05803,36.47155 5.64672,12.81243 5.24329,19.37026 3.18144,21.09095 -1.82899,1.52845 -7.06687,0.93819 -16.28899,-5.29474 -9.69461,-6.55513 -21.2656,-17.79308 -31.74542,-30.83294"
      style="fill:#f8df2b;fill-opacity:1;fill-rule:nonzero;stroke:none;stroke-width:0.13538" />
    <path id="path706"
      d="m 191.70238,104.19562 c 9.69732,6.55513 21.27237,17.79714 31.75624,30.84106 9.96944,12.40494 18.15726,25.35815 23.05668,36.4729 4.70177,10.66529 5.20403,16.98351 4.0533,19.79807 0.6444,-0.10694 1.15344,-0.32356 1.52032,-0.62952 2.06185,-1.72069 2.46528,-8.27852 -3.18144,-21.09095 -4.89943,-11.1134 -13.08861,-24.06662 -23.05803,-36.47155 -10.48389,-13.04528 -22.05894,-24.28593 -31.75625,-30.84243 -9.21942,-6.231565 -14.45595,-6.821822 -16.28359,-5.294728 -0.34522,0.288361 -0.63899,0.725634 -0.87049,1.292882 2.57223,-0.42916 7.39178,0.940899 14.76326,5.924266"
      style="fill:#fbc518;fill-opacity:1;fill-rule:nonzero;stroke:none;stroke-width:0.13538" />
    <path id="path709"
      d="m 162.81756,105.55754 c -0.26534,-0.33032 -0.21391,-0.81228 0.11643,-1.07899 l 4.58669,-3.6864 c 0.33033,-0.26536 0.81364,-0.21256 1.07899,0.11778 0.26534,0.33032 0.2139,0.81363 -0.11643,1.07897 l -4.58805,3.68642 c -0.33033,0.26671 -0.81229,0.21255 -1.07763,-0.11778"
      style="fill:#f4e73e;fill-opacity:1;fill-rule:nonzero;stroke:none;stroke-width:0.13538" />
    <path id="path710"
      d="m 165.33429,115.59872 c -0.26535,-0.33032 -0.21391,-0.81363 0.11642,-1.07897 l 4.5867,-3.68642 c 0.33168,-0.26535 0.81364,-0.21255 1.07898,0.11778 0.26535,0.33032 0.21391,0.81363 -0.11642,1.07898 l -4.5867,3.68641 c -0.33168,0.26536 -0.81364,0.21256 -1.07898,-0.11778"
      style="fill:#f4e73e;fill-opacity:1;fill-rule:nonzero;stroke:none;stroke-width:0.13538" />
    <path id="path711"
      d="m 169.03288,124.87772 c -0.26534,-0.33033 -0.21389,-0.81229 0.11778,-1.07899 l 4.58535,-3.68506 c 0.33033,-0.26534 0.81364,-0.21254 1.07898,0.11778 0.26535,0.33033 0.21391,0.81364 -0.11778,1.07899 l -4.58534,3.68506 c -0.33033,0.2667 -0.81364,0.21254 -1.07899,-0.11778"
      style="fill:#f4e73e;fill-opacity:1;fill-rule:nonzero;stroke:none;stroke-width:0.13538" />
    <path id="path712"
      d="m 173.26353,133.88188 c -0.26534,-0.32897 -0.21254,-0.81228 0.11778,-1.07762 l 4.58535,-3.68642 c 0.33032,-0.26534 0.81363,-0.21254 1.07898,0.11778 0.26535,0.33033 0.2139,0.81363 -0.11643,1.07899 l -4.58669,3.68641 c -0.33034,0.26535 -0.81229,0.21119 -1.07899,-0.11914"
      style="fill:#f4e73e;fill-opacity:1;fill-rule:nonzero;stroke:none;stroke-width:0.13538" />
    <path id="path713"
      d="m 178.00727,142.59363 c -0.26534,-0.33032 -0.21391,-0.81363 0.11778,-1.07899 l 4.58669,-3.68641 c 0.33034,-0.26535 0.81365,-0.21255 1.07899,0.11779 0.26534,0.33032 0.21391,0.81363 -0.11778,1.07897 l -4.58669,3.68642 c -0.33034,0.26534 -0.81365,0.21255 -1.07899,-0.11778"
      style="fill:#f4e73e;fill-opacity:1;fill-rule:nonzero;stroke:none;stroke-width:0.13538" />
    <path id="path714"
      d="m 183.25191,150.98859 c -0.26534,-0.33033 -0.21389,-0.81229 0.11778,-1.07899 l 4.58535,-3.68506 c 0.33033,-0.26534 0.81364,-0.21254 1.07898,0.11778 0.26535,0.33033 0.21391,0.81364 -0.11778,1.07899 l -4.58534,3.68506 c -0.33033,0.2667 -0.81363,0.21254 -1.07899,-0.11778"
      style="fill:#f4e73e;fill-opacity:1;fill-rule:nonzero;stroke:none;stroke-width:0.13538" />
    <path id="path715"
      d="m 188.97716,159.04644 c -0.26534,-0.32897 -0.21254,-0.81228 0.11779,-1.07763 l 4.58534,-3.68641 c 0.33032,-0.26536 0.81363,-0.21256 1.07899,0.11778 0.26534,0.33032 0.21389,0.81363 -0.11643,1.07898 l -4.5867,3.68641 c -0.33033,0.26535 -0.81228,0.2112 -1.07899,-0.11913"
      style="fill:#f4e73e;fill-opacity:1;fill-rule:nonzero;stroke:none;stroke-width:0.13538" />
    <path id="path716"
      d="m 195.16812,166.7496 c -0.26534,-0.33033 -0.2139,-0.81229 0.11778,-1.07898 l 4.58534,-3.68507 c 0.33034,-0.26534 0.81365,-0.21254 1.07899,0.11778 0.26534,0.33034 0.21391,0.81365 -0.11778,1.07899 l -4.58534,3.68506 c -0.33033,0.2667 -0.81364,0.21255 -1.07899,-0.11778"
      style="fill:#f4e73e;fill-opacity:1;fill-rule:nonzero;stroke:none;stroke-width:0.13538" />
    <path id="path717"
      d="m 201.80584,174.07505 c -0.26535,-0.33033 -0.2139,-0.81364 0.11778,-1.07899 l 4.58534,-3.68506 c 0.33033,-0.2667 0.81364,-0.21254 1.07898,0.11778 0.26535,0.33033 0.21391,0.81229 -0.11778,1.07899 l -4.58534,3.68506 c -0.33033,0.26534 -0.81364,0.21254 -1.07898,-0.11778"
      style="fill:#f4e73e;fill-opacity:1;fill-rule:nonzero;stroke:none;stroke-width:0.13538" />
    <path id="path718"
      d="m 208.87677,181.00248 c -0.26535,-0.33034 -0.2139,-0.81228 0.11642,-1.07899 l 4.58671,-3.68642 c 0.33167,-0.26534 0.81363,-0.21254 1.07897,0.11778 0.26536,0.33034 0.21391,0.81365 -0.11642,1.07899 l -4.5867,3.68642 c -0.33168,0.26669 -0.81363,0.21255 -1.07898,-0.11778"
      style="fill:#f4e73e;fill-opacity:1;fill-rule:nonzero;stroke:none;stroke-width:0.13538" />
    <path id="path719"
      d="m 216.36332,187.50887 c -0.26534,-0.33033 -0.2139,-0.81228 0.11643,-1.07898 l 4.58669,-3.68506 c 0.33033,-0.26535 0.81229,-0.21256 1.07763,0.11778 0.26535,0.33033 0.21391,0.81363 -0.11642,1.07898 l -4.58534,3.68507 c -0.33169,0.26669 -0.81365,0.21254 -1.07899,-0.11779"
      style="fill:#f4e73e;fill-opacity:1;fill-rule:nonzero;stroke:none;stroke-width:0.13538" />
    <path id="path720"
      d="m 224.24654,193.57799 c -0.26535,-0.33033 -0.21391,-0.81229 0.11778,-1.07899 l 4.58534,-3.68506 c 0.33033,-0.26534 0.81363,-0.21254 1.07899,0.11778 0.26534,0.33033 0.21389,0.81364 -0.11778,1.07899 l -4.58535,3.68506 c -0.33033,0.2667 -0.81364,0.21254 -1.07898,-0.11778"
      style="fill:#f4e73e;fill-opacity:1;fill-rule:nonzero;stroke:none;stroke-width:0.13538" />
    <path id="path721"
      d="m 232.51288,199.18681 c -0.26535,-0.33033 -0.2139,-0.81229 0.11643,-1.07899 l 4.58805,-3.68641 c 0.33033,-0.26535 0.81229,-0.21255 1.07763,0.11778 0.26534,0.33033 0.2139,0.81364 -0.11643,1.07898 l -4.5867,3.68642 c -0.33032,0.26534 -0.81363,0.21254 -1.07898,-0.11778"
      style="fill:#f4e73e;fill-opacity:1;fill-rule:nonzero;stroke:none;stroke-width:0.13538" />
    <path id="path722"
      d="m 241.77698,203.80464 c -0.26535,-0.33032 -0.2139,-0.81228 0.11778,-1.07762 l 4.58669,-3.68642 c 0.33034,-0.26671 0.81228,-0.21255 1.07764,0.11778 0.26669,0.33032 0.21389,0.81228 -0.11643,1.07898 l -4.5867,3.68506 c -0.33032,0.26671 -0.81363,0.21255 -1.07898,-0.11778"
      style="fill:#f4e73e;fill-opacity:1;fill-rule:nonzero;stroke:none;stroke-width:0.13538" />
  </g>
</svg>